# Blender 4.5.3 LTS
# www.blender.org
mtllib Glass-ring-stardeco.mtl
o RenderMesh_87132852844264
v -0.019344 0.013582 -0.216669
v -0.020324 0.013243 -0.218379
v 0.000000 0.033955 -0.237329
v -0.001165 0.033483 -0.238885
v 0.000000 -0.018719 -0.221355
v -0.000980 -0.019058 -0.223065
v -0.048359 -0.000000 -0.202896
v -0.049136 -0.000199 -0.204728
v 0.000000 0.033955 -0.237329
v 0.001165 0.033483 -0.238885
v 0.019344 0.013582 -0.216669
v 0.020324 0.013243 -0.218379
v 0.000000 -0.018719 -0.221355
v 0.000980 -0.019058 -0.223065
v 0.048360 -0.000000 -0.202896
v 0.049137 -0.000199 -0.204728
v -0.019344 0.013582 0.216669
v -0.020324 0.013243 0.218379
v 0.000000 -0.018719 0.221355
v -0.000980 -0.019058 0.223065
v 0.000000 0.033955 0.237329
v -0.001165 0.033483 0.238885
v -0.048359 0.000000 0.202896
v -0.049136 -0.000199 0.204728
v 0.000000 0.033955 0.237329
v 0.001165 0.033483 0.238885
v 0.000000 -0.018719 0.221355
v 0.000980 -0.019058 0.223065
v 0.019344 0.013582 0.216669
v 0.020324 0.013243 0.218379
v 0.048360 0.000000 0.202896
v 0.049137 -0.000199 0.204728
v -0.216669 0.013582 0.019344
v -0.218379 0.013243 0.020324
v -0.237329 0.033955 -0.000000
v -0.238885 0.033483 0.001165
v -0.221355 -0.018719 0.000000
v -0.223065 -0.019058 0.000980
v -0.202896 0.000000 0.048360
v -0.204728 -0.000199 0.049137
v -0.237329 0.033955 -0.000000
v -0.238885 0.033483 -0.001165
v -0.216669 0.013582 -0.019344
v -0.218379 0.013243 -0.020324
v -0.221355 -0.018719 0.000000
v -0.223065 -0.019058 -0.000980
v -0.202896 -0.000000 -0.048359
v -0.204728 -0.000199 -0.049136
v 0.216669 0.013582 0.019344
v 0.218379 0.013243 0.020324
v 0.221355 -0.018719 0.000000
v 0.223065 -0.019058 0.000980
v 0.237329 0.033955 -0.000000
v 0.238885 0.033483 0.001165
v 0.202896 0.000000 0.048359
v 0.204728 -0.000199 0.049136
v 0.237329 0.033955 -0.000000
v 0.238885 0.033483 -0.001165
v 0.221355 -0.018719 0.000000
v 0.223065 -0.019058 -0.000980
v 0.216669 0.013582 -0.019344
v 0.218379 0.013243 -0.020324
v 0.202896 -0.000000 -0.048359
v 0.204728 -0.000199 -0.049136
v -0.019344 -0.013582 -0.189123
v -0.020324 -0.015297 -0.189438
v -0.048359 -0.000000 -0.202896
v -0.049136 -0.001835 -0.203070
v 0.000000 -0.018719 -0.221355
v -0.000980 -0.020434 -0.221670
v 0.000000 -0.033955 -0.168463
v -0.001165 -0.035517 -0.168913
v 0.019344 -0.013582 -0.189123
v 0.020324 -0.015297 -0.189438
v 0.000000 -0.033955 -0.168463
v 0.001165 -0.035517 -0.168913
v 0.000000 -0.018719 -0.221355
v 0.000980 -0.020434 -0.221670
v 0.048360 -0.000000 -0.202896
v 0.049137 -0.001835 -0.203070
v -0.019344 -0.013582 0.189123
v -0.020324 -0.015297 0.189438
v 0.000000 -0.018719 0.221355
v -0.000980 -0.020434 0.221670
v -0.048359 0.000000 0.202896
v -0.049136 -0.001835 0.203070
v 0.000000 -0.033955 0.168463
v -0.001165 -0.035517 0.168913
v 0.019344 -0.013582 0.189123
v 0.020324 -0.015297 0.189438
v 0.000000 -0.018719 0.221355
v 0.000980 -0.020434 0.221670
v 0.000000 -0.033955 0.168463
v 0.001165 -0.035517 0.168913
v 0.048360 0.000000 0.202896
v 0.049137 -0.001835 0.203070
v -0.189123 -0.013582 0.019344
v -0.189438 -0.015297 0.020324
v -0.202896 0.000000 0.048360
v -0.203070 -0.001835 0.049137
v -0.221355 -0.018719 0.000000
v -0.221670 -0.020434 0.000980
v -0.168462 -0.033955 0.000000
v -0.168912 -0.035517 0.001165
v -0.189123 -0.013582 -0.019344
v -0.189438 -0.015297 -0.020324
v -0.168462 -0.033955 0.000000
v -0.168912 -0.035517 -0.001165
v -0.221355 -0.018719 0.000000
v -0.221670 -0.020434 -0.000980
v -0.202896 -0.000000 -0.048359
v -0.203070 -0.001835 -0.049136
v 0.189123 -0.013582 0.019344
v 0.189438 -0.015297 0.020324
v 0.221355 -0.018719 0.000000
v 0.221670 -0.020434 0.000980
v 0.202896 0.000000 0.048359
v 0.203070 -0.001835 0.049136
v 0.168463 -0.033955 0.000000
v 0.168913 -0.035517 0.001165
v 0.189123 -0.013582 -0.019344
v 0.189438 -0.015297 -0.020324
v 0.221355 -0.018719 0.000000
v 0.221670 -0.020434 -0.000980
v 0.168463 -0.033955 0.000000
v 0.168913 -0.035517 -0.001165
v 0.202896 -0.000000 -0.048359
v 0.203070 -0.001835 -0.049136
v 0.000000 0.033955 -0.237329
v -0.000908 0.035573 -0.236583
v -0.019344 0.013582 -0.216669
v -0.020105 0.015317 -0.216027
v 0.000000 0.012430 -0.190638
v -0.000761 0.014165 -0.189996
v -0.048359 -0.000000 -0.202896
v -0.048964 0.001831 -0.202365
v 0.048360 -0.000000 -0.202896
v 0.048965 0.001831 -0.202365
v 0.019344 0.013582 -0.216669
v 0.020105 0.015317 -0.216027
v 0.000000 0.012430 -0.190638
v 0.000761 0.014165 -0.189996
v 0.000000 0.033955 -0.237329
v 0.000908 0.035573 -0.236583
v 0.000000 0.033955 0.237329
v -0.000908 0.035573 0.236583
v 0.000000 0.012430 0.190638
v -0.000761 0.014165 0.189996
v -0.019344 0.013582 0.216669
v -0.020105 0.015317 0.216027
v -0.048359 0.000000 0.202896
v -0.048964 0.001831 0.202365
v 0.048360 0.000000 0.202896
v 0.048965 0.001831 0.202365
v 0.000000 0.012430 0.190638
v 0.000761 0.014165 0.189996
v 0.019344 0.013582 0.216669
v 0.020105 0.015317 0.216027
v 0.000000 0.033955 0.237329
v 0.000908 0.035573 0.236583
v -0.237329 0.033955 -0.000000
v -0.236583 0.035573 0.000908
v -0.216669 0.013582 0.019344
v -0.216027 0.015317 0.020105
v -0.190638 0.012430 -0.000000
v -0.189996 0.014165 0.000761
v -0.202896 0.000000 0.048360
v -0.202365 0.001831 0.048965
v -0.202896 -0.000000 -0.048359
v -0.202365 0.001831 -0.048964
v -0.216669 0.013582 -0.019344
v -0.216027 0.015317 -0.020105
v -0.190638 0.012430 -0.000000
v -0.189996 0.014165 -0.000761
v -0.237329 0.033955 -0.000000
v -0.236583 0.035573 -0.000908
v 0.237329 0.033955 -0.000000
v 0.236583 0.035573 0.000908
v 0.190638 0.012430 -0.000000
v 0.189996 0.014165 0.000761
v 0.216669 0.013582 0.019344
v 0.216027 0.015317 0.020105
v 0.202896 0.000000 0.048359
v 0.202365 0.001831 0.048964
v 0.202896 -0.000000 -0.048359
v 0.202365 0.001831 -0.048964
v 0.190638 0.012430 -0.000000
v 0.189996 0.014165 -0.000761
v 0.216669 0.013582 -0.019344
v 0.216027 0.015317 -0.020105
v 0.237329 0.033955 -0.000000
v 0.236583 0.035573 -0.000908
v -0.048359 -0.000000 -0.202896
v -0.048964 0.000556 -0.201073
v -0.019344 -0.013582 -0.189123
v -0.020105 -0.012916 -0.187398
v 0.000000 0.012430 -0.190638
v -0.000761 0.013096 -0.188913
v 0.000000 -0.033955 -0.168463
v -0.000908 -0.033186 -0.166855
v 0.019344 -0.013582 -0.189123
v 0.020105 -0.012916 -0.187398
v 0.048360 -0.000000 -0.202896
v 0.048965 0.000556 -0.201073
v 0.000000 0.012430 -0.190638
v 0.000761 0.013096 -0.188913
v 0.000000 -0.033955 -0.168463
v 0.000908 -0.033186 -0.166855
v -0.048359 0.000000 0.202896
v -0.048964 0.000556 0.201073
v 0.000000 0.012430 0.190638
v -0.000761 0.013096 0.188913
v -0.019344 -0.013582 0.189123
v -0.020105 -0.012916 0.187398
v 0.000000 -0.033955 0.168463
v -0.000908 -0.033186 0.166855
v 0.019344 -0.013582 0.189123
v 0.020105 -0.012916 0.187398
v 0.000000 0.012430 0.190638
v 0.000761 0.013096 0.188913
v 0.048360 0.000000 0.202896
v 0.048965 0.000556 0.201073
v 0.000000 -0.033955 0.168463
v 0.000908 -0.033186 0.166855
v -0.202896 0.000000 0.048360
v -0.201073 0.000556 0.048965
v -0.189123 -0.013582 0.019344
v -0.187398 -0.012916 0.020105
v -0.190638 0.012430 -0.000000
v -0.188913 0.013096 0.000761
v -0.168462 -0.033955 0.000000
v -0.166854 -0.033186 0.000908
v -0.189123 -0.013582 -0.019344
v -0.187398 -0.012916 -0.020105
v -0.202896 -0.000000 -0.048359
v -0.201073 0.000556 -0.048964
v -0.190638 0.012430 -0.000000
v -0.188913 0.013096 -0.000761
v -0.168462 -0.033955 0.000000
v -0.166854 -0.033186 -0.000908
v 0.202896 0.000000 0.048359
v 0.201073 0.000556 0.048964
v 0.190638 0.012430 -0.000000
v 0.188913 0.013096 0.000761
v 0.189123 -0.013582 0.019344
v 0.187398 -0.012916 0.020105
v 0.168463 -0.033955 0.000000
v 0.166855 -0.033186 0.000908
v 0.189123 -0.013582 -0.019344
v 0.187398 -0.012916 -0.020105
v 0.190638 0.012430 -0.000000
v 0.188913 0.013096 -0.000761
v 0.202896 -0.000000 -0.048359
v 0.201073 0.000556 -0.048964
v 0.168463 -0.033955 0.000000
v 0.166855 -0.033186 -0.000908
v -0.018759 0.013143 -0.218247
v -0.001395 0.031461 -0.236813
v -0.001303 -0.016005 -0.222476
v -0.046240 -0.000027 -0.204882
v -0.020159 0.012159 -0.217250
v -0.002704 -0.016989 -0.221478
v 0.001395 0.031461 -0.236813
v 0.018759 0.013143 -0.218247
v 0.001303 -0.016005 -0.222476
v 0.020159 0.012159 -0.217250
v 0.046241 -0.000027 -0.204882
v 0.002704 -0.016989 -0.221479
v -0.018759 0.013143 0.218247
v -0.001303 -0.016005 0.222476
v -0.001395 0.031461 0.236813
v -0.046240 -0.000027 0.204882
v -0.002704 -0.016989 0.221478
v -0.020159 0.012159 0.217250
v 0.001395 0.031461 0.236813
v 0.001303 -0.016005 0.222476
v 0.018759 0.013143 0.218247
v 0.020159 0.012159 0.217250
v 0.002704 -0.016989 0.221479
v 0.046241 -0.000027 0.204882
v -0.218247 0.013143 0.018759
v -0.236813 0.031461 0.001395
v -0.222476 -0.016005 0.001303
v -0.204882 -0.000027 0.046241
v -0.217250 0.012159 0.020159
v -0.221479 -0.016989 0.002704
v -0.236813 0.031461 -0.001395
v -0.218247 0.013143 -0.018759
v -0.222476 -0.016005 -0.001303
v -0.217250 0.012159 -0.020159
v -0.204882 -0.000027 -0.046240
v -0.221478 -0.016989 -0.002704
v 0.218247 0.013143 0.018759
v 0.222476 -0.016005 0.001303
v 0.236813 0.031461 0.001395
v 0.204882 -0.000027 0.046240
v 0.221478 -0.016989 0.002704
v 0.217250 0.012159 0.020159
v 0.236813 0.031461 -0.001395
v 0.222476 -0.016005 -0.001303
v 0.218247 0.013143 -0.018759
v 0.217250 0.012159 -0.020159
v 0.221478 -0.016989 -0.002704
v 0.204882 -0.000027 -0.046240
v -0.020159 -0.014183 -0.190538
v -0.046240 -0.001987 -0.202895
v -0.002704 -0.018818 -0.219623
v -0.001395 -0.033474 -0.170964
v -0.018759 -0.015166 -0.189540
v -0.001303 -0.019802 -0.218626
v 0.018759 -0.015166 -0.189540
v 0.001395 -0.033474 -0.170964
v 0.001303 -0.019802 -0.218626
v 0.046241 -0.001987 -0.202895
v 0.020159 -0.014183 -0.190538
v 0.002704 -0.018818 -0.219623
v -0.020159 -0.014183 0.190538
v -0.002704 -0.018818 0.219623
v -0.046240 -0.001987 0.202895
v -0.001395 -0.033474 0.170964
v -0.001303 -0.019802 0.218626
v -0.018759 -0.015166 0.189540
v 0.018759 -0.015166 0.189540
v 0.001303 -0.019802 0.218626
v 0.001395 -0.033474 0.170964
v 0.046241 -0.001987 0.202895
v 0.002704 -0.018818 0.219623
v 0.020159 -0.014183 0.190538
v -0.190538 -0.014183 0.020159
v -0.202895 -0.001987 0.046241
v -0.219623 -0.018818 0.002704
v -0.170964 -0.033474 0.001395
v -0.189540 -0.015166 0.018759
v -0.218626 -0.019802 0.001303
v -0.189540 -0.015166 -0.018759
v -0.170964 -0.033474 -0.001395
v -0.218626 -0.019802 -0.001303
v -0.202895 -0.001987 -0.046240
v -0.190538 -0.014183 -0.020159
v -0.219623 -0.018818 -0.002704
v 0.190538 -0.014183 0.020159
v 0.219623 -0.018818 0.002704
v 0.202895 -0.001987 0.046240
v 0.170964 -0.033474 0.001395
v 0.218626 -0.019802 0.001303
v 0.189540 -0.015166 0.018759
v 0.189540 -0.015166 -0.018759
v 0.218626 -0.019802 -0.001303
v 0.170964 -0.033474 -0.001395
v 0.202895 -0.001987 -0.046240
v 0.219623 -0.018818 -0.002704
v 0.190538 -0.014183 -0.020159
v -0.001345 0.033153 -0.234545
v -0.018558 0.015006 -0.216135
v -0.001271 0.013976 -0.192874
v -0.019964 0.014018 -0.215134
v -0.045814 0.001929 -0.202882
v -0.002678 0.012989 -0.191873
v 0.045815 0.001929 -0.202882
v 0.019964 0.014018 -0.215134
v 0.002678 0.012989 -0.191873
v 0.018558 0.015006 -0.216135
v 0.001345 0.033153 -0.234545
v 0.001271 0.013976 -0.192874
v -0.001345 0.033153 0.234545
v -0.001271 0.013976 0.192874
v -0.018558 0.015006 0.216135
v -0.019964 0.014018 0.215134
v -0.002678 0.012989 0.191873
v -0.045814 0.001930 0.202882
v 0.045815 0.001930 0.202882
v 0.002678 0.012989 0.191873
v 0.019964 0.014018 0.215134
v 0.018558 0.015006 0.216135
v 0.001271 0.013976 0.192874
v 0.001345 0.033153 0.234545
v -0.234545 0.033153 0.001345
v -0.216135 0.015006 0.018558
v -0.192874 0.013976 0.001271
v -0.215134 0.014018 0.019964
v -0.202882 0.001929 0.045815
v -0.191873 0.012989 0.002678
v -0.202882 0.001929 -0.045814
v -0.215134 0.014018 -0.019964
v -0.191873 0.012989 -0.002678
v -0.216135 0.015006 -0.018558
v -0.234545 0.033153 -0.001345
v -0.192874 0.013976 -0.001271
v 0.234545 0.033153 0.001345
v 0.192874 0.013976 0.001271
v 0.216135 0.015006 0.018558
v 0.215134 0.014018 0.019964
v 0.191873 0.012989 0.002678
v 0.202882 0.001929 0.045814
v 0.202882 0.001929 -0.045814
v 0.191873 0.012989 -0.002678
v 0.215134 0.014018 -0.019964
v 0.216135 0.015006 -0.018558
v 0.192874 0.013976 -0.001271
v 0.234545 0.033153 -0.001345
v -0.045814 0.000041 -0.200967
v -0.019964 -0.012041 -0.188708
v -0.002678 0.011203 -0.190062
v -0.018558 -0.013029 -0.187707
v -0.001345 -0.031183 -0.169304
v -0.001271 0.010216 -0.189061
v 0.019964 -0.012041 -0.188708
v 0.045815 0.000041 -0.200967
v 0.002678 0.011203 -0.190062
v 0.001345 -0.031183 -0.169304
v 0.018558 -0.013029 -0.187707
v 0.001271 0.010216 -0.189061
v -0.045814 0.000041 0.200967
v -0.002678 0.011203 0.190062
v -0.019964 -0.012041 0.188708
v -0.018558 -0.013028 0.187707
v -0.001271 0.010216 0.189061
v -0.001345 -0.031183 0.169304
v 0.019964 -0.012041 0.188708
v 0.002678 0.011203 0.190062
v 0.045815 0.000041 0.200967
v 0.001345 -0.031183 0.169304
v 0.001271 0.010216 0.189061
v 0.018558 -0.013028 0.187707
v -0.200967 0.000041 0.045815
v -0.188708 -0.012041 0.019964
v -0.190062 0.011203 0.002678
v -0.187707 -0.013028 0.018558
v -0.169303 -0.031183 0.001345
v -0.189061 0.010216 0.001271
v -0.188708 -0.012041 -0.019964
v -0.200967 0.000041 -0.045814
v -0.190062 0.011203 -0.002678
v -0.169303 -0.031183 -0.001345
v -0.187707 -0.013028 -0.018558
v -0.189061 0.010216 -0.001271
v 0.200967 0.000041 0.045814
v 0.190062 0.011203 0.002678
v 0.188708 -0.012041 0.019964
v 0.187707 -0.013028 0.018558
v 0.189061 0.010216 0.001271
v 0.169304 -0.031183 0.001345
v 0.188708 -0.012041 -0.019964
v 0.190062 0.011203 -0.002678
v 0.200967 0.000041 -0.045814
v 0.169304 -0.031183 -0.001345
v 0.189061 0.010216 -0.001271
v 0.187707 -0.013028 -0.018558
vn 0.8458 -0.1880 -0.4993
vn -0.3140 -0.8359 0.4502
vn 0.4307 -0.0619 0.9004
vn 0.6647 -0.2240 0.7127
vn -0.2088 -0.5337 -0.8195
vn -0.6404 -0.5074 -0.5766
vn -0.2320 0.9721 -0.0350
vn 0.3224 0.4073 0.8545
vn -0.6243 0.1040 -0.7743
vn 0.9075 0.0217 -0.4195
vn -0.2236 -0.9388 0.2621
vn 0.6846 0.1163 0.7196
vn -0.0543 -0.0958 -0.9939
vn -0.7074 0.6383 0.3035
vn 0.3140 -0.8359 0.4502
vn -0.8458 -0.1880 -0.4993
vn -0.6647 -0.2240 0.7127
vn -0.4307 -0.0619 0.9004
vn 0.6404 -0.5074 -0.5766
vn 0.2088 -0.5337 -0.8195
vn 0.2321 0.9721 -0.0350
vn -0.3224 0.4073 0.8545
vn 0.6243 0.1040 -0.7743
vn 0.2236 -0.9388 0.2621
vn -0.9075 0.0217 -0.4195
vn -0.6846 0.1163 0.7196
vn 0.0543 -0.0958 -0.9939
vn 0.7075 0.6383 0.3035
vn 0.8458 -0.1880 0.4993
vn -0.2320 0.9721 0.0350
vn 0.3224 0.4073 -0.8545
vn 0.6647 -0.2240 -0.7127
vn -0.2088 -0.5337 0.8195
vn -0.6243 0.1040 0.7743
vn -0.3140 -0.8359 -0.4502
vn 0.4307 -0.0619 -0.9004
vn -0.6404 -0.5074 0.5766
vn 0.9075 0.0217 0.4195
vn -0.7074 0.6383 -0.3035
vn 0.6846 0.1163 -0.7196
vn -0.0543 -0.0958 0.9939
vn -0.2236 -0.9388 -0.2621
vn 0.3140 -0.8359 -0.4502
vn 0.2321 0.9721 0.0350
vn -0.3224 0.4073 -0.8545
vn -0.4307 -0.0619 -0.9004
vn 0.6404 -0.5074 0.5766
vn 0.6243 0.1040 0.7743
vn -0.8458 -0.1880 0.4993
vn -0.6647 -0.2240 -0.7127
vn 0.2088 -0.5337 0.8195
vn 0.2236 -0.9388 -0.2621
vn 0.7074 0.6383 -0.3035
vn -0.9075 0.0217 0.4195
vn -0.6846 0.1163 -0.7196
vn 0.0543 -0.0958 0.9939
vn -0.4993 -0.1880 -0.8458
vn 0.4502 -0.8359 0.3140
vn 0.9004 -0.0619 -0.4307
vn 0.7127 -0.2240 -0.6647
vn -0.8195 -0.5337 0.2088
vn -0.5766 -0.5074 0.6404
vn -0.0350 0.9721 0.2321
vn 0.8545 0.4073 -0.3224
vn -0.7743 0.1040 0.6243
vn -0.4195 0.0217 -0.9075
vn 0.2621 -0.9388 0.2236
vn 0.7196 0.1163 -0.6846
vn -0.9939 -0.0958 0.0543
vn 0.3035 0.6383 0.7075
vn 0.4502 -0.8359 -0.3140
vn -0.4993 -0.1880 0.8458
vn 0.7127 -0.2240 0.6647
vn 0.9004 -0.0619 0.4307
vn -0.5766 -0.5074 -0.6404
vn -0.8195 -0.5337 -0.2088
vn -0.0350 0.9721 -0.2321
vn 0.8545 0.4073 0.3224
vn -0.7743 0.1040 -0.6243
vn 0.2621 -0.9388 -0.2236
vn -0.4195 0.0217 0.9075
vn 0.7196 0.1163 0.6846
vn -0.9939 -0.0958 -0.0543
vn 0.3035 0.6383 -0.7074
vn 0.4993 -0.1880 -0.8458
vn 0.0350 0.9721 0.2321
vn -0.8545 0.4073 -0.3224
vn -0.7127 -0.2240 -0.6647
vn 0.8195 -0.5337 0.2088
vn 0.7743 0.1040 0.6243
vn -0.4502 -0.8359 0.3140
vn -0.9004 -0.0619 -0.4307
vn 0.5766 -0.5074 0.6404
vn 0.4195 0.0217 -0.9075
vn -0.3035 0.6383 0.7074
vn -0.7196 0.1163 -0.6846
vn 0.9939 -0.0958 0.0543
vn -0.2621 -0.9388 0.2236
vn -0.4502 -0.8359 -0.3140
vn 0.0350 0.9721 -0.2321
vn -0.8545 0.4073 0.3224
vn -0.9004 -0.0619 0.4307
vn 0.5766 -0.5074 -0.6404
vn 0.7743 0.1040 -0.6243
vn 0.4993 -0.1880 0.8458
vn -0.7127 -0.2240 0.6647
vn 0.8195 -0.5337 -0.2088
vn -0.2621 -0.9388 -0.2236
vn -0.3035 0.6383 -0.7074
vn 0.4195 0.0217 0.9075
vn -0.7196 0.1163 0.6846
vn 0.9939 -0.0958 -0.0543
vn -0.2236 0.2489 -0.9424
vn 0.9075 -0.4192 0.0276
vn 0.6846 0.7212 0.1062
vn 0.6647 0.7095 -0.2339
vn -0.2088 -0.8269 -0.5222
vn -0.0543 -0.9952 -0.0819
vn -0.7074 0.3124 0.6340
vn 0.3224 0.8601 0.3954
vn -0.6243 -0.7727 0.1148
vn -0.3140 0.4384 -0.8421
vn 0.8458 -0.5019 -0.1810
vn 0.4307 0.8994 -0.0745
vn -0.6404 -0.5836 -0.4993
vn -0.2321 -0.0214 0.9725
vn -0.8458 -0.5019 -0.1810
vn 0.3140 0.4384 -0.8421
vn -0.4307 0.8994 -0.0745
vn -0.6647 0.7095 -0.2339
vn 0.2088 -0.8269 -0.5222
vn 0.6404 -0.5836 -0.4993
vn 0.2321 -0.0214 0.9725
vn -0.3224 0.8601 0.3954
vn 0.6243 -0.7727 0.1148
vn -0.9075 -0.4192 0.0276
vn 0.2236 0.2489 -0.9424
vn -0.6846 0.7212 0.1062
vn 0.0543 -0.9952 -0.0819
vn 0.7074 0.3124 0.6340
vn -0.2236 0.2489 0.9424
vn -0.7074 0.3124 -0.6340
vn 0.3224 0.8601 -0.3954
vn 0.6647 0.7095 0.2339
vn -0.2088 -0.8269 0.5222
vn -0.6243 -0.7727 -0.1148
vn 0.9075 -0.4192 -0.0276
vn 0.6846 0.7212 -0.1062
vn -0.0543 -0.9952 0.0819
vn -0.3140 0.4384 0.8421
vn -0.2321 -0.0214 -0.9725
vn 0.4307 0.8994 0.0745
vn -0.6404 -0.5836 0.4993
vn 0.8458 -0.5019 0.1810
vn -0.8458 -0.5019 0.1810
vn 0.2321 -0.0214 -0.9725
vn -0.3224 0.8601 -0.3954
vn -0.6647 0.7095 0.2339
vn 0.2088 -0.8269 0.5222
vn 0.6243 -0.7727 -0.1148
vn 0.3140 0.4384 0.8421
vn -0.4307 0.8994 0.0745
vn 0.6404 -0.5836 0.4993
vn -0.9075 -0.4192 -0.0276
vn 0.7074 0.3124 -0.6340
vn -0.6846 0.7212 -0.1062
vn 0.0543 -0.9952 0.0819
vn 0.2236 0.2489 0.9424
vn -0.9424 0.2489 0.2236
vn 0.0276 -0.4192 -0.9075
vn 0.1062 0.7212 -0.6846
vn -0.2339 0.7095 -0.6647
vn -0.5222 -0.8269 0.2088
vn -0.0819 -0.9952 0.0543
vn 0.6340 0.3124 0.7075
vn 0.3953 0.8601 -0.3224
vn 0.1148 -0.7727 0.6243
vn -0.8421 0.4384 0.3140
vn -0.1809 -0.5019 -0.8458
vn -0.0745 0.8994 -0.4307
vn -0.4992 -0.5836 0.6404
vn 0.9725 -0.0214 0.2321
vn -0.1809 -0.5019 0.8458
vn -0.8421 0.4384 -0.3140
vn -0.0745 0.8994 0.4307
vn -0.2339 0.7095 0.6647
vn -0.5222 -0.8269 -0.2088
vn -0.4992 -0.5836 -0.6404
vn 0.9725 -0.0214 -0.2321
vn 0.3954 0.8601 0.3224
vn 0.1148 -0.7727 -0.6243
vn 0.0276 -0.4192 0.9075
vn -0.9424 0.2489 -0.2236
vn 0.1062 0.7212 0.6846
vn -0.0819 -0.9952 -0.0543
vn 0.6340 0.3124 -0.7075
vn 0.9424 0.2489 0.2236
vn -0.6340 0.3124 0.7075
vn -0.3954 0.8601 -0.3224
vn 0.2339 0.7095 -0.6647
vn 0.5222 -0.8269 0.2088
vn -0.1148 -0.7727 0.6243
vn -0.0276 -0.4192 -0.9075
vn -0.1062 0.7212 -0.6846
vn 0.0819 -0.9952 0.0543
vn 0.8421 0.4384 0.3140
vn -0.9725 -0.0214 0.2321
vn 0.0745 0.8994 -0.4307
vn 0.4993 -0.5836 0.6404
vn 0.1810 -0.5019 -0.8458
vn 0.1810 -0.5019 0.8458
vn -0.9725 -0.0214 -0.2321
vn -0.3954 0.8601 0.3224
vn 0.2339 0.7095 0.6647
vn 0.5222 -0.8269 -0.2088
vn -0.1148 -0.7727 -0.6243
vn 0.8421 0.4384 -0.3140
vn 0.0745 0.8994 0.4307
vn 0.4993 -0.5836 -0.6404
vn -0.0276 -0.4192 0.9075
vn -0.6340 0.3124 -0.7075
vn -0.1062 0.7212 0.6846
vn 0.0819 -0.9952 -0.0543
vn 0.9424 0.2489 -0.2236
vn -0.3026 -0.5114 0.8043
vn 0.9108 0.3869 0.1438
vn 0.6042 -0.7942 0.0654
vn 0.3282 -0.9385 -0.1070
vn -0.5152 0.6077 0.6044
vn -0.0746 0.7604 0.6451
vn -0.2970 0.2018 -0.9333
vn 0.1783 -0.8142 -0.5525
vn -0.5541 0.8314 0.0417
vn -0.1692 -0.3715 0.9129
vn 0.9318 0.3553 -0.0745
vn 0.5828 -0.7598 -0.2883
vn 0.0036 0.9720 0.2350
vn -0.8063 -0.1558 -0.5707
vn -0.9318 0.3553 -0.0745
vn 0.1693 -0.3715 0.9129
vn -0.6042 -0.7942 0.0654
vn -0.5827 -0.7598 -0.2883
vn -0.0036 0.9720 0.2350
vn 0.0746 0.7604 0.6451
vn 0.8063 -0.1558 -0.5707
vn -0.1783 -0.8142 -0.5525
vn 0.5541 0.8314 0.0417
vn -0.9108 0.3869 0.1438
vn 0.3026 -0.5114 0.8043
vn -0.3282 -0.9385 -0.1070
vn 0.5152 0.6077 0.6044
vn 0.2970 0.2018 -0.9333
vn -0.3026 -0.5114 -0.8043
vn -0.2970 0.2018 0.9333
vn 0.1783 -0.8142 0.5525
vn 0.3282 -0.9385 0.1070
vn -0.5152 0.6077 -0.6044
vn -0.5541 0.8314 -0.0417
vn 0.9108 0.3869 -0.1438
vn 0.6042 -0.7942 -0.0654
vn -0.0746 0.7604 -0.6451
vn -0.1692 -0.3715 -0.9129
vn -0.8063 -0.1558 0.5707
vn 0.9318 0.3553 0.0745
vn 0.5828 -0.7598 0.2883
vn 0.0036 0.9720 -0.2350
vn -0.9318 0.3553 0.0745
vn 0.8063 -0.1558 0.5707
vn -0.1783 -0.8142 0.5525
vn -0.5827 -0.7598 0.2883
vn -0.0036 0.9720 -0.2350
vn 0.5541 0.8314 -0.0417
vn 0.1693 -0.3715 -0.9129
vn -0.6042 -0.7942 -0.0654
vn 0.0746 0.7604 -0.6451
vn -0.9108 0.3869 -0.1438
vn 0.2970 0.2018 0.9333
vn 0.3026 -0.5114 -0.8043
vn -0.3282 -0.9385 0.1070
vn 0.5152 0.6077 -0.6044
vn 0.8043 -0.5114 0.3026
vn 0.1438 0.3869 -0.9108
vn 0.0654 -0.7942 -0.6042
vn -0.1070 -0.9385 -0.3282
vn 0.6044 0.6077 0.5152
vn 0.6452 0.7604 0.0746
vn -0.9333 0.2018 0.2970
vn -0.5525 -0.8142 -0.1783
vn 0.0417 0.8314 0.5541
vn 0.9129 -0.3715 0.1693
vn -0.0745 0.3553 -0.9318
vn -0.2883 -0.7598 -0.5827
vn 0.2350 0.9720 -0.0036
vn -0.5707 -0.1558 0.8063
vn -0.0746 0.3553 0.9318
vn 0.9129 -0.3715 -0.1692
vn 0.0654 -0.7942 0.6042
vn -0.2883 -0.7598 0.5828
vn 0.2350 0.9720 0.0036
vn 0.6451 0.7604 -0.0746
vn -0.5707 -0.1558 -0.8063
vn -0.5525 -0.8142 0.1783
vn 0.0417 0.8314 -0.5541
vn 0.1438 0.3869 0.9108
vn 0.8043 -0.5114 -0.3026
vn -0.1070 -0.9385 0.3282
vn 0.6044 0.6077 -0.5152
vn -0.9333 0.2018 -0.2970
vn -0.8043 -0.5114 0.3026
vn 0.9333 0.2018 0.2970
vn 0.5525 -0.8142 -0.1783
vn 0.1070 -0.9385 -0.3282
vn -0.6044 0.6077 0.5152
vn -0.0417 0.8314 0.5541
vn -0.1438 0.3869 -0.9108
vn -0.0654 -0.7942 -0.6042
vn -0.6451 0.7604 0.0746
vn -0.9129 -0.3715 0.1692
vn 0.5707 -0.1558 0.8063
vn 0.0746 0.3553 -0.9318
vn 0.2883 -0.7598 -0.5828
vn -0.2350 0.9720 -0.0036
vn 0.0746 0.3553 0.9318
vn 0.5707 -0.1558 -0.8063
vn 0.5525 -0.8142 0.1783
vn 0.2883 -0.7598 0.5828
vn -0.2350 0.9720 0.0036
vn -0.0417 0.8314 -0.5541
vn -0.9129 -0.3715 -0.1692
vn -0.0654 -0.7942 0.6042
vn -0.6452 0.7604 -0.0746
vn -0.1438 0.3869 0.9108
vn 0.9333 0.2018 -0.2970
vn -0.8043 -0.5114 -0.3026
vn 0.1070 -0.9385 0.3282
vn -0.6044 0.6077 -0.5152
vn 0.9318 -0.0696 0.3563
vn -0.1692 0.9076 -0.3842
vn 0.6042 0.0543 -0.7950
vn 0.5828 -0.2989 -0.7557
vn 0.0036 0.2485 0.9686
vn -0.0746 0.6557 0.7513
vn -0.8063 -0.5728 -0.1478
vn 0.1783 -0.5638 -0.8064
vn -0.5541 0.0533 0.8308
vn 0.9108 0.1492 0.3849
vn -0.3025 0.7971 -0.5226
vn 0.3282 -0.1201 -0.9369
vn -0.5152 0.6128 0.5992
vn -0.2970 -0.9304 0.2148
vn 0.1692 0.9076 -0.3842
vn -0.9318 -0.0696 0.3563
vn -0.5827 -0.2989 -0.7557
vn -0.6042 0.0543 -0.7950
vn 0.0746 0.6557 0.7513
vn -0.0036 0.2485 0.9686
vn 0.8063 -0.5728 -0.1478
vn -0.1783 -0.5638 -0.8064
vn 0.5541 0.0533 0.8308
vn 0.3025 0.7971 -0.5226
vn -0.9108 0.1492 0.3849
vn -0.3282 -0.1201 -0.9369
vn 0.5152 0.6128 0.5992
vn 0.2970 -0.9304 0.2148
vn 0.9318 -0.0696 -0.3563
vn -0.8063 -0.5728 0.1478
vn 0.1783 -0.5638 0.8064
vn 0.5828 -0.2989 0.7557
vn 0.0036 0.2485 -0.9686
vn -0.5541 0.0533 -0.8308
vn -0.1692 0.9076 0.3842
vn 0.6042 0.0543 0.7950
vn -0.0746 0.6557 -0.7513
vn 0.9108 0.1492 -0.3849
vn -0.2970 -0.9304 -0.2148
vn -0.3025 0.7971 0.5226
vn 0.3282 -0.1201 0.9369
vn -0.5152 0.6128 -0.5992
vn 0.1692 0.9076 0.3842
vn 0.8063 -0.5728 0.1478
vn -0.1783 -0.5638 0.8064
vn -0.6042 0.0543 0.7950
vn 0.0746 0.6557 -0.7513
vn 0.5541 0.0533 -0.8308
vn -0.9318 -0.0696 -0.3563
vn -0.5827 -0.2989 0.7557
vn -0.0036 0.2485 -0.9686
vn 0.3025 0.7971 0.5226
vn 0.2970 -0.9304 -0.2148
vn -0.3282 -0.1201 0.9369
vn 0.5152 0.6128 -0.5992
vn -0.9108 0.1492 -0.3849
vn 0.3563 -0.0696 -0.9318
vn -0.3842 0.9076 0.1692
vn -0.7950 0.0543 -0.6042
vn -0.7557 -0.2989 -0.5827
vn 0.9686 0.2485 -0.0036
vn 0.7513 0.6557 0.0746
vn -0.1478 -0.5728 0.8063
vn -0.8064 -0.5638 -0.1783
vn 0.8307 0.0533 0.5541
vn 0.3849 0.1492 -0.9108
vn -0.5226 0.7971 0.3026
vn -0.9369 -0.1202 -0.3282
vn 0.5992 0.6128 0.5152
vn 0.2148 -0.9304 0.2970
vn -0.3842 0.9076 -0.1692
vn 0.3563 -0.0696 0.9318
vn -0.7557 -0.2989 0.5828
vn -0.7950 0.0543 0.6042
vn 0.7513 0.6557 -0.0746
vn 0.9686 0.2485 0.0036
vn -0.1478 -0.5728 -0.8063
vn -0.8064 -0.5638 0.1783
vn 0.8307 0.0533 -0.5541
vn -0.5226 0.7971 -0.3026
vn 0.3849 0.1492 0.9108
vn -0.9369 -0.1202 0.3282
vn 0.5992 0.6128 -0.5152
vn 0.2148 -0.9304 -0.2970
vn -0.3563 -0.0696 -0.9318
vn 0.1478 -0.5728 0.8063
vn 0.8064 -0.5638 -0.1783
vn 0.7557 -0.2989 -0.5828
vn -0.9686 0.2485 -0.0036
vn -0.8308 0.0533 0.5541
vn 0.3842 0.9076 0.1692
vn 0.7950 0.0543 -0.6042
vn -0.7513 0.6557 0.0746
vn -0.3849 0.1492 -0.9108
vn -0.2148 -0.9304 0.2970
vn 0.5226 0.7971 0.3026
vn 0.9369 -0.1201 -0.3282
vn -0.5992 0.6128 0.5152
vn 0.3842 0.9076 -0.1692
vn 0.1478 -0.5728 -0.8063
vn 0.8064 -0.5638 0.1783
vn 0.7950 0.0543 0.6042
vn -0.7513 0.6557 -0.0746
vn -0.8308 0.0533 -0.5541
vn -0.3563 -0.0696 0.9318
vn 0.7557 -0.2989 0.5828
vn -0.9686 0.2485 0.0036
vn 0.5226 0.7971 -0.3026
vn -0.2148 -0.9304 -0.2970
vn 0.9369 -0.1201 0.3282
vn -0.5992 0.6128 -0.5152
vn -0.3849 0.1492 0.9108
vt 0.000000 0.000000
s 1
f 257/1/1 258/1/2 3/1/3 1/1/4
f 258/1/2 257/1/1 2/1/5 4/1/6
f 258/1/2 259/1/7 5/1/8 3/1/3
f 259/1/7 258/1/2 4/1/6 6/1/9
f 259/1/7 257/1/1 1/1/4 5/1/8
f 257/1/1 259/1/7 6/1/9 2/1/5
f 260/1/10 261/1/11 1/1/4 7/1/12
f 261/1/11 260/1/10 8/1/13 2/1/5
f 261/1/11 262/1/14 5/1/8 1/1/4
f 262/1/14 261/1/11 2/1/5 6/1/9
f 262/1/14 260/1/10 7/1/12 5/1/8
f 260/1/10 262/1/14 6/1/9 8/1/13
f 263/1/15 264/1/16 11/1/17 9/1/18
f 264/1/16 263/1/15 10/1/19 12/1/20
f 264/1/16 265/1/21 13/1/22 11/1/17
f 265/1/21 264/1/16 12/1/20 14/1/23
f 265/1/21 263/1/15 9/1/18 13/1/22
f 263/1/15 265/1/21 14/1/23 10/1/19
f 266/1/24 267/1/25 15/1/26 11/1/17
f 267/1/25 266/1/24 12/1/20 16/1/27
f 267/1/25 268/1/28 13/1/22 15/1/26
f 268/1/28 267/1/25 16/1/27 14/1/23
f 268/1/28 266/1/24 11/1/17 13/1/22
f 266/1/24 268/1/28 14/1/23 12/1/20
f 269/1/29 270/1/30 19/1/31 17/1/32
f 270/1/30 269/1/29 18/1/33 20/1/34
f 270/1/30 271/1/35 21/1/36 19/1/31
f 271/1/35 270/1/30 20/1/34 22/1/37
f 271/1/35 269/1/29 17/1/32 21/1/36
f 269/1/29 271/1/35 22/1/37 18/1/33
f 272/1/38 273/1/39 19/1/31 23/1/40
f 273/1/39 272/1/38 24/1/41 20/1/34
f 273/1/39 274/1/42 17/1/32 19/1/31
f 274/1/42 273/1/39 20/1/34 18/1/33
f 274/1/42 272/1/38 23/1/40 17/1/32
f 272/1/38 274/1/42 18/1/33 24/1/41
f 275/1/43 276/1/44 27/1/45 25/1/46
f 276/1/44 275/1/43 26/1/47 28/1/48
f 276/1/44 277/1/49 29/1/50 27/1/45
f 277/1/49 276/1/44 28/1/48 30/1/51
f 277/1/49 275/1/43 25/1/46 29/1/50
f 275/1/43 277/1/49 30/1/51 26/1/47
f 278/1/52 279/1/53 27/1/45 29/1/50
f 279/1/53 278/1/52 30/1/51 28/1/48
f 279/1/53 280/1/54 31/1/55 27/1/45
f 280/1/54 279/1/53 28/1/48 32/1/56
f 280/1/54 278/1/52 29/1/50 31/1/55
f 278/1/52 280/1/54 32/1/56 30/1/51
f 281/1/57 282/1/58 35/1/59 33/1/60
f 282/1/58 281/1/57 34/1/61 36/1/62
f 282/1/58 283/1/63 37/1/64 35/1/59
f 283/1/63 282/1/58 36/1/62 38/1/65
f 283/1/63 281/1/57 33/1/60 37/1/64
f 281/1/57 283/1/63 38/1/65 34/1/61
f 284/1/66 285/1/67 33/1/60 39/1/68
f 285/1/67 284/1/66 40/1/69 34/1/61
f 285/1/67 286/1/70 37/1/64 33/1/60
f 286/1/70 285/1/67 34/1/61 38/1/65
f 286/1/70 284/1/66 39/1/68 37/1/64
f 284/1/66 286/1/70 38/1/65 40/1/69
f 287/1/71 288/1/72 43/1/73 41/1/74
f 288/1/72 287/1/71 42/1/75 44/1/76
f 288/1/72 289/1/77 45/1/78 43/1/73
f 289/1/77 288/1/72 44/1/76 46/1/79
f 289/1/77 287/1/71 41/1/74 45/1/78
f 287/1/71 289/1/77 46/1/79 42/1/75
f 290/1/80 291/1/81 47/1/82 43/1/73
f 291/1/81 290/1/80 44/1/76 48/1/83
f 291/1/81 292/1/84 45/1/78 47/1/82
f 292/1/84 291/1/81 48/1/83 46/1/79
f 292/1/84 290/1/80 43/1/73 45/1/78
f 290/1/80 292/1/84 46/1/79 44/1/76
f 293/1/85 294/1/86 51/1/87 49/1/88
f 294/1/86 293/1/85 50/1/89 52/1/90
f 294/1/86 295/1/91 53/1/92 51/1/87
f 295/1/91 294/1/86 52/1/90 54/1/93
f 295/1/91 293/1/85 49/1/88 53/1/92
f 293/1/85 295/1/91 54/1/93 50/1/89
f 296/1/94 297/1/95 51/1/87 55/1/96
f 297/1/95 296/1/94 56/1/97 52/1/90
f 297/1/95 298/1/98 49/1/88 51/1/87
f 298/1/98 297/1/95 52/1/90 50/1/89
f 298/1/98 296/1/94 55/1/96 49/1/88
f 296/1/94 298/1/98 50/1/89 56/1/97
f 299/1/99 300/1/100 59/1/101 57/1/102
f 300/1/100 299/1/99 58/1/103 60/1/104
f 300/1/100 301/1/105 61/1/106 59/1/101
f 301/1/105 300/1/100 60/1/104 62/1/107
f 301/1/105 299/1/99 57/1/102 61/1/106
f 299/1/99 301/1/105 62/1/107 58/1/103
f 302/1/108 303/1/109 59/1/101 61/1/106
f 303/1/109 302/1/108 62/1/107 60/1/104
f 303/1/109 304/1/110 63/1/111 59/1/101
f 304/1/110 303/1/109 60/1/104 64/1/112
f 304/1/110 302/1/108 61/1/106 63/1/111
f 302/1/108 304/1/110 64/1/112 62/1/107
f 305/1/113 306/1/114 67/1/115 65/1/116
f 306/1/114 305/1/113 66/1/117 68/1/118
f 306/1/114 307/1/119 69/1/120 67/1/115
f 307/1/119 306/1/114 68/1/118 70/1/121
f 307/1/119 305/1/113 65/1/116 69/1/120
f 305/1/113 307/1/119 70/1/121 66/1/117
f 308/1/122 309/1/123 65/1/116 71/1/124
f 309/1/123 308/1/122 72/1/125 66/1/117
f 309/1/123 310/1/126 69/1/120 65/1/116
f 310/1/126 309/1/123 66/1/117 70/1/121
f 310/1/126 308/1/122 71/1/124 69/1/120
f 308/1/122 310/1/126 70/1/121 72/1/125
f 311/1/127 312/1/128 75/1/129 73/1/130
f 312/1/128 311/1/127 74/1/131 76/1/132
f 312/1/128 313/1/133 77/1/134 75/1/129
f 313/1/133 312/1/128 76/1/132 78/1/135
f 313/1/133 311/1/127 73/1/130 77/1/134
f 311/1/127 313/1/133 78/1/135 74/1/131
f 314/1/136 315/1/137 73/1/130 79/1/138
f 315/1/137 314/1/136 80/1/139 74/1/131
f 315/1/137 316/1/140 77/1/134 73/1/130
f 316/1/140 315/1/137 74/1/131 78/1/135
f 316/1/140 314/1/136 79/1/138 77/1/134
f 314/1/136 316/1/140 78/1/135 80/1/139
f 317/1/141 318/1/142 83/1/143 81/1/144
f 318/1/142 317/1/141 82/1/145 84/1/146
f 318/1/142 319/1/147 85/1/148 83/1/143
f 319/1/147 318/1/142 84/1/146 86/1/149
f 319/1/147 317/1/141 81/1/144 85/1/148
f 317/1/141 319/1/147 86/1/149 82/1/145
f 320/1/150 321/1/151 83/1/143 87/1/152
f 321/1/151 320/1/150 88/1/153 84/1/146
f 321/1/151 322/1/154 81/1/144 83/1/143
f 322/1/154 321/1/151 84/1/146 82/1/145
f 322/1/154 320/1/150 87/1/152 81/1/144
f 320/1/150 322/1/154 82/1/145 88/1/153
f 323/1/155 324/1/156 91/1/157 89/1/158
f 324/1/156 323/1/155 90/1/159 92/1/160
f 324/1/156 325/1/161 93/1/162 91/1/157
f 325/1/161 324/1/156 92/1/160 94/1/163
f 325/1/161 323/1/155 89/1/158 93/1/162
f 323/1/155 325/1/161 94/1/163 90/1/159
f 326/1/164 327/1/165 91/1/157 95/1/166
f 327/1/165 326/1/164 96/1/167 92/1/160
f 327/1/165 328/1/168 89/1/158 91/1/157
f 328/1/168 327/1/165 92/1/160 90/1/159
f 328/1/168 326/1/164 95/1/166 89/1/158
f 326/1/164 328/1/168 90/1/159 96/1/167
f 329/1/169 330/1/170 99/1/171 97/1/172
f 330/1/170 329/1/169 98/1/173 100/1/174
f 330/1/170 331/1/175 101/1/176 99/1/171
f 331/1/175 330/1/170 100/1/174 102/1/177
f 331/1/175 329/1/169 97/1/172 101/1/176
f 329/1/169 331/1/175 102/1/177 98/1/173
f 332/1/178 333/1/179 97/1/172 103/1/180
f 333/1/179 332/1/178 104/1/181 98/1/173
f 333/1/179 334/1/182 101/1/176 97/1/172
f 334/1/182 333/1/179 98/1/173 102/1/177
f 334/1/182 332/1/178 103/1/180 101/1/176
f 332/1/178 334/1/182 102/1/177 104/1/181
f 335/1/183 336/1/184 107/1/185 105/1/186
f 336/1/184 335/1/183 106/1/187 108/1/188
f 336/1/184 337/1/189 109/1/190 107/1/185
f 337/1/189 336/1/184 108/1/188 110/1/191
f 337/1/189 335/1/183 105/1/186 109/1/190
f 335/1/183 337/1/189 110/1/191 106/1/187
f 338/1/192 339/1/193 105/1/186 111/1/194
f 339/1/193 338/1/192 112/1/195 106/1/187
f 339/1/193 340/1/196 109/1/190 105/1/186
f 340/1/196 339/1/193 106/1/187 110/1/191
f 340/1/196 338/1/192 111/1/194 109/1/190
f 338/1/192 340/1/196 110/1/191 112/1/195
f 341/1/197 342/1/198 115/1/199 113/1/200
f 342/1/198 341/1/197 114/1/201 116/1/202
f 342/1/198 343/1/203 117/1/204 115/1/199
f 343/1/203 342/1/198 116/1/202 118/1/205
f 343/1/203 341/1/197 113/1/200 117/1/204
f 341/1/197 343/1/203 118/1/205 114/1/201
f 344/1/206 345/1/207 115/1/199 119/1/208
f 345/1/207 344/1/206 120/1/209 116/1/202
f 345/1/207 346/1/210 113/1/200 115/1/199
f 346/1/210 345/1/207 116/1/202 114/1/201
f 346/1/210 344/1/206 119/1/208 113/1/200
f 344/1/206 346/1/210 114/1/201 120/1/209
f 347/1/211 348/1/212 123/1/213 121/1/214
f 348/1/212 347/1/211 122/1/215 124/1/216
f 348/1/212 349/1/217 125/1/218 123/1/213
f 349/1/217 348/1/212 124/1/216 126/1/219
f 349/1/217 347/1/211 121/1/214 125/1/218
f 347/1/211 349/1/217 126/1/219 122/1/215
f 350/1/220 351/1/221 123/1/213 127/1/222
f 351/1/221 350/1/220 128/1/223 124/1/216
f 351/1/221 352/1/224 121/1/214 123/1/213
f 352/1/224 351/1/221 124/1/216 122/1/215
f 352/1/224 350/1/220 127/1/222 121/1/214
f 350/1/220 352/1/224 122/1/215 128/1/223
f 353/1/225 354/1/226 131/1/227 129/1/228
f 354/1/226 353/1/225 130/1/229 132/1/230
f 354/1/226 355/1/231 133/1/232 131/1/227
f 355/1/231 354/1/226 132/1/230 134/1/233
f 355/1/231 353/1/225 129/1/228 133/1/232
f 353/1/225 355/1/231 134/1/233 130/1/229
f 356/1/234 357/1/235 135/1/236 131/1/227
f 357/1/235 356/1/234 132/1/230 136/1/237
f 357/1/235 358/1/238 133/1/232 135/1/236
f 358/1/238 357/1/235 136/1/237 134/1/233
f 358/1/238 356/1/234 131/1/227 133/1/232
f 356/1/234 358/1/238 134/1/233 132/1/230
f 359/1/239 360/1/240 139/1/241 137/1/242
f 360/1/240 359/1/239 138/1/243 140/1/244
f 360/1/240 361/1/245 141/1/246 139/1/241
f 361/1/245 360/1/240 140/1/244 142/1/247
f 361/1/245 359/1/239 137/1/242 141/1/246
f 359/1/239 361/1/245 142/1/247 138/1/243
f 362/1/248 363/1/249 143/1/250 139/1/241
f 363/1/249 362/1/248 140/1/244 144/1/251
f 363/1/249 364/1/252 141/1/246 143/1/250
f 364/1/252 363/1/249 144/1/251 142/1/247
f 364/1/252 362/1/248 139/1/241 141/1/246
f 362/1/248 364/1/252 142/1/247 140/1/244
f 365/1/253 366/1/254 147/1/255 145/1/256
f 366/1/254 365/1/253 146/1/257 148/1/258
f 366/1/254 367/1/259 149/1/260 147/1/255
f 367/1/259 366/1/254 148/1/258 150/1/261
f 367/1/259 365/1/253 145/1/256 149/1/260
f 365/1/253 367/1/259 150/1/261 146/1/257
f 368/1/262 369/1/263 147/1/255 149/1/260
f 369/1/263 368/1/262 150/1/261 148/1/258
f 369/1/263 370/1/264 151/1/265 147/1/255
f 370/1/264 369/1/263 148/1/258 152/1/266
f 370/1/264 368/1/262 149/1/260 151/1/265
f 368/1/262 370/1/264 152/1/266 150/1/261
f 371/1/267 372/1/268 155/1/269 153/1/270
f 372/1/268 371/1/267 154/1/271 156/1/272
f 372/1/268 373/1/273 157/1/274 155/1/269
f 373/1/273 372/1/268 156/1/272 158/1/275
f 373/1/273 371/1/267 153/1/270 157/1/274
f 371/1/267 373/1/273 158/1/275 154/1/271
f 374/1/276 375/1/277 155/1/269 157/1/274
f 375/1/277 374/1/276 158/1/275 156/1/272
f 375/1/277 376/1/278 159/1/279 155/1/269
f 376/1/278 375/1/277 156/1/272 160/1/280
f 376/1/278 374/1/276 157/1/274 159/1/279
f 374/1/276 376/1/278 160/1/280 158/1/275
f 377/1/281 378/1/282 163/1/283 161/1/284
f 378/1/282 377/1/281 162/1/285 164/1/286
f 378/1/282 379/1/287 165/1/288 163/1/283
f 379/1/287 378/1/282 164/1/286 166/1/289
f 379/1/287 377/1/281 161/1/284 165/1/288
f 377/1/281 379/1/287 166/1/289 162/1/285
f 380/1/290 381/1/291 167/1/292 163/1/283
f 381/1/291 380/1/290 164/1/286 168/1/293
f 381/1/291 382/1/294 165/1/288 167/1/292
f 382/1/294 381/1/291 168/1/293 166/1/289
f 382/1/294 380/1/290 163/1/283 165/1/288
f 380/1/290 382/1/294 166/1/289 164/1/286
f 383/1/295 384/1/296 171/1/297 169/1/298
f 384/1/296 383/1/295 170/1/299 172/1/300
f 384/1/296 385/1/301 173/1/302 171/1/297
f 385/1/301 384/1/296 172/1/300 174/1/303
f 385/1/301 383/1/295 169/1/298 173/1/302
f 383/1/295 385/1/301 174/1/303 170/1/299
f 386/1/304 387/1/305 175/1/306 171/1/297
f 387/1/305 386/1/304 172/1/300 176/1/307
f 387/1/305 388/1/308 173/1/302 175/1/306
f 388/1/308 387/1/305 176/1/307 174/1/303
f 388/1/308 386/1/304 171/1/297 173/1/302
f 386/1/304 388/1/308 174/1/303 172/1/300
f 389/1/309 390/1/310 179/1/311 177/1/312
f 390/1/310 389/1/309 178/1/313 180/1/314
f 390/1/310 391/1/315 181/1/316 179/1/311
f 391/1/315 390/1/310 180/1/314 182/1/317
f 391/1/315 389/1/309 177/1/312 181/1/316
f 389/1/309 391/1/315 182/1/317 178/1/313
f 392/1/318 393/1/319 179/1/311 181/1/316
f 393/1/319 392/1/318 182/1/317 180/1/314
f 393/1/319 394/1/320 183/1/321 179/1/311
f 394/1/320 393/1/319 180/1/314 184/1/322
f 394/1/320 392/1/318 181/1/316 183/1/321
f 392/1/318 394/1/320 184/1/322 182/1/317
f 395/1/323 396/1/324 187/1/325 185/1/326
f 396/1/324 395/1/323 186/1/327 188/1/328
f 396/1/324 397/1/329 189/1/330 187/1/325
f 397/1/329 396/1/324 188/1/328 190/1/331
f 397/1/329 395/1/323 185/1/326 189/1/330
f 395/1/323 397/1/329 190/1/331 186/1/327
f 398/1/332 399/1/333 187/1/325 189/1/330
f 399/1/333 398/1/332 190/1/331 188/1/328
f 399/1/333 400/1/334 191/1/335 187/1/325
f 400/1/334 399/1/333 188/1/328 192/1/336
f 400/1/334 398/1/332 189/1/330 191/1/335
f 398/1/332 400/1/334 192/1/336 190/1/331
f 401/1/337 402/1/338 195/1/339 193/1/340
f 402/1/338 401/1/337 194/1/341 196/1/342
f 402/1/338 403/1/343 197/1/344 195/1/339
f 403/1/343 402/1/338 196/1/342 198/1/345
f 403/1/343 401/1/337 193/1/340 197/1/344
f 401/1/337 403/1/343 198/1/345 194/1/341
f 404/1/346 405/1/347 199/1/348 195/1/339
f 405/1/347 404/1/346 196/1/342 200/1/349
f 405/1/347 406/1/350 197/1/344 199/1/348
f 406/1/350 405/1/347 200/1/349 198/1/345
f 406/1/350 404/1/346 195/1/339 197/1/344
f 404/1/346 406/1/350 198/1/345 196/1/342
f 407/1/351 408/1/352 203/1/353 201/1/354
f 408/1/352 407/1/351 202/1/355 204/1/356
f 408/1/352 409/1/357 205/1/358 203/1/353
f 409/1/357 408/1/352 204/1/356 206/1/359
f 409/1/357 407/1/351 201/1/354 205/1/358
f 407/1/351 409/1/357 206/1/359 202/1/355
f 410/1/360 411/1/361 201/1/354 207/1/362
f 411/1/361 410/1/360 208/1/363 202/1/355
f 411/1/361 412/1/364 205/1/358 201/1/354
f 412/1/364 411/1/361 202/1/355 206/1/359
f 412/1/364 410/1/360 207/1/362 205/1/358
f 410/1/360 412/1/364 206/1/359 208/1/363
f 413/1/365 414/1/366 211/1/367 209/1/368
f 414/1/366 413/1/365 210/1/369 212/1/370
f 414/1/366 415/1/371 213/1/372 211/1/367
f 415/1/371 414/1/366 212/1/370 214/1/373
f 415/1/371 413/1/365 209/1/368 213/1/372
f 413/1/365 415/1/371 214/1/373 210/1/369
f 416/1/374 417/1/375 211/1/367 213/1/372
f 417/1/375 416/1/374 214/1/373 212/1/370
f 417/1/375 418/1/376 215/1/377 211/1/367
f 418/1/376 417/1/375 212/1/370 216/1/378
f 418/1/376 416/1/374 213/1/372 215/1/377
f 416/1/374 418/1/376 216/1/378 214/1/373
f 419/1/379 420/1/380 219/1/381 217/1/382
f 420/1/380 419/1/379 218/1/383 220/1/384
f 420/1/380 421/1/385 221/1/386 219/1/381
f 421/1/385 420/1/380 220/1/384 222/1/387
f 421/1/385 419/1/379 217/1/382 221/1/386
f 419/1/379 421/1/385 222/1/387 218/1/383
f 422/1/388 423/1/389 219/1/381 223/1/390
f 423/1/389 422/1/388 224/1/391 220/1/384
f 423/1/389 424/1/392 217/1/382 219/1/381
f 424/1/392 423/1/389 220/1/384 218/1/383
f 424/1/392 422/1/388 223/1/390 217/1/382
f 422/1/388 424/1/392 218/1/383 224/1/391
f 425/1/393 426/1/394 227/1/395 225/1/396
f 426/1/394 425/1/393 226/1/397 228/1/398
f 426/1/394 427/1/399 229/1/400 227/1/395
f 427/1/399 426/1/394 228/1/398 230/1/401
f 427/1/399 425/1/393 225/1/396 229/1/400
f 425/1/393 427/1/399 230/1/401 226/1/397
f 428/1/402 429/1/403 231/1/404 227/1/395
f 429/1/403 428/1/402 228/1/398 232/1/405
f 429/1/403 430/1/406 229/1/400 231/1/404
f 430/1/406 429/1/403 232/1/405 230/1/401
f 430/1/406 428/1/402 227/1/395 229/1/400
f 428/1/402 430/1/406 230/1/401 228/1/398
f 431/1/407 432/1/408 235/1/409 233/1/410
f 432/1/408 431/1/407 234/1/411 236/1/412
f 432/1/408 433/1/413 237/1/414 235/1/409
f 433/1/413 432/1/408 236/1/412 238/1/415
f 433/1/413 431/1/407 233/1/410 237/1/414
f 431/1/407 433/1/413 238/1/415 234/1/411
f 434/1/416 435/1/417 233/1/410 239/1/418
f 435/1/417 434/1/416 240/1/419 234/1/411
f 435/1/417 436/1/420 237/1/414 233/1/410
f 436/1/420 435/1/417 234/1/411 238/1/415
f 436/1/420 434/1/416 239/1/418 237/1/414
f 434/1/416 436/1/420 238/1/415 240/1/419
f 437/1/421 438/1/422 243/1/423 241/1/424
f 438/1/422 437/1/421 242/1/425 244/1/426
f 438/1/422 439/1/427 245/1/428 243/1/423
f 439/1/427 438/1/422 244/1/426 246/1/429
f 439/1/427 437/1/421 241/1/424 245/1/428
f 437/1/421 439/1/427 246/1/429 242/1/425
f 440/1/430 441/1/431 243/1/423 245/1/428
f 441/1/431 440/1/430 246/1/429 244/1/426
f 441/1/431 442/1/432 247/1/433 243/1/423
f 442/1/432 441/1/431 244/1/426 248/1/434
f 442/1/432 440/1/430 245/1/428 247/1/433
f 440/1/430 442/1/432 248/1/434 246/1/429
f 443/1/435 444/1/436 251/1/437 249/1/438
f 444/1/436 443/1/435 250/1/439 252/1/440
f 444/1/436 445/1/441 253/1/442 251/1/437
f 445/1/441 444/1/436 252/1/440 254/1/443
f 445/1/441 443/1/435 249/1/438 253/1/442
f 443/1/435 445/1/441 254/1/443 250/1/439
f 446/1/444 447/1/445 251/1/437 255/1/446
f 447/1/445 446/1/444 256/1/447 252/1/440
f 447/1/445 448/1/448 249/1/438 251/1/437
f 448/1/448 447/1/445 252/1/440 250/1/439
f 448/1/448 446/1/444 255/1/446 249/1/438
f 446/1/444 448/1/448 250/1/439 256/1/447
