# Blender 4.5.3 LTS
# www.blender.org
mtllib Glass-ping.mtl
o Cube_Cube_014_101789865262582
v -0.228152 -0.333448 -0.021088
v -0.228151 -0.335448 -0.021087
v -0.228152 -0.333448 0.021149
v -0.228151 -0.335448 0.021150
v -0.248613 -0.333448 -0.021088
v -0.248612 -0.335448 -0.021087
v -0.248613 -0.333448 0.021149
v -0.248612 -0.335448 0.021150
v 0.193485 0.304490 -0.045777
v 0.193423 0.306489 -0.045776
v -0.021400 0.297775 -0.045777
v -0.021461 0.299774 -0.045776
v -0.021400 0.297775 0.045844
v -0.021462 0.299774 0.045845
v 0.193485 0.304490 0.045844
v 0.193424 0.306489 0.045845
v 0.200200 0.123599 -0.045777
v 0.202199 0.123672 -0.045776
v 0.193485 0.304490 -0.045777
v 0.195484 0.304563 -0.045776
v 0.193485 0.304490 0.045844
v 0.195484 0.304563 0.045845
v 0.200200 0.123599 0.045844
v 0.202199 0.123672 0.045845
v 0.195583 0.333448 0.055478
v 0.197583 0.333449 0.055479
v 0.195583 0.288960 -0.055418
v 0.197583 0.288961 -0.055417
v 0.195583 0.333448 -0.055418
v 0.197583 0.333449 -0.055417
v 0.195583 0.288960 0.055478
v 0.197583 0.288961 0.055479
v 0.195583 0.333448 -0.055418
v 0.195584 0.335448 -0.055417
v -0.057074 0.333448 -0.055418
v -0.057960 0.335241 -0.055417
v -0.057074 0.333448 0.055478
v -0.057960 0.335241 0.055479
v 0.195583 0.333448 0.055478
v 0.195584 0.335448 0.055479
v -0.251813 0.078274 -0.055418
v -0.253704 0.078924 -0.055417
v -0.251813 0.078274 0.055478
v -0.253704 0.078924 0.055479
v -0.248613 -0.333448 -0.021088
v -0.250613 -0.333463 -0.021087
v -0.251813 0.078274 -0.055418
v -0.253704 0.078924 -0.055417
v -0.248613 -0.333448 0.021149
v -0.250613 -0.333463 0.021150
v -0.021400 0.297775 -0.045777
v -0.023400 0.297776 -0.045776
v -0.021400 0.197048 -0.045777
v -0.023400 0.197049 -0.045776
v -0.021400 0.297775 0.045844
v -0.023400 0.297776 0.045845
v -0.021400 0.197048 0.045844
v -0.023400 0.197049 0.045845
v 0.195583 0.333448 -0.055418
v 0.195584 0.333449 -0.057418
v 0.057649 0.262099 -0.055418
v 0.057650 0.262100 -0.057418
v -0.057074 0.333448 -0.055418
v -0.057073 0.333449 -0.057418
v 0.195583 0.288960 -0.055418
v 0.195584 0.288961 -0.057418
v -0.003353 0.188234 -0.055418
v -0.003352 0.188235 -0.057418
v -0.251813 0.078274 -0.055418
v -0.251853 0.078222 -0.057417
v -0.198092 0.020355 -0.055418
v -0.198171 0.020252 -0.057414
v -0.248613 -0.333448 -0.021088
v -0.248749 -0.333621 -0.023076
v -0.228152 -0.333448 -0.021088
v -0.228288 -0.333621 -0.023076
v 0.195583 0.333448 0.055478
v 0.195584 0.333449 0.057478
v 0.057649 0.262099 0.055478
v 0.057650 0.262100 0.057478
v 0.195583 0.288960 0.055478
v 0.195584 0.288961 0.057478
v -0.057074 0.333448 0.055478
v -0.057073 0.333449 0.057478
v -0.003353 0.188234 0.055478
v -0.003352 0.188235 0.057478
v -0.251813 0.078274 0.055478
v -0.251853 0.078222 0.057477
v -0.198092 0.020355 0.055478
v -0.198171 0.020252 0.057474
v -0.248613 -0.333448 0.021149
v -0.248749 -0.333621 0.023137
v -0.228152 -0.333448 0.021149
v -0.228288 -0.333621 0.023137
v 0.193485 0.304490 -0.045777
v 0.193486 0.304491 -0.047777
v -0.021400 0.197048 -0.045777
v -0.021399 0.197049 -0.047777
v -0.021400 0.297775 -0.045777
v -0.021399 0.297776 -0.047777
v 0.065897 0.123599 -0.045777
v 0.065898 0.123600 -0.047777
v 0.200200 0.123599 -0.045777
v 0.200201 0.123600 -0.047777
v -0.021400 0.197048 0.045844
v -0.021399 0.197049 0.047844
v 0.193485 0.304490 0.045844
v 0.193486 0.304491 0.047844
v -0.021400 0.297775 0.045844
v -0.021399 0.297776 0.047844
v 0.065897 0.123599 0.045844
v 0.065898 0.123600 0.047844
v 0.200200 0.123599 0.045844
v 0.200201 0.123600 0.047844
v 0.065897 0.123599 -0.045777
v 0.065898 0.121599 -0.045776
v 0.200200 0.123599 -0.045777
v 0.200201 0.121599 -0.045776
v 0.200200 0.123599 0.045844
v 0.200201 0.121599 0.045845
v 0.065897 0.123599 0.045844
v 0.065898 0.121599 0.045845
v 0.085075 0.125704 -0.054694
v 0.085076 0.127704 -0.054693
v 0.194463 0.125704 -0.054694
v 0.194464 0.127704 -0.054693
v 0.139769 0.125704 -0.077349
v 0.139770 0.127704 -0.077348
v 0.085075 0.125704 0.054694
v 0.085076 0.127704 0.054695
v 0.062420 0.125704 -0.000000
v 0.062421 0.127704 0.000001
v 0.194463 0.125704 0.054694
v 0.194464 0.127704 0.054695
v 0.139769 0.125704 0.077349
v 0.139770 0.127704 0.077350
v 0.217118 0.125704 -0.000000
v 0.217119 0.127704 0.000001
v -0.021400 0.197048 -0.045777
v -0.022687 0.195517 -0.045776
v 0.065897 0.123599 -0.045777
v 0.064610 0.122068 -0.045777
v 0.065897 0.123599 0.045844
v 0.064610 0.122068 0.045845
v -0.021400 0.197048 0.045844
v -0.022687 0.195517 0.045844
v 0.085075 0.125704 -0.054694
v 0.083799 0.126567 -0.055970
v 0.027725 0.053145 -0.000000
v 0.025921 0.054008 -0.000000
v 0.062420 0.125704 -0.000000
v 0.060616 0.126567 0.000001
v 0.085075 0.125704 0.054694
v 0.083799 0.126567 0.055970
v 0.060542 0.053145 -0.079227
v 0.059266 0.054008 -0.080503
v 0.060542 0.053145 0.079227
v 0.059266 0.054008 0.080503
v 0.139769 0.053145 -0.112044
v 0.139769 0.054008 -0.113848
v 0.139769 0.053145 0.112044
v 0.139769 0.054008 0.113848
v 0.139769 0.125704 -0.077349
v 0.139769 0.126567 -0.079153
v 0.139769 0.125704 0.077349
v 0.139769 0.126567 0.079153
v 0.194463 0.125704 -0.054694
v 0.195739 0.126567 -0.055970
v 0.194463 0.125704 0.054694
v 0.195739 0.126567 0.055970
v 0.218996 0.053145 -0.079227
v 0.220272 0.054008 -0.080503
v 0.251813 0.053145 -0.000000
v 0.253617 0.054008 0.000001
v 0.217118 0.125704 -0.000000
v 0.218922 0.126567 0.000001
v 0.218996 0.053145 0.079227
v 0.220272 0.054008 0.080503
v 0.251813 0.053145 -0.000000
v 0.253617 0.054008 0.000001
v 0.217118 0.125704 -0.000000
v 0.218922 0.126567 0.000001
v -0.003353 0.188234 -0.055418
v -0.001924 0.186835 -0.055417
v 0.057649 0.262099 -0.055418
v 0.058672 0.260380 -0.055417
v 0.057649 0.262099 0.055478
v 0.058672 0.260380 0.055479
v 0.195583 0.288960 0.055478
v 0.195965 0.286997 0.055478
v 0.195583 0.288960 -0.055418
v 0.195965 0.286997 -0.055418
v -0.003353 0.188234 0.055478
v -0.001924 0.186835 0.055479
v -0.198092 0.020355 0.055478
v -0.196323 0.019422 0.055479
v -0.198092 0.020355 -0.055418
v -0.196323 0.019422 -0.055418
v -0.228152 -0.333448 -0.021088
v -0.226159 -0.333617 -0.021088
v -0.228152 -0.333448 0.021149
v -0.226159 -0.333617 0.021150
v -0.198092 0.020355 -0.055418
v -0.196323 0.019422 -0.055417
v -0.227071 -0.332536 -0.020180
v -0.197292 0.018892 -0.054316
v -0.197292 0.018892 0.054377
v -0.227071 -0.332536 0.020241
v 0.199200 0.122599 0.044844
v 0.066897 0.122599 0.044844
v 0.066897 0.122599 -0.044777
v 0.199201 0.122599 -0.044776
v -0.229152 -0.334448 0.020150
v -0.247613 -0.334448 0.020150
v -0.247613 -0.334448 -0.020088
v -0.229151 -0.334448 -0.020087
v 0.194521 0.303527 0.044844
v 0.201162 0.124635 0.044844
v 0.201162 0.124635 -0.044777
v 0.194521 0.303527 -0.044777
v -0.252152 0.079394 -0.054418
v -0.252152 0.079394 0.054478
v -0.058124 0.333549 0.054478
v -0.058124 0.333549 -0.054418
v -0.056517 0.334344 0.054478
v 0.194583 0.334448 0.054478
v 0.194583 0.334448 -0.054418
v -0.056517 0.334344 -0.054418
v -0.056579 0.332448 -0.056418
v 0.194583 0.332448 -0.056418
v 0.194583 0.289785 -0.056418
v 0.057107 0.263013 -0.056418
v -0.004070 0.188937 -0.056418
v -0.198054 0.021691 -0.056416
v -0.250527 0.078311 -0.056417
v 0.138832 0.054491 0.112121
v 0.138832 0.125221 0.078301
v 0.085065 0.125221 0.056029
v 0.061150 0.054491 0.079944
v -0.199185 0.019980 -0.056293
v -0.247788 -0.320231 -0.023281
v -0.250817 0.075694 -0.056295
v -0.247529 -0.332539 -0.022178
v -0.202093 -0.014515 -0.053037
v -0.229139 -0.332539 -0.022178
v -0.250527 0.078311 0.056477
v -0.198054 0.021691 0.056476
v -0.004070 0.188937 0.056478
v 0.057107 0.263013 0.056478
v 0.194583 0.289785 0.056478
v 0.194583 0.332448 0.056478
v -0.056579 0.332448 0.056478
v -0.022400 0.198048 -0.044777
v -0.022400 0.198048 0.044844
v -0.022400 0.296775 0.044844
v -0.022400 0.296775 -0.044777
v -0.247788 -0.320231 0.023342
v -0.199185 0.019980 0.056353
v -0.250817 0.075694 0.056355
v -0.229139 -0.332539 0.022240
v -0.202093 -0.014515 0.053097
v -0.247529 -0.332539 0.022240
v 0.066262 0.124599 -0.046777
v -0.020400 0.197514 -0.046777
v -0.020400 0.296806 -0.046777
v 0.192523 0.303460 -0.046777
v 0.199163 0.124599 -0.046777
v 0.059142 0.261431 -0.054418
v 0.194793 0.287787 -0.054418
v 0.194793 0.287787 0.054478
v 0.059142 0.261431 0.054478
v 0.192523 0.303460 0.046844
v -0.020400 0.296806 0.046844
v -0.020400 0.197514 0.046844
v 0.066262 0.124599 0.046844
v 0.199163 0.124599 0.046844
v 0.196583 0.332448 0.054478
v 0.196583 0.289960 0.054478
v 0.196583 0.289960 -0.054418
v 0.196583 0.332448 -0.054418
v 0.085065 0.125221 -0.056029
v 0.138832 0.125221 -0.078301
v 0.138832 0.054491 -0.112121
v 0.061150 0.054491 -0.079944
v 0.193698 0.126704 -0.053928
v 0.139769 0.126704 -0.076266
v 0.085841 0.126704 -0.053928
v 0.063503 0.126704 0.000000
v 0.085841 0.126704 0.053929
v 0.139769 0.126704 0.076267
v 0.193698 0.126704 0.053929
v 0.216036 0.126704 0.000000
v 0.194473 0.125221 -0.056029
v 0.218388 0.054491 -0.079944
v 0.140706 0.054491 -0.112121
v 0.140706 0.125221 -0.078301
v -0.196450 0.020541 -0.054418
v -0.003396 0.186881 -0.054418
v -0.003396 0.186881 0.054478
v -0.196450 0.020541 0.054478
v 0.057524 0.260469 0.054478
v -0.002002 0.188305 0.054478
v -0.002002 0.188305 -0.054418
v 0.057524 0.260469 -0.054418
v 0.083740 0.125221 -0.054704
v 0.059825 0.054491 -0.078619
v 0.027648 0.054491 -0.000937
v 0.061468 0.125221 -0.000936
v 0.218388 0.054491 0.079944
v 0.194473 0.125221 0.056029
v 0.140706 0.125221 0.078301
v 0.140706 0.054491 0.112121
v -0.249621 -0.332455 -0.020167
v -0.249621 -0.332455 0.020229
v -0.252751 0.077599 0.054392
v -0.252751 0.077599 -0.054331
v -0.020431 0.298806 0.044844
v 0.192455 0.305458 0.044845
v 0.192455 0.305458 -0.044777
v -0.020431 0.298806 -0.044776
v 0.027648 0.054491 0.000937
v 0.059825 0.054491 0.078619
v 0.083740 0.125221 0.054704
v 0.061468 0.125221 0.000937
v 0.195798 0.125221 -0.054704
v 0.218070 0.125221 -0.000936
v 0.251890 0.054491 -0.000936
v 0.219713 0.054491 -0.078619
v 0.251890 0.054491 0.000937
v 0.218070 0.125221 0.000937
v 0.195798 0.125221 0.054704
v 0.219713 0.054491 0.078619
v 0.064488 0.123477 0.044844
v -0.021278 0.195639 0.044844
v -0.021278 0.195639 -0.044777
v 0.064488 0.123477 -0.044777
vn 0.0694 0.7434 0.6652
vn -0.5904 -0.4513 0.6692
vn -0.7578 -0.1766 0.6282
vn -0.7667 0.5061 0.3950
vn 0.8460 0.3674 0.3864
vn 0.5944 -0.7001 0.3958
vn -0.5900 -0.4513 -0.6695
vn -0.7580 -0.1760 -0.6281
vn 0.5950 -0.6999 -0.3951
vn 0.0693 0.7435 -0.6652
vn -0.7667 0.5059 -0.3952
vn 0.8462 0.3674 -0.3860
vn -0.7076 -0.0004 -0.7066
vn 0.7071 0.0007 -0.7071
vn 0.4079 0.8165 -0.4086
vn -0.4081 0.8167 -0.4081
vn -0.4078 -0.8169 -0.4078
vn 0.4086 -0.8165 -0.4079
vn 0.7071 -0.0003 0.7071
vn 0.4084 0.8163 0.4084
vn 0.4087 -0.8160 0.4087
vn -0.7071 0.0008 0.7071
vn -0.4086 0.8165 0.4078
vn -0.4078 -0.8165 0.4086
vn -0.4078 -0.8170 -0.4078
vn 0.0263 -0.7071 -0.7066
vn -0.0265 0.7066 -0.7071
vn -0.8313 0.3775 -0.4081
vn -0.8008 -0.4379 -0.4086
vn 0.8311 -0.3780 -0.4079
vn 0.8013 0.4378 -0.4078
vn -0.0269 0.7066 0.7071
vn -0.8311 0.3780 0.4079
vn 0.8008 0.4379 0.4086
vn 0.0265 -0.7067 0.7070
vn -0.8006 -0.4385 0.4084
vn 0.8306 -0.3781 0.4087
vn 0.2027 0.4121 0.8883
vn 0.6148 0.5083 -0.6031
vn 0.9576 -0.1996 -0.2075
vn 0.9578 -0.1992 0.2073
vn -0.6829 0.6490 0.3352
vn -0.6832 0.6492 -0.3344
vn -0.5886 -0.4417 -0.6771
vn 0.3897 -0.7846 -0.4822
vn -0.3987 0.8037 -0.4418
vn -0.5889 -0.4415 0.6770
vn 0.3895 -0.7845 0.4825
vn -0.3986 0.8033 0.4426
vn 0.7036 0.1977 -0.6825
vn -0.7168 -0.0002 -0.6973
vn -0.4062 -0.8238 -0.3953
vn -0.4064 0.8239 -0.3950
vn -0.7168 -0.0006 0.6973
vn -0.4067 -0.8236 0.3952
vn -0.4064 0.8235 0.3957
vn 0.7031 0.1973 0.6832
vn 0.4441 -0.8960 -0.0002
vn -0.7071 -0.7071 0.0003
vn -0.4081 -0.4081 0.8167
vn 0.2955 -0.5983 0.7448
vn 0.2962 -0.5977 -0.7449
vn -0.4078 -0.4078 -0.8169
vn -0.7717 0.6359 0.0007
vn -0.4718 0.3881 0.7917
vn -0.4711 0.3888 -0.7917
vn -0.5117 0.8592 0.0006
vn -0.3510 0.5889 0.7280
vn -0.3497 0.5898 -0.7279
vn -0.7146 0.6996 -0.0008
vn -0.5054 0.4941 0.7074
vn -0.5030 0.4932 -0.7097
vn 0.0568 0.9983 -0.0119
vn -0.3633 0.1775 0.9146
vn -0.4405 0.1035 -0.8918
vn 0.9987 0.0440 -0.0243
vn 0.5196 -0.0531 0.8528
vn 0.4624 -0.1007 -0.8809
vn -0.6619 0.6306 -0.4052
vn -0.7730 -0.6116 0.1689
vn -0.0000 -0.7988 -0.6016
vn -0.0000 0.0289 -0.9996
vn -0.0000 0.7775 0.6288
vn -0.0000 0.0036 1.0000
vn 0.4271 -0.6116 0.6660
vn 0.4254 -0.7988 -0.4254
vn -0.7071 0.0036 0.7071
vn 0.7546 0.6306 0.1815
vn 0.7068 0.0289 -0.7068
vn -0.4447 0.7775 0.4447
vn -0.9484 -0.3074 0.0770
vn 0.0760 0.9970 0.0116
vn 0.3980 0.3813 0.8344
vn 0.3246 0.2504 -0.9121
vn 0.3634 -0.9315 0.0172
vn 0.7130 0.6955 -0.0890
vn -0.1433 -0.9851 0.0947
vn -0.6441 0.7648 0.0148
vn -0.3896 0.5475 0.7406
vn -0.4552 0.3694 -0.8101
vn 0.9983 0.0541 0.0215
vn 0.0568 0.9983 0.0119
vn -0.3633 0.1775 -0.9146
vn 0.5196 -0.0531 -0.8528
vn 0.4624 -0.1007 0.8809
vn -0.4405 0.1035 0.8918
vn -0.7146 0.6996 0.0008
vn -0.5054 0.4941 -0.7074
vn -0.5030 0.4932 0.7097
vn -0.5117 0.8592 -0.0006
vn -0.3510 0.5889 -0.7280
vn -0.3497 0.5898 0.7279
vn -0.7717 0.6359 -0.0007
vn -0.4718 0.3881 -0.7917
vn -0.4711 0.3888 0.7917
vn -0.7071 -0.7071 -0.0003
vn -0.4081 -0.4081 -0.8167
vn -0.4078 -0.4078 0.8169
vn 0.4434 -0.8963 -0.0006
vn 0.2955 -0.5983 -0.7448
vn 0.2962 -0.5977 0.7449
vn 0.0004 0.7076 0.7066
vn 0.0007 0.7071 -0.7071
vn 0.8165 0.4079 -0.4086
vn 0.8163 0.4084 0.4084
vn -0.8160 0.4087 0.4087
vn -0.8165 0.4086 -0.4079
vn 0.0003 -0.7071 -0.7071
vn 0.8167 -0.4081 -0.4081
vn -0.8169 -0.4078 -0.4078
vn 0.0007 -0.7071 0.7071
vn 0.8165 -0.4086 0.4079
vn -0.8165 -0.4079 0.4086
vn 0.1204 0.9894 0.0818
vn -0.9517 -0.2937 -0.0896
vn 0.3980 0.3813 -0.8344
vn 0.3246 0.2504 0.9121
vn 0.3634 -0.9315 -0.0172
vn -0.6310 0.7709 0.0864
vn -0.1419 -0.9853 -0.0950
vn -0.3896 0.5475 -0.7406
vn -0.4552 0.3694 0.8101
vn 0.7571 0.6529 0.0240
vn 0.3429 0.9394 -0.0003
vn 0.9069 0.4215 -0.0001
vn 0.6092 0.2834 0.7407
vn 0.2345 0.6435 0.7287
vn 0.2350 0.6437 -0.7283
vn 0.6094 0.2839 -0.7403
vn 0.7181 -0.6960 0.0007
vn 0.4185 -0.4063 0.8123
vn 0.4191 -0.4056 -0.8123
vn -0.6825 -0.7309 0.0003
vn -0.3947 -0.4226 0.8159
vn -0.3944 -0.4223 -0.8161
vn -0.7201 0.6939 0.0007
vn -0.4108 0.3952 0.8216
vn -0.4101 0.3959 -0.8216
vn 0.6635 0.2810 0.6934
vn -0.6994 -0.1362 0.7017
vn -0.5565 0.7276 0.4011
vn -0.4588 0.7705 0.4426
vn 0.4508 -0.7572 0.4726
vn -0.2433 -0.8832 0.4010
vn -0.6994 -0.1364 -0.7016
vn -0.5565 0.7276 -0.4012
vn -0.2432 -0.8833 -0.4009
vn 0.6633 0.2810 -0.6936
vn -0.4593 0.7707 -0.4416
vn 0.4511 -0.7576 -0.4717
vn -0.6831 -0.7304 0.0004
vn 0.7181 -0.6960 -0.0007
vn 0.4185 -0.4063 -0.8123
vn -0.3947 -0.4226 -0.8159
vn -0.3944 -0.4223 0.8161
vn 0.4191 -0.4056 0.8123
vn 0.9069 0.4214 0.0001
vn 0.6092 0.2834 -0.7407
vn 0.6094 0.2839 0.7403
vn 0.3421 0.9397 -0.0000
vn 0.2345 0.6435 -0.7287
vn 0.2350 0.6437 0.7283
vn -0.7201 0.6939 -0.0007
vn -0.4108 0.3952 -0.8216
vn -0.4101 0.3959 0.8216
vn 0.0004 -0.7076 -0.7066
vn -0.0007 0.7071 -0.7071
vn -0.8165 0.4079 -0.4086
vn -0.8167 -0.4081 -0.4081
vn 0.8169 -0.4078 -0.4078
vn 0.8165 0.4086 -0.4079
vn 0.0003 0.7071 0.7071
vn -0.8163 0.4084 0.4084
vn 0.8160 0.4087 0.4087
vn -0.0007 -0.7071 0.7071
vn -0.8165 -0.4086 0.4079
vn 0.8165 -0.4079 0.4086
vn 0.4271 -0.6116 -0.6660
vn -0.7730 -0.6116 -0.1689
vn -0.0000 -0.7988 0.6016
vn 0.4254 -0.7988 0.4254
vn -0.7071 0.0037 -0.7071
vn -0.0000 0.0036 -1.0000
vn -0.6619 0.6306 0.4052
vn -0.0000 0.0289 0.9996
vn -0.0000 0.7775 -0.6288
vn 0.7546 0.6306 -0.1815
vn 0.7068 0.0289 0.7068
vn -0.4447 0.7775 -0.4447
vn -0.7076 -0.0000 0.7066
vn -0.0007 -0.0007 1.0000
vn -0.0004 -0.7344 0.6787
vn -0.4802 -0.7345 0.4794
vn -0.4794 0.7345 0.4802
vn 0.0004 0.7341 0.6790
vn 0.7071 0.0004 0.7071
vn 0.4800 -0.7343 0.4800
vn 0.4803 0.7339 0.4803
vn 1.0000 -0.0007 -0.0007
vn 0.6787 -0.7344 -0.0004
vn 0.6790 0.7341 0.0004
vn 0.7071 -0.0008 -0.7071
vn 0.4794 -0.7345 -0.4802
vn 0.4802 0.7345 -0.4794
vn -0.0000 -0.0005 -1.0000
vn -0.0004 -0.7347 -0.6784
vn 0.0004 0.7350 -0.6781
vn -0.7071 -0.0004 -0.7071
vn -0.4797 -0.7347 -0.4797
vn -0.4794 0.7351 -0.4794
vn -1.0000 -0.0005 -0.0000
vn -0.6784 -0.7347 -0.0004
vn -0.6781 0.7349 0.0004
vn -0.4271 -0.6116 -0.6660
vn -0.7546 0.6306 -0.1815
vn -0.7068 0.0289 0.7068
vn -0.4254 -0.7988 0.4254
vn 0.7071 0.0037 -0.7071
vn 0.4447 0.7775 -0.4447
vn 0.6619 0.6306 0.4052
vn 0.7729 -0.6116 -0.1689
vn 0.6432 0.6691 0.3723
vn -0.5159 -0.4936 0.7001
vn -0.6405 0.6274 0.4430
vn -0.2509 0.7490 0.6132
vn 0.9209 -0.0454 0.3872
vn 0.6430 -0.6298 0.4358
vn -0.5165 -0.4935 -0.6998
vn -0.6407 0.6276 -0.4423
vn 0.6433 -0.6301 -0.4349
vn 0.0783 0.7563 -0.6496
vn -0.2512 0.7489 -0.6132
vn 0.9210 -0.0457 -0.3868
vn -0.5635 -0.4502 -0.6927
vn 0.4820 0.5259 -0.7008
vn 0.4825 0.5258 0.7005
vn -0.5638 -0.4496 0.6928
vn -0.6660 -0.6116 0.4271
vn -0.1815 0.6306 0.7546
vn 0.4051 0.6306 -0.6619
vn 0.9996 0.0289 -0.0001
vn -0.6288 0.7775 0.0001
vn -0.1686 -0.6114 -0.7731
vn 0.6016 -0.7988 -0.0004
vn -1.0000 0.0035 0.0006
vn -0.7546 0.6306 0.1815
vn -0.4271 -0.6116 0.6660
vn -0.4254 -0.7988 -0.4254
vn -0.7068 0.0290 -0.7068
vn 0.4447 0.7775 0.4447
vn 0.7071 0.0036 0.7071
vn 0.7730 -0.6116 0.1689
vn 0.6619 0.6306 -0.4052
vn -0.0006 0.7408 0.6717
vn -0.0006 0.7404 -0.6721
vn 0.8080 0.4401 -0.3917
vn 0.8078 0.4406 0.3916
vn -0.8105 0.4296 0.3982
vn -0.8109 0.4295 -0.3975
vn 0.1967 -0.7460 -0.6362
vn 0.8895 -0.4013 -0.2187
vn -0.9365 -0.0693 -0.3437
vn 0.1970 -0.7461 0.6361
vn 0.8893 -0.4018 0.2184
vn -0.9362 -0.0694 0.3445
vn 0.7072 0.0221 -0.7067
vn -0.7067 -0.0225 -0.7071
vn -0.3823 -0.8291 -0.4080
vn 0.4332 -0.8034 -0.4085
vn 0.3828 0.8289 -0.4079
vn -0.4330 0.8039 -0.4077
vn -0.7067 -0.0227 0.7071
vn -0.3828 -0.8289 0.4079
vn -0.4332 0.8034 0.4085
vn 0.7068 0.0225 0.7071
vn 0.4338 -0.8031 0.4085
vn 0.3831 0.8283 0.4088
vn 0.4053 0.6306 0.6619
vn -0.1815 0.6306 -0.7546
vn -0.6660 -0.6116 -0.4271
vn -0.1685 -0.6120 0.7727
vn 0.6660 -0.6116 0.4271
vn -0.2006 -0.6801 -0.7052
vn -0.7954 -0.5943 -0.1187
vn 0.9001 0.0808 -0.4281
vn -0.6812 0.3842 -0.6232
vn -0.9650 -0.2568 -0.0533
vn 0.6439 0.6824 -0.3460
vn 0.1815 0.6306 0.7546
vn -0.4484 0.8235 0.3476
vn -0.1998 -0.6804 0.7050
vn -0.7951 -0.5948 0.1188
vn -0.9652 -0.2562 0.0533
vn 0.6433 0.6825 0.3469
vn 0.8997 0.0804 0.4291
vn 0.6660 -0.6116 -0.4271
vn 0.1815 0.6306 -0.7546
vn -0.5415 0.4553 -0.7067
vn 0.5413 -0.4550 -0.7071
vn 0.8379 0.3621 -0.4084
vn 0.2135 0.8876 -0.4081
vn -0.8380 -0.3624 -0.4079
vn -0.2131 -0.8877 -0.4081
vn 0.5409 -0.4554 0.7072
vn 0.8381 0.3617 0.4084
vn -0.2128 -0.8876 0.4085
vn -0.5408 0.4555 0.7071
vn 0.2132 0.8877 0.4081
vn -0.8379 -0.3621 0.4084
vt 0.375000 0.750000
vt 0.375000 0.500000
vt 0.125000 0.500000
vt 0.125000 0.750000
vt 0.625000 0.500000
vt 0.625000 0.750000
vt 0.625000 0.250000
vt 0.375000 0.250000
vt 0.375000 0.000000
vt 0.625000 0.000000
vt 0.875000 0.500000
vt 0.875000 0.750000
vt 0.625000 1.000000
vt 0.375000 1.000000
vt 0.375000 0.863516
vt 0.750000 0.835911
vt 0.625000 0.835911
vt 0.375000 0.386484
vt 0.261484 0.750000
vt 0.261484 0.500000
vt 0.375000 0.835911
vt 0.250000 0.835911
vt 0.125000 0.835911
vt 0.500000 0.835911
vt 0.875000 0.835911
vt 1.000000 0.835911
vt 0.000000 0.835911
s 1
f 205/1/1 206/1/2 203/1/3 199/1/4
f 206/1/2 205/1/1 200/1/5 204/1/6
f 206/1/2 207/2/7 195/2/8 203/1/3
f 207/2/7 206/1/2 204/1/6 196/2/9
f 207/2/7 208/2/10 201/2/11 195/2/8
f 208/2/10 207/2/7 196/2/9 202/2/12
f 208/2/10 205/1/1 199/1/4 201/2/11
f 205/1/1 208/2/10 202/2/12 200/1/5
f 209/3/13 210/2/14 121/2/15 119/3/16
f 210/2/14 209/3/13 120/3/17 122/2/18
f 210/2/14 211/1/19 115/1/20 121/2/15
f 211/1/19 210/2/14 122/2/18 116/1/21
f 211/1/19 212/4/22 117/4/23 115/1/20
f 212/4/22 211/1/19 116/1/21 118/4/24
f 212/4/22 209/3/13 119/3/16 117/4/23
f 209/3/13 212/4/22 118/4/24 120/3/17
f 213/2/13 214/5/14 7/5/15 3/2/16
f 214/5/14 213/2/13 4/2/25 8/5/18
f 214/5/14 215/6/19 5/6/20 7/5/15
f 215/6/19 214/5/14 8/5/18 6/6/21
f 215/6/19 216/1/22 1/1/23 5/6/20
f 216/1/22 215/6/19 6/6/21 2/1/24
f 216/1/22 213/2/13 3/2/16 1/1/23
f 213/2/13 216/1/22 2/1/24 4/2/25
f 217/7/26 218/8/27 23/8/28 21/7/29
f 218/8/27 217/7/26 22/7/30 24/8/31
f 218/8/27 219/9/32 17/9/33 23/8/28
f 219/9/32 218/8/27 24/8/31 18/9/34
f 219/9/32 220/10/35 19/10/36 17/9/33
f 220/10/35 219/9/32 18/9/34 20/10/37
f 220/10/35 217/7/26 21/7/29 19/10/36
f 217/7/26 220/10/35 20/10/37 22/7/30
f 221/6/38 222/5/39 43/5/40 41/6/41
f 222/5/39 221/6/38 42/6/42 44/5/43
f 222/5/39 223/5/44 37/5/45 43/5/40
f 223/5/44 222/5/39 44/5/43 38/5/46
f 223/5/44 224/6/47 35/6/48 37/5/45
f 224/6/47 223/5/44 38/5/46 36/6/49
f 224/6/47 221/6/38 41/6/41 35/6/48
f 221/6/38 224/6/47 36/6/49 42/6/42
f 225/5/50 226/11/51 39/11/52 37/5/45
f 226/11/51 225/5/50 38/5/46 40/11/53
f 226/11/51 227/12/54 33/12/55 39/11/52
f 227/12/54 226/11/51 40/11/53 34/12/56
f 227/12/54 228/6/57 35/6/48 33/12/55
f 228/6/57 227/12/54 34/12/56 36/6/49
f 228/6/57 225/5/50 37/5/45 35/6/48
f 225/5/50 228/6/57 36/6/49 38/5/46
f 229/6/58 230/13/59 59/13/60 63/6/61
f 230/13/59 229/6/58 64/6/62 60/13/63
f 230/13/59 231/14/64 65/14/65 59/13/60
f 231/14/64 230/13/59 60/13/63 66/14/66
f 231/14/64 232/15/67 61/15/68 65/14/65
f 232/15/67 231/14/64 66/14/66 62/15/69
f 232/15/67 233/1/70 67/1/71 61/15/68
f 233/1/70 232/15/67 62/15/69 68/1/72
f 233/1/70 234/1/73 71/1/74 67/1/71
f 234/1/73 233/1/70 68/1/72 72/1/75
f 234/1/73 235/6/76 69/6/77 71/1/74
f 235/6/76 234/1/73 72/1/75 70/6/78
f 235/6/76 229/6/58 63/6/61 69/6/77
f 229/6/58 235/6/76 70/6/78 64/6/62
f 236/16/79 237/16/80 165/16/81 161/16/82
f 237/16/80 236/16/79 162/16/83 166/16/84
f 237/16/80 238/17/85 153/17/86 165/16/81
f 238/17/85 237/16/80 166/16/84 154/17/87
f 238/17/85 239/17/88 157/17/89 153/17/86
f 239/17/88 238/17/85 154/17/87 158/17/90
f 239/17/88 236/16/79 161/16/82 157/17/89
f 236/16/79 239/17/88 158/17/90 162/16/83
f 240/1/91 241/6/92 73/6/93 71/1/74
f 241/6/92 240/1/91 72/1/75 74/6/94
f 241/6/92 242/6/95 69/6/77 73/6/93
f 242/6/95 241/6/92 74/6/94 70/6/78
f 242/6/95 240/1/91 71/1/74 69/6/77
f 240/1/91 242/6/95 70/6/78 72/1/75
f 243/6/96 244/1/97 71/1/74 73/6/93
f 244/1/97 243/6/96 74/6/94 72/1/75
f 244/1/97 245/1/98 75/1/99 71/1/74
f 245/1/98 244/1/97 72/1/75 76/1/100
f 245/1/98 243/6/96 73/6/93 75/1/99
f 243/6/96 245/1/98 76/1/100 74/6/94
f 246/5/101 247/2/102 89/2/103 87/5/104
f 247/2/102 246/5/101 88/5/105 90/2/106
f 247/2/102 248/2/107 85/2/108 89/2/103
f 248/2/107 247/2/102 90/2/106 86/2/109
f 248/2/107 249/18/110 79/18/111 85/2/108
f 249/18/110 248/2/107 86/2/109 80/18/112
f 249/18/110 250/8/113 81/8/114 79/18/111
f 250/8/113 249/18/110 80/18/112 82/8/115
f 250/8/113 251/7/116 77/7/117 81/8/114
f 251/7/116 250/8/113 82/8/115 78/7/118
f 251/7/116 252/5/119 83/5/120 77/7/117
f 252/5/119 251/7/116 78/7/118 84/5/121
f 252/5/119 246/5/101 87/5/104 83/5/120
f 246/5/101 252/5/119 84/5/121 88/5/105
f 253/6/122 254/5/123 57/5/124 53/6/125
f 254/5/123 253/6/122 54/6/126 58/5/127
f 254/5/123 255/5/128 55/5/129 57/5/124
f 255/5/128 254/5/123 58/5/127 56/5/130
f 255/5/128 256/6/131 51/6/132 55/5/129
f 256/6/131 255/5/128 56/5/130 52/6/133
f 256/6/131 253/6/122 53/6/125 51/6/132
f 253/6/122 256/6/131 52/6/133 54/6/126
f 257/5/134 258/2/135 89/2/103 91/5/136
f 258/2/135 257/5/134 92/5/137 90/2/106
f 258/2/135 259/5/138 87/5/104 89/2/103
f 259/5/138 258/2/135 90/2/106 88/5/105
f 259/5/138 257/5/134 91/5/136 87/5/104
f 257/5/134 259/5/138 88/5/105 92/5/137
f 260/2/139 261/2/140 89/2/103 93/2/141
f 261/2/140 260/2/139 94/2/142 90/2/106
f 261/2/140 262/5/143 91/5/136 89/2/103
f 262/5/143 261/2/140 90/2/106 92/5/137
f 262/5/143 260/2/139 93/2/141 91/5/136
f 260/2/139 262/5/143 92/5/137 94/2/142
f 263/1/144 264/6/145 97/6/146 101/1/147
f 264/6/145 263/1/144 102/1/148 98/6/149
f 264/6/145 265/6/150 99/6/151 97/6/146
f 265/6/150 264/6/145 98/6/149 100/6/152
f 265/6/150 266/13/153 95/13/154 99/6/151
f 266/13/153 265/6/150 100/6/152 96/13/155
f 266/13/153 267/14/156 103/14/157 95/13/154
f 267/14/156 266/13/153 96/13/155 104/14/158
f 267/14/156 263/1/144 101/1/147 103/14/157
f 263/1/144 267/14/156 104/14/158 102/1/148
f 268/19/159 269/4/160 191/4/161 185/19/162
f 269/4/160 268/19/159 186/19/163 192/4/164
f 269/4/160 270/3/165 189/3/166 191/4/161
f 270/3/165 269/4/160 192/4/164 190/3/167
f 270/3/165 271/20/168 187/20/169 189/3/166
f 271/20/168 270/3/165 190/3/167 188/20/170
f 271/20/168 268/19/159 185/19/162 187/20/169
f 268/19/159 271/20/168 188/20/170 186/19/163
f 272/7/171 273/5/172 109/5/173 107/7/174
f 273/5/172 272/7/171 108/7/175 110/5/176
f 273/5/172 274/5/177 105/5/178 109/5/173
f 274/5/177 273/5/172 110/5/176 106/5/179
f 274/5/177 275/2/180 111/2/181 105/5/178
f 275/2/180 274/5/177 106/5/179 112/2/182
f 275/2/180 276/8/183 113/8/184 111/2/181
f 276/8/183 275/2/180 112/2/182 114/8/185
f 276/8/183 272/7/171 107/7/174 113/8/184
f 272/7/171 276/8/183 114/8/185 108/7/175
f 277/7/186 278/8/187 31/8/188 25/7/189
f 278/8/187 277/7/186 26/7/190 32/8/191
f 278/8/187 279/9/192 27/9/193 31/8/188
f 279/9/192 278/8/187 32/8/191 28/9/194
f 279/9/192 280/10/195 29/10/196 27/9/193
f 280/10/195 279/9/192 28/9/194 30/10/197
f 280/10/195 277/7/186 25/7/189 29/10/196
f 277/7/186 280/10/195 30/10/197 26/7/190
f 281/21/198 282/22/199 163/22/200 147/21/201
f 282/22/199 281/21/198 148/21/202 164/22/203
f 282/22/199 283/22/204 159/22/205 163/22/200
f 283/22/204 282/22/199 164/22/203 160/22/206
f 283/22/204 284/21/207 155/21/208 159/22/205
f 284/21/207 283/22/204 160/22/206 156/21/209
f 284/21/207 281/21/198 147/21/201 155/21/208
f 281/21/198 284/21/207 156/21/209 148/21/202
f 285/23/210 286/22/211 127/22/212 125/23/213
f 286/22/211 285/23/210 126/23/214 128/22/215
f 286/22/211 287/21/216 123/21/217 127/22/212
f 287/21/216 286/22/211 128/22/215 124/21/218
f 287/21/216 288/24/219 131/24/220 123/21/217
f 288/24/219 287/21/216 124/21/218 132/24/221
f 288/24/219 289/17/222 129/17/223 131/24/220
f 289/17/222 288/24/219 132/24/221 130/17/224
f 289/17/222 290/16/225 135/16/226 129/17/223
f 290/16/225 289/17/222 130/17/224 136/16/227
f 290/16/225 291/25/228 133/25/229 135/16/226
f 291/25/228 290/16/225 136/16/227 134/25/230
f 291/25/228 292/26/231 137/26/232 133/25/229
f 292/26/231 291/25/228 134/25/230 138/26/233
f 292/26/231 285/23/210 125/23/213 137/26/232
f 285/23/210 292/26/231 138/26/233 126/23/214
f 293/23/234 294/23/235 171/23/236 167/23/237
f 294/23/235 293/23/234 168/23/238 172/23/239
f 294/23/235 295/22/240 159/22/205 171/23/236
f 295/22/240 294/23/235 172/23/239 160/22/206
f 295/22/240 296/22/241 163/22/200 159/22/205
f 296/22/241 295/22/240 160/22/206 164/22/203
f 296/22/241 293/23/234 167/23/237 163/22/200
f 293/23/234 296/22/241 164/22/203 168/23/238
f 297/1/242 298/1/243 183/1/244 197/1/245
f 298/1/243 297/1/242 198/1/246 184/1/247
f 298/1/243 299/2/248 193/2/249 183/1/244
f 299/2/248 298/1/243 184/1/247 194/2/250
f 299/2/248 300/2/251 195/2/252 193/2/249
f 300/2/251 299/2/248 194/2/250 196/2/253
f 300/2/251 297/1/242 197/1/245 195/2/252
f 297/1/242 300/2/251 196/2/253 198/1/246
f 301/20/254 302/2/255 193/2/249 187/20/169
f 302/2/255 301/20/254 188/20/170 194/2/250
f 302/2/255 303/1/256 183/1/244 193/2/249
f 303/1/256 302/2/255 194/2/250 184/1/247
f 303/1/256 304/19/257 185/19/162 183/1/244
f 304/19/257 303/1/256 184/1/247 186/19/163
f 304/19/257 301/20/254 187/20/169 185/19/162
f 301/20/254 304/19/257 186/19/163 188/20/170
f 305/21/258 306/21/259 155/21/208 147/21/201
f 306/21/259 305/21/258 148/21/202 156/21/209
f 306/21/259 307/24/260 149/24/261 155/21/208
f 307/24/260 306/21/259 156/21/209 150/24/262
f 307/24/260 308/24/263 151/24/264 149/24/261
f 308/24/263 307/24/260 150/24/262 152/24/265
f 308/24/263 305/21/258 147/21/201 151/24/264
f 305/21/258 308/24/263 152/24/265 148/21/202
f 309/25/266 310/25/267 169/25/268 177/25/269
f 310/25/267 309/25/266 178/25/270 170/25/271
f 310/25/267 311/16/272 165/16/81 169/25/268
f 311/16/272 310/25/267 170/25/271 166/16/84
f 311/16/272 312/16/273 161/16/82 165/16/81
f 312/16/273 311/16/272 166/16/84 162/16/83
f 312/16/273 309/25/266 177/25/269 161/16/82
f 309/25/266 312/16/273 162/16/83 178/25/270
f 313/6/274 314/5/275 49/5/276 45/6/277
f 314/5/275 313/6/274 46/6/278 50/5/279
f 314/5/275 315/5/280 43/5/281 49/5/276
f 315/5/280 314/5/275 50/5/279 44/5/282
f 315/5/280 316/6/283 47/6/284 43/5/281
f 316/6/283 315/5/280 44/5/282 48/6/285
f 316/6/283 313/6/274 45/6/277 47/6/284
f 313/6/274 316/6/283 48/6/285 46/6/278
f 317/5/286 318/11/287 15/11/288 13/5/289
f 318/11/287 317/5/286 14/5/290 16/11/291
f 318/11/287 319/12/292 9/12/293 15/11/288
f 319/12/292 318/11/287 16/11/291 10/12/294
f 319/12/292 320/6/295 11/6/296 9/12/293
f 320/6/295 319/12/292 10/12/294 12/6/297
f 320/6/295 317/5/286 13/5/289 11/6/296
f 317/5/286 320/6/295 12/6/297 14/5/290
f 321/24/298 322/17/299 157/17/89 149/24/261
f 322/17/299 321/24/298 150/24/262 158/17/90
f 322/17/299 323/17/300 153/17/86 157/17/89
f 323/17/300 322/17/299 158/17/90 154/17/87
f 323/17/300 324/24/301 151/24/264 153/17/86
f 324/24/301 323/17/300 154/17/87 152/24/265
f 324/24/301 321/24/298 149/24/261 151/24/264
f 321/24/298 324/24/301 152/24/265 150/24/262
f 325/23/302 326/27/303 175/27/304 167/23/237
f 326/27/303 325/23/302 168/23/238 176/27/305
f 326/27/303 327/27/306 173/27/307 175/27/304
f 327/27/306 326/27/303 176/27/305 174/27/308
f 327/27/306 328/23/309 171/23/236 173/27/307
f 328/23/309 327/27/306 174/27/308 172/23/239
f 328/23/309 325/23/302 167/23/237 171/23/236
f 325/23/302 328/23/309 172/23/239 168/23/238
f 329/26/310 330/26/311 181/26/312 179/26/313
f 330/26/311 329/26/310 180/26/314 182/26/315
f 330/26/311 331/25/316 169/25/268 181/26/312
f 331/25/316 330/26/311 182/26/315 170/25/271
f 331/25/316 332/25/317 177/25/269 169/25/268
f 332/25/317 331/25/316 170/25/271 178/25/270
f 332/25/317 329/26/310 179/26/313 177/25/269
f 329/26/310 332/25/317 178/25/270 180/26/314
f 333/2/318 334/5/319 145/5/320 143/2/321
f 334/5/319 333/2/318 144/2/322 146/5/323
f 334/5/319 335/6/324 139/6/325 145/5/320
f 335/6/324 334/5/319 146/5/323 140/6/326
f 335/6/324 336/1/327 141/1/328 139/6/325
f 336/1/327 335/6/324 140/6/326 142/1/329
f 336/1/327 333/2/318 143/2/321 141/1/328
f 333/2/318 336/1/327 142/1/329 144/2/322
