# Blender 4.5.3 LTS
# www.blender.org
mtllib Glass-two-cynlinders.mtl
o Cube_Cube_014_101789865262582
v -0.228152 -0.333448 -0.021088
v -0.228151 -0.335448 -0.021087
v -0.228152 -0.333448 0.021149
v -0.228151 -0.335448 0.021150
v -0.248613 -0.333448 -0.021088
v -0.248612 -0.335448 -0.021087
v -0.248613 -0.333448 0.021149
v -0.248612 -0.335448 0.021150
v 0.193485 0.304490 -0.045777
v 0.193423 0.306489 -0.045776
v -0.021400 0.297775 -0.045777
v -0.021461 0.299774 -0.045776
v -0.021400 0.297775 0.045844
v -0.021462 0.299774 0.045845
v 0.193485 0.304490 0.045844
v 0.193424 0.306489 0.045845
v 0.200200 0.123599 -0.045777
v 0.202199 0.123672 -0.045776
v 0.193485 0.304490 -0.045777
v 0.195484 0.304563 -0.045776
v 0.193485 0.304490 0.045844
v 0.195484 0.304563 0.045845
v 0.200200 0.123599 0.045844
v 0.202199 0.123672 0.045845
v 0.195583 0.333448 0.055478
v 0.197583 0.333449 0.055479
v 0.195583 0.288960 -0.055418
v 0.197583 0.288961 -0.055417
v 0.195583 0.333448 -0.055418
v 0.197583 0.333449 -0.055417
v 0.195583 0.288960 0.055478
v 0.197583 0.288961 0.055479
v 0.195583 0.333448 -0.055418
v 0.195584 0.335448 -0.055417
v -0.057074 0.333448 -0.055418
v -0.057960 0.335241 -0.055417
v -0.057074 0.333448 0.055478
v -0.057960 0.335241 0.055479
v 0.195583 0.333448 0.055478
v 0.195584 0.335448 0.055479
v -0.251813 0.078274 -0.055418
v -0.253704 0.078924 -0.055417
v -0.251813 0.078274 0.055478
v -0.253704 0.078924 0.055479
v -0.248613 -0.333448 -0.021088
v -0.250613 -0.333463 -0.021087
v -0.251813 0.078274 -0.055418
v -0.253704 0.078924 -0.055417
v -0.248613 -0.333448 0.021149
v -0.250613 -0.333463 0.021150
v -0.021400 0.297775 -0.045777
v -0.023400 0.297776 -0.045776
v -0.021400 0.197048 -0.045777
v -0.023400 0.197049 -0.045776
v -0.021400 0.297775 0.045844
v -0.023400 0.297776 0.045845
v -0.021400 0.197048 0.045844
v -0.023400 0.197049 0.045845
v 0.195583 0.333448 -0.055418
v 0.195584 0.333449 -0.057418
v 0.057649 0.262099 -0.055418
v 0.057650 0.262100 -0.057418
v -0.057074 0.333448 -0.055418
v -0.057073 0.333449 -0.057418
v 0.195583 0.288960 -0.055418
v 0.195584 0.288961 -0.057418
v -0.003353 0.188234 -0.055418
v -0.003352 0.188235 -0.057418
v -0.251813 0.078274 -0.055418
v -0.251853 0.078222 -0.057417
v -0.198092 0.020355 -0.055418
v -0.198171 0.020252 -0.057414
v -0.248613 -0.333448 -0.021088
v -0.248749 -0.333621 -0.023076
v -0.228152 -0.333448 -0.021088
v -0.228288 -0.333621 -0.023076
v 0.195583 0.333448 0.055478
v 0.195584 0.333449 0.057478
v 0.057649 0.262099 0.055478
v 0.057650 0.262100 0.057478
v 0.195583 0.288960 0.055478
v 0.195584 0.288961 0.057478
v -0.057074 0.333448 0.055478
v -0.057073 0.333449 0.057478
v -0.003353 0.188234 0.055478
v -0.003352 0.188235 0.057478
v -0.251813 0.078274 0.055478
v -0.251853 0.078222 0.057477
v -0.198092 0.020355 0.055478
v -0.198171 0.020252 0.057474
v -0.248613 -0.333448 0.021149
v -0.248749 -0.333621 0.023137
v -0.228152 -0.333448 0.021149
v -0.228288 -0.333621 0.023137
v 0.193485 0.304490 -0.045777
v 0.193486 0.304491 -0.047777
v -0.021400 0.197048 -0.045777
v -0.021399 0.197049 -0.047777
v -0.021400 0.297775 -0.045777
v -0.021399 0.297776 -0.047777
v 0.065897 0.123599 -0.045777
v 0.065898 0.123600 -0.047777
v 0.200200 0.123599 -0.045777
v 0.200201 0.123600 -0.047777
v -0.021400 0.197048 0.045844
v -0.021399 0.197049 0.047844
v 0.193485 0.304490 0.045844
v 0.193486 0.304491 0.047844
v -0.021400 0.297775 0.045844
v -0.021399 0.297776 0.047844
v 0.065897 0.123599 0.045844
v 0.065898 0.123600 0.047844
v 0.200200 0.123599 0.045844
v 0.200201 0.123600 0.047844
v 0.065897 0.123599 -0.045777
v 0.065898 0.121599 -0.045776
v 0.200200 0.123599 -0.045777
v 0.200201 0.121599 -0.045776
v 0.200200 0.123599 0.045844
v 0.200201 0.121599 0.045845
v 0.065897 0.123599 0.045844
v 0.065898 0.121599 0.045845
v 0.085075 0.125704 -0.054694
v 0.085076 0.127704 -0.054693
v 0.194463 0.125704 -0.054694
v 0.194464 0.127704 -0.054693
v 0.139769 0.125704 -0.077349
v 0.139770 0.127704 -0.077348
v 0.085075 0.125704 0.054694
v 0.085076 0.127704 0.054695
v 0.062420 0.125704 -0.000000
v 0.062421 0.127704 0.000001
v 0.194463 0.125704 0.054694
v 0.194464 0.127704 0.054695
v 0.139769 0.125704 0.077349
v 0.139770 0.127704 0.077350
v 0.217118 0.125704 -0.000000
v 0.217119 0.127704 0.000001
v -0.021400 0.197048 -0.045777
v -0.022687 0.195517 -0.045776
v 0.065897 0.123599 -0.045777
v 0.064610 0.122068 -0.045777
v 0.065897 0.123599 0.045844
v 0.064610 0.122068 0.045845
v -0.021400 0.197048 0.045844
v -0.022687 0.195517 0.045844
v 0.085075 0.125704 -0.054694
v 0.083799 0.126567 -0.055970
v 0.027725 0.053145 -0.000000
v 0.025921 0.054008 -0.000000
v 0.062420 0.125704 -0.000000
v 0.060616 0.126567 0.000001
v 0.085075 0.125704 0.054694
v 0.083799 0.126567 0.055970
v 0.060542 0.053145 -0.079227
v 0.059266 0.054008 -0.080503
v 0.060542 0.053145 0.079227
v 0.059266 0.054008 0.080503
v 0.139769 0.053145 -0.112044
v 0.139769 0.054008 -0.113848
v 0.139769 0.053145 0.112044
v 0.139769 0.054008 0.113848
v 0.139769 0.125704 -0.077349
v 0.139769 0.126567 -0.079153
v 0.139769 0.125704 0.077349
v 0.139769 0.126567 0.079153
v 0.194463 0.125704 -0.054694
v 0.195739 0.126567 -0.055970
v 0.194463 0.125704 0.054694
v 0.195739 0.126567 0.055970
v 0.218996 0.053145 -0.079227
v 0.220272 0.054008 -0.080503
v 0.251813 0.053145 -0.000000
v 0.253617 0.054008 0.000001
v 0.217118 0.125704 -0.000000
v 0.218922 0.126567 0.000001
v 0.218996 0.053145 0.079227
v 0.220272 0.054008 0.080503
v 0.251813 0.053145 -0.000000
v 0.253617 0.054008 0.000001
v 0.217118 0.125704 -0.000000
v 0.218922 0.126567 0.000001
v -0.003353 0.188234 -0.055418
v -0.001924 0.186835 -0.055417
v 0.057649 0.262099 -0.055418
v 0.058672 0.260380 -0.055417
v 0.057649 0.262099 0.055478
v 0.058672 0.260380 0.055479
v 0.195583 0.288960 0.055478
v 0.195965 0.286997 0.055478
v 0.195583 0.288960 -0.055418
v 0.195965 0.286997 -0.055418
v -0.003353 0.188234 0.055478
v -0.001924 0.186835 0.055479
v -0.198092 0.020355 0.055478
v -0.196323 0.019422 0.055479
v -0.198092 0.020355 -0.055418
v -0.196323 0.019422 -0.055418
v -0.228152 -0.333448 -0.021088
v -0.226159 -0.333617 -0.021088
v -0.228152 -0.333448 0.021149
v -0.226159 -0.333617 0.021150
v -0.198092 0.020355 -0.055418
v -0.196323 0.019422 -0.055417
v -0.227071 -0.332536 -0.020180
v -0.197292 0.018892 -0.054316
v -0.197292 0.018892 0.054377
v -0.227071 -0.332536 0.020241
v 0.199200 0.122599 0.044844
v 0.066897 0.122599 0.044844
v 0.066897 0.122599 -0.044777
v 0.199201 0.122599 -0.044776
v -0.229152 -0.334448 0.020150
v -0.247613 -0.334448 0.020150
v -0.247613 -0.334448 -0.020088
v -0.229151 -0.334448 -0.020087
v 0.194521 0.303527 0.044844
v 0.201162 0.124635 0.044844
v 0.201162 0.124635 -0.044777
v 0.194521 0.303527 -0.044777
v -0.252152 0.079394 -0.054418
v -0.252152 0.079394 0.054478
v -0.058124 0.333549 0.054478
v -0.058124 0.333549 -0.054418
v -0.056517 0.334344 0.054478
v 0.194583 0.334448 0.054478
v 0.194583 0.334448 -0.054418
v -0.056517 0.334344 -0.054418
v -0.056579 0.332448 -0.056418
v 0.194583 0.332448 -0.056418
v 0.194583 0.289785 -0.056418
v 0.057107 0.263013 -0.056418
v -0.004070 0.188937 -0.056418
v -0.198054 0.021691 -0.056416
v -0.250527 0.078311 -0.056417
v 0.138832 0.054491 0.112121
v 0.138832 0.125221 0.078301
v 0.085065 0.125221 0.056029
v 0.061150 0.054491 0.079944
v -0.199185 0.019980 -0.056293
v -0.247788 -0.320231 -0.023281
v -0.250817 0.075694 -0.056295
v -0.247529 -0.332539 -0.022178
v -0.202093 -0.014515 -0.053037
v -0.229139 -0.332539 -0.022178
v -0.250527 0.078311 0.056477
v -0.198054 0.021691 0.056476
v -0.004070 0.188937 0.056478
v 0.057107 0.263013 0.056478
v 0.194583 0.289785 0.056478
v 0.194583 0.332448 0.056478
v -0.056579 0.332448 0.056478
v -0.022400 0.198048 -0.044777
v -0.022400 0.198048 0.044844
v -0.022400 0.296775 0.044844
v -0.022400 0.296775 -0.044777
v -0.247788 -0.320231 0.023342
v -0.199185 0.019980 0.056353
v -0.250817 0.075694 0.056355
v -0.229139 -0.332539 0.022240
v -0.202093 -0.014515 0.053097
v -0.247529 -0.332539 0.022240
v 0.066262 0.124599 -0.046777
v -0.020400 0.197514 -0.046777
v -0.020400 0.296806 -0.046777
v 0.192523 0.303460 -0.046777
v 0.199163 0.124599 -0.046777
v 0.059142 0.261431 -0.054418
v 0.194793 0.287787 -0.054418
v 0.194793 0.287787 0.054478
v 0.059142 0.261431 0.054478
v 0.192523 0.303460 0.046844
v -0.020400 0.296806 0.046844
v -0.020400 0.197514 0.046844
v 0.066262 0.124599 0.046844
v 0.199163 0.124599 0.046844
v 0.196583 0.332448 0.054478
v 0.196583 0.289960 0.054478
v 0.196583 0.289960 -0.054418
v 0.196583 0.332448 -0.054418
v 0.085065 0.125221 -0.056029
v 0.138832 0.125221 -0.078301
v 0.138832 0.054491 -0.112121
v 0.061150 0.054491 -0.079944
v 0.193698 0.126704 -0.053928
v 0.139769 0.126704 -0.076266
v 0.085841 0.126704 -0.053928
v 0.063503 0.126704 0.000000
v 0.085841 0.126704 0.053929
v 0.139769 0.126704 0.076267
v 0.193698 0.126704 0.053929
v 0.216036 0.126704 0.000000
v 0.194473 0.125221 -0.056029
v 0.218388 0.054491 -0.079944
v 0.140706 0.054491 -0.112121
v 0.140706 0.125221 -0.078301
v -0.196450 0.020541 -0.054418
v -0.003396 0.186881 -0.054418
v -0.003396 0.186881 0.054478
v -0.196450 0.020541 0.054478
v 0.057524 0.260469 0.054478
v -0.002002 0.188305 0.054478
v -0.002002 0.188305 -0.054418
v 0.057524 0.260469 -0.054418
v 0.083740 0.125221 -0.054704
v 0.059825 0.054491 -0.078619
v 0.027648 0.054491 -0.000937
v 0.061468 0.125221 -0.000936
v 0.218388 0.054491 0.079944
v 0.194473 0.125221 0.056029
v 0.140706 0.125221 0.078301
v 0.140706 0.054491 0.112121
v -0.249621 -0.332455 -0.020167
v -0.249621 -0.332455 0.020229
v -0.252751 0.077599 0.054392
v -0.252751 0.077599 -0.054331
v -0.020431 0.298806 0.044844
v 0.192455 0.305458 0.044845
v 0.192455 0.305458 -0.044777
v -0.020431 0.298806 -0.044776
v 0.027648 0.054491 0.000937
v 0.059825 0.054491 0.078619
v 0.083740 0.125221 0.054704
v 0.061468 0.125221 0.000937
v 0.195798 0.125221 -0.054704
v 0.218070 0.125221 -0.000936
v 0.251890 0.054491 -0.000936
v 0.219713 0.054491 -0.078619
v 0.251890 0.054491 0.000937
v 0.218070 0.125221 0.000937
v 0.195798 0.125221 0.054704
v 0.219713 0.054491 0.078619
v 0.064488 0.123477 0.044844
v -0.021278 0.195639 0.044844
v -0.021278 0.195639 -0.044777
v 0.064488 0.123477 -0.044777
vn 0.0694 0.7434 0.6652
vn -0.5904 -0.4513 0.6692
vn -0.7578 -0.1766 0.6282
vn -0.7667 0.5061 0.3950
vn 0.8460 0.3674 0.3864
vn 0.5944 -0.7001 0.3958
vn -0.5900 -0.4513 -0.6695
vn -0.7580 -0.1760 -0.6281
vn 0.5950 -0.6999 -0.3951
vn 0.0693 0.7435 -0.6652
vn -0.7667 0.5059 -0.3952
vn 0.8462 0.3674 -0.3860
vn -0.7076 -0.0004 -0.7066
vn 0.7071 0.0007 -0.7071
vn 0.4079 0.8165 -0.4086
vn -0.4081 0.8167 -0.4081
vn -0.4078 -0.8169 -0.4078
vn 0.4086 -0.8165 -0.4079
vn 0.7071 -0.0003 0.7071
vn 0.4084 0.8163 0.4084
vn 0.4087 -0.8160 0.4087
vn -0.7071 0.0008 0.7071
vn -0.4086 0.8165 0.4078
vn -0.4078 -0.8165 0.4086
vn -0.4078 -0.8170 -0.4078
vn 0.0263 -0.7071 -0.7066
vn -0.0265 0.7066 -0.7071
vn -0.8313 0.3775 -0.4081
vn -0.8008 -0.4379 -0.4086
vn 0.8311 -0.3780 -0.4079
vn 0.8013 0.4378 -0.4078
vn -0.0269 0.7066 0.7071
vn -0.8311 0.3780 0.4079
vn 0.8008 0.4379 0.4086
vn 0.0265 -0.7067 0.7070
vn -0.8006 -0.4385 0.4084
vn 0.8306 -0.3781 0.4087
vn 0.2027 0.4121 0.8883
vn 0.6148 0.5083 -0.6031
vn 0.9576 -0.1996 -0.2075
vn 0.9578 -0.1992 0.2073
vn -0.6829 0.6490 0.3352
vn -0.6832 0.6492 -0.3344
vn -0.5886 -0.4417 -0.6771
vn 0.3897 -0.7846 -0.4822
vn -0.3987 0.8037 -0.4418
vn -0.5889 -0.4415 0.6770
vn 0.3895 -0.7845 0.4825
vn -0.3986 0.8033 0.4426
vn 0.7036 0.1977 -0.6825
vn -0.7168 -0.0002 -0.6973
vn -0.4062 -0.8238 -0.3953
vn -0.4064 0.8239 -0.3950
vn -0.7168 -0.0006 0.6973
vn -0.4067 -0.8236 0.3952
vn -0.4064 0.8235 0.3957
vn 0.7031 0.1973 0.6832
vn 0.4441 -0.8960 -0.0002
vn -0.7071 -0.7071 0.0003
vn -0.4081 -0.4081 0.8167
vn 0.2955 -0.5983 0.7448
vn 0.2962 -0.5977 -0.7449
vn -0.4078 -0.4078 -0.8169
vn -0.7717 0.6359 0.0007
vn -0.4718 0.3881 0.7917
vn -0.4711 0.3888 -0.7917
vn -0.5117 0.8592 0.0006
vn -0.3510 0.5889 0.7280
vn -0.3497 0.5898 -0.7279
vn -0.7146 0.6996 -0.0008
vn -0.5054 0.4941 0.7074
vn -0.5030 0.4932 -0.7097
vn 0.0568 0.9983 -0.0119
vn -0.3633 0.1775 0.9146
vn -0.4405 0.1035 -0.8918
vn 0.9987 0.0440 -0.0243
vn 0.5196 -0.0531 0.8528
vn 0.4624 -0.1007 -0.8809
vn -0.6619 0.6306 -0.4052
vn -0.7730 -0.6116 0.1689
vn -0.0000 -0.7988 -0.6016
vn -0.0000 0.0289 -0.9996
vn -0.0000 0.7775 0.6288
vn -0.0000 0.0036 1.0000
vn 0.4271 -0.6116 0.6660
vn 0.4254 -0.7988 -0.4254
vn -0.7071 0.0036 0.7071
vn 0.7546 0.6306 0.1815
vn 0.7068 0.0289 -0.7068
vn -0.4447 0.7775 0.4447
vn -0.9484 -0.3074 0.0770
vn 0.0760 0.9970 0.0116
vn 0.3980 0.3813 0.8344
vn 0.3246 0.2504 -0.9121
vn 0.3634 -0.9315 0.0172
vn 0.7130 0.6955 -0.0890
vn -0.1433 -0.9851 0.0947
vn -0.6441 0.7648 0.0148
vn -0.3896 0.5475 0.7406
vn -0.4552 0.3694 -0.8101
vn 0.9983 0.0541 0.0215
vn 0.0568 0.9983 0.0119
vn -0.3633 0.1775 -0.9146
vn 0.5196 -0.0531 -0.8528
vn 0.4624 -0.1007 0.8809
vn -0.4405 0.1035 0.8918
vn -0.7146 0.6996 0.0008
vn -0.5054 0.4941 -0.7074
vn -0.5030 0.4932 0.7097
vn -0.5117 0.8592 -0.0006
vn -0.3510 0.5889 -0.7280
vn -0.3497 0.5898 0.7279
vn -0.7717 0.6359 -0.0007
vn -0.4718 0.3881 -0.7917
vn -0.4711 0.3888 0.7917
vn -0.7071 -0.7071 -0.0003
vn -0.4081 -0.4081 -0.8167
vn -0.4078 -0.4078 0.8169
vn 0.4434 -0.8963 -0.0006
vn 0.2955 -0.5983 -0.7448
vn 0.2962 -0.5977 0.7449
vn 0.0004 0.7076 0.7066
vn 0.0007 0.7071 -0.7071
vn 0.8165 0.4079 -0.4086
vn 0.8163 0.4084 0.4084
vn -0.8160 0.4087 0.4087
vn -0.8165 0.4086 -0.4079
vn 0.0003 -0.7071 -0.7071
vn 0.8167 -0.4081 -0.4081
vn -0.8169 -0.4078 -0.4078
vn 0.0007 -0.7071 0.7071
vn 0.8165 -0.4086 0.4079
vn -0.8165 -0.4079 0.4086
vn 0.1204 0.9894 0.0818
vn -0.9517 -0.2937 -0.0896
vn 0.3980 0.3813 -0.8344
vn 0.3246 0.2504 0.9121
vn 0.3634 -0.9315 -0.0172
vn -0.6310 0.7709 0.0864
vn -0.1419 -0.9853 -0.0950
vn -0.3896 0.5475 -0.7406
vn -0.4552 0.3694 0.8101
vn 0.7571 0.6529 0.0240
vn 0.3429 0.9394 -0.0003
vn 0.9069 0.4215 -0.0001
vn 0.6092 0.2834 0.7407
vn 0.2345 0.6435 0.7287
vn 0.2350 0.6437 -0.7283
vn 0.6094 0.2839 -0.7403
vn 0.7181 -0.6960 0.0007
vn 0.4185 -0.4063 0.8123
vn 0.4191 -0.4056 -0.8123
vn -0.6825 -0.7309 0.0003
vn -0.3947 -0.4226 0.8159
vn -0.3944 -0.4223 -0.8161
vn -0.7201 0.6939 0.0007
vn -0.4108 0.3952 0.8216
vn -0.4101 0.3959 -0.8216
vn 0.6635 0.2810 0.6934
vn -0.6994 -0.1362 0.7017
vn -0.5565 0.7276 0.4011
vn -0.4588 0.7705 0.4426
vn 0.4508 -0.7572 0.4726
vn -0.2433 -0.8832 0.4010
vn -0.6994 -0.1364 -0.7016
vn -0.5565 0.7276 -0.4012
vn -0.2432 -0.8833 -0.4009
vn 0.6633 0.2810 -0.6936
vn -0.4593 0.7707 -0.4416
vn 0.4511 -0.7576 -0.4717
vn -0.6831 -0.7304 0.0004
vn 0.7181 -0.6960 -0.0007
vn 0.4185 -0.4063 -0.8123
vn -0.3947 -0.4226 -0.8159
vn -0.3944 -0.4223 0.8161
vn 0.4191 -0.4056 0.8123
vn 0.9069 0.4214 0.0001
vn 0.6092 0.2834 -0.7407
vn 0.6094 0.2839 0.7403
vn 0.3421 0.9397 -0.0000
vn 0.2345 0.6435 -0.7287
vn 0.2350 0.6437 0.7283
vn -0.7201 0.6939 -0.0007
vn -0.4108 0.3952 -0.8216
vn -0.4101 0.3959 0.8216
vn 0.0004 -0.7076 -0.7066
vn -0.0007 0.7071 -0.7071
vn -0.8165 0.4079 -0.4086
vn -0.8167 -0.4081 -0.4081
vn 0.8169 -0.4078 -0.4078
vn 0.8165 0.4086 -0.4079
vn 0.0003 0.7071 0.7071
vn -0.8163 0.4084 0.4084
vn 0.8160 0.4087 0.4087
vn -0.0007 -0.7071 0.7071
vn -0.8165 -0.4086 0.4079
vn 0.8165 -0.4079 0.4086
vn 0.4271 -0.6116 -0.6660
vn -0.7730 -0.6116 -0.1689
vn -0.0000 -0.7988 0.6016
vn 0.4254 -0.7988 0.4254
vn -0.7071 0.0037 -0.7071
vn -0.0000 0.0036 -1.0000
vn -0.6619 0.6306 0.4052
vn -0.0000 0.0289 0.9996
vn -0.0000 0.7775 -0.6288
vn 0.7546 0.6306 -0.1815
vn 0.7068 0.0289 0.7068
vn -0.4447 0.7775 -0.4447
vn -0.7076 -0.0000 0.7066
vn -0.0007 -0.0007 1.0000
vn -0.0004 -0.7344 0.6787
vn -0.4802 -0.7345 0.4794
vn -0.4794 0.7345 0.4802
vn 0.0004 0.7341 0.6790
vn 0.7071 0.0004 0.7071
vn 0.4800 -0.7343 0.4800
vn 0.4803 0.7339 0.4803
vn 1.0000 -0.0007 -0.0007
vn 0.6787 -0.7344 -0.0004
vn 0.6790 0.7341 0.0004
vn 0.7071 -0.0008 -0.7071
vn 0.4794 -0.7345 -0.4802
vn 0.4802 0.7345 -0.4794
vn -0.0000 -0.0005 -1.0000
vn -0.0004 -0.7347 -0.6784
vn 0.0004 0.7350 -0.6781
vn -0.7071 -0.0004 -0.7071
vn -0.4797 -0.7347 -0.4797
vn -0.4794 0.7351 -0.4794
vn -1.0000 -0.0005 -0.0000
vn -0.6784 -0.7347 -0.0004
vn -0.6781 0.7349 0.0004
vn -0.4271 -0.6116 -0.6660
vn -0.7546 0.6306 -0.1815
vn -0.7068 0.0289 0.7068
vn -0.4254 -0.7988 0.4254
vn 0.7071 0.0037 -0.7071
vn 0.4447 0.7775 -0.4447
vn 0.6619 0.6306 0.4052
vn 0.7729 -0.6116 -0.1689
vn 0.6432 0.6691 0.3723
vn -0.5159 -0.4936 0.7001
vn -0.6405 0.6274 0.4430
vn -0.2509 0.7490 0.6132
vn 0.9209 -0.0454 0.3872
vn 0.6430 -0.6298 0.4358
vn -0.5165 -0.4935 -0.6998
vn -0.6407 0.6276 -0.4423
vn 0.6433 -0.6301 -0.4349
vn 0.0783 0.7563 -0.6496
vn -0.2512 0.7489 -0.6132
vn 0.9210 -0.0457 -0.3868
vn -0.5635 -0.4502 -0.6927
vn 0.4820 0.5259 -0.7008
vn 0.4825 0.5258 0.7005
vn -0.5638 -0.4496 0.6928
vn -0.6660 -0.6116 0.4271
vn -0.1815 0.6306 0.7546
vn 0.4051 0.6306 -0.6619
vn 0.9996 0.0289 -0.0001
vn -0.6288 0.7775 0.0001
vn -0.1686 -0.6114 -0.7731
vn 0.6016 -0.7988 -0.0004
vn -1.0000 0.0035 0.0006
vn -0.7546 0.6306 0.1815
vn -0.4271 -0.6116 0.6660
vn -0.4254 -0.7988 -0.4254
vn -0.7068 0.0290 -0.7068
vn 0.4447 0.7775 0.4447
vn 0.7071 0.0036 0.7071
vn 0.7730 -0.6116 0.1689
vn 0.6619 0.6306 -0.4052
vn -0.0006 0.7408 0.6717
vn -0.0006 0.7404 -0.6721
vn 0.8080 0.4401 -0.3917
vn 0.8078 0.4406 0.3916
vn -0.8105 0.4296 0.3982
vn -0.8109 0.4295 -0.3975
vn 0.1967 -0.7460 -0.6362
vn 0.8895 -0.4013 -0.2187
vn -0.9365 -0.0693 -0.3437
vn 0.1970 -0.7461 0.6361
vn 0.8893 -0.4018 0.2184
vn -0.9362 -0.0694 0.3445
vn 0.7072 0.0221 -0.7067
vn -0.7067 -0.0225 -0.7071
vn -0.3823 -0.8291 -0.4080
vn 0.4332 -0.8034 -0.4085
vn 0.3828 0.8289 -0.4079
vn -0.4330 0.8039 -0.4077
vn -0.7067 -0.0227 0.7071
vn -0.3828 -0.8289 0.4079
vn -0.4332 0.8034 0.4085
vn 0.7068 0.0225 0.7071
vn 0.4338 -0.8031 0.4085
vn 0.3831 0.8283 0.4088
vn 0.4053 0.6306 0.6619
vn -0.1815 0.6306 -0.7546
vn -0.6660 -0.6116 -0.4271
vn -0.1685 -0.6120 0.7727
vn 0.6660 -0.6116 0.4271
vn -0.2006 -0.6801 -0.7052
vn -0.7954 -0.5943 -0.1187
vn 0.9001 0.0808 -0.4281
vn -0.6812 0.3842 -0.6232
vn -0.9650 -0.2568 -0.0533
vn 0.6439 0.6824 -0.3460
vn 0.1815 0.6306 0.7546
vn -0.4484 0.8235 0.3476
vn -0.1998 -0.6804 0.7050
vn -0.7951 -0.5948 0.1188
vn -0.9652 -0.2562 0.0533
vn 0.6433 0.6825 0.3469
vn 0.8997 0.0804 0.4291
vn 0.6660 -0.6116 -0.4271
vn 0.1815 0.6306 -0.7546
vn -0.5415 0.4553 -0.7067
vn 0.5413 -0.4550 -0.7071
vn 0.8379 0.3621 -0.4084
vn 0.2135 0.8876 -0.4081
vn -0.8380 -0.3624 -0.4079
vn -0.2131 -0.8877 -0.4081
vn 0.5409 -0.4554 0.7072
vn 0.8381 0.3617 0.4084
vn -0.2128 -0.8876 0.4085
vn -0.5408 0.4555 0.7071
vn 0.2132 0.8877 0.4081
vn -0.8379 -0.3621 0.4084
vt 0.375000 0.750000
vt 0.375000 0.500000
vt 0.125000 0.500000
vt 0.125000 0.750000
vt 0.625000 0.500000
vt 0.625000 0.750000
vt 0.625000 0.250000
vt 0.375000 0.250000
vt 0.375000 0.000000
vt 0.625000 0.000000
vt 0.875000 0.500000
vt 0.875000 0.750000
vt 0.625000 1.000000
vt 0.375000 1.000000
vt 0.375000 0.863516
vt 0.750000 0.835911
vt 0.625000 0.835911
vt 0.375000 0.386484
vt 0.261484 0.750000
vt 0.261484 0.500000
vt 0.375000 0.835911
vt 0.250000 0.835911
vt 0.125000 0.835911
vt 0.500000 0.835911
vt 0.875000 0.835911
vt 1.000000 0.835911
vt 0.000000 0.835911
s 1
f 205/1/1 206/1/2 203/1/3 199/1/4
f 206/1/2 205/1/1 200/1/5 204/1/6
f 206/1/2 207/2/7 195/2/8 203/1/3
f 207/2/7 206/1/2 204/1/6 196/2/9
f 207/2/7 208/2/10 201/2/11 195/2/8
f 208/2/10 207/2/7 196/2/9 202/2/12
f 208/2/10 205/1/1 199/1/4 201/2/11
f 205/1/1 208/2/10 202/2/12 200/1/5
f 209/3/13 210/2/14 121/2/15 119/3/16
f 210/2/14 209/3/13 120/3/17 122/2/18
f 210/2/14 211/1/19 115/1/20 121/2/15
f 211/1/19 210/2/14 122/2/18 116/1/21
f 211/1/19 212/4/22 117/4/23 115/1/20
f 212/4/22 211/1/19 116/1/21 118/4/24
f 212/4/22 209/3/13 119/3/16 117/4/23
f 209/3/13 212/4/22 118/4/24 120/3/17
f 213/2/13 214/5/14 7/5/15 3/2/16
f 214/5/14 213/2/13 4/2/25 8/5/18
f 214/5/14 215/6/19 5/6/20 7/5/15
f 215/6/19 214/5/14 8/5/18 6/6/21
f 215/6/19 216/1/22 1/1/23 5/6/20
f 216/1/22 215/6/19 6/6/21 2/1/24
f 216/1/22 213/2/13 3/2/16 1/1/23
f 213/2/13 216/1/22 2/1/24 4/2/25
f 217/7/26 218/8/27 23/8/28 21/7/29
f 218/8/27 217/7/26 22/7/30 24/8/31
f 218/8/27 219/9/32 17/9/33 23/8/28
f 219/9/32 218/8/27 24/8/31 18/9/34
f 219/9/32 220/10/35 19/10/36 17/9/33
f 220/10/35 219/9/32 18/9/34 20/10/37
f 220/10/35 217/7/26 21/7/29 19/10/36
f 217/7/26 220/10/35 20/10/37 22/7/30
f 221/6/38 222/5/39 43/5/40 41/6/41
f 222/5/39 221/6/38 42/6/42 44/5/43
f 222/5/39 223/5/44 37/5/45 43/5/40
f 223/5/44 222/5/39 44/5/43 38/5/46
f 223/5/44 224/6/47 35/6/48 37/5/45
f 224/6/47 223/5/44 38/5/46 36/6/49
f 224/6/47 221/6/38 41/6/41 35/6/48
f 221/6/38 224/6/47 36/6/49 42/6/42
f 225/5/50 226/11/51 39/11/52 37/5/45
f 226/11/51 225/5/50 38/5/46 40/11/53
f 226/11/51 227/12/54 33/12/55 39/11/52
f 227/12/54 226/11/51 40/11/53 34/12/56
f 227/12/54 228/6/57 35/6/48 33/12/55
f 228/6/57 227/12/54 34/12/56 36/6/49
f 228/6/57 225/5/50 37/5/45 35/6/48
f 225/5/50 228/6/57 36/6/49 38/5/46
f 229/6/58 230/13/59 59/13/60 63/6/61
f 230/13/59 229/6/58 64/6/62 60/13/63
f 230/13/59 231/14/64 65/14/65 59/13/60
f 231/14/64 230/13/59 60/13/63 66/14/66
f 231/14/64 232/15/67 61/15/68 65/14/65
f 232/15/67 231/14/64 66/14/66 62/15/69
f 232/15/67 233/1/70 67/1/71 61/15/68
f 233/1/70 232/15/67 62/15/69 68/1/72
f 233/1/70 234/1/73 71/1/74 67/1/71
f 234/1/73 233/1/70 68/1/72 72/1/75
f 234/1/73 235/6/76 69/6/77 71/1/74
f 235/6/76 234/1/73 72/1/75 70/6/78
f 235/6/76 229/6/58 63/6/61 69/6/77
f 229/6/58 235/6/76 70/6/78 64/6/62
f 236/16/79 237/16/80 165/16/81 161/16/82
f 237/16/80 236/16/79 162/16/83 166/16/84
f 237/16/80 238/17/85 153/17/86 165/16/81
f 238/17/85 237/16/80 166/16/84 154/17/87
f 238/17/85 239/17/88 157/17/89 153/17/86
f 239/17/88 238/17/85 154/17/87 158/17/90
f 239/17/88 236/16/79 161/16/82 157/17/89
f 236/16/79 239/17/88 158/17/90 162/16/83
f 240/1/91 241/6/92 73/6/93 71/1/74
f 241/6/92 240/1/91 72/1/75 74/6/94
f 241/6/92 242/6/95 69/6/77 73/6/93
f 242/6/95 241/6/92 74/6/94 70/6/78
f 242/6/95 240/1/91 71/1/74 69/6/77
f 240/1/91 242/6/95 70/6/78 72/1/75
f 243/6/96 244/1/97 71/1/74 73/6/93
f 244/1/97 243/6/96 74/6/94 72/1/75
f 244/1/97 245/1/98 75/1/99 71/1/74
f 245/1/98 244/1/97 72/1/75 76/1/100
f 245/1/98 243/6/96 73/6/93 75/1/99
f 243/6/96 245/1/98 76/1/100 74/6/94
f 246/5/101 247/2/102 89/2/103 87/5/104
f 247/2/102 246/5/101 88/5/105 90/2/106
f 247/2/102 248/2/107 85/2/108 89/2/103
f 248/2/107 247/2/102 90/2/106 86/2/109
f 248/2/107 249/18/110 79/18/111 85/2/108
f 249/18/110 248/2/107 86/2/109 80/18/112
f 249/18/110 250/8/113 81/8/114 79/18/111
f 250/8/113 249/18/110 80/18/112 82/8/115
f 250/8/113 251/7/116 77/7/117 81/8/114
f 251/7/116 250/8/113 82/8/115 78/7/118
f 251/7/116 252/5/119 83/5/120 77/7/117
f 252/5/119 251/7/116 78/7/118 84/5/121
f 252/5/119 246/5/101 87/5/104 83/5/120
f 246/5/101 252/5/119 84/5/121 88/5/105
f 253/6/122 254/5/123 57/5/124 53/6/125
f 254/5/123 253/6/122 54/6/126 58/5/127
f 254/5/123 255/5/128 55/5/129 57/5/124
f 255/5/128 254/5/123 58/5/127 56/5/130
f 255/5/128 256/6/131 51/6/132 55/5/129
f 256/6/131 255/5/128 56/5/130 52/6/133
f 256/6/131 253/6/122 53/6/125 51/6/132
f 253/6/122 256/6/131 52/6/133 54/6/126
f 257/5/134 258/2/135 89/2/103 91/5/136
f 258/2/135 257/5/134 92/5/137 90/2/106
f 258/2/135 259/5/138 87/5/104 89/2/103
f 259/5/138 258/2/135 90/2/106 88/5/105
f 259/5/138 257/5/134 91/5/136 87/5/104
f 257/5/134 259/5/138 88/5/105 92/5/137
f 260/2/139 261/2/140 89/2/103 93/2/141
f 261/2/140 260/2/139 94/2/142 90/2/106
f 261/2/140 262/5/143 91/5/136 89/2/103
f 262/5/143 261/2/140 90/2/106 92/5/137
f 262/5/143 260/2/139 93/2/141 91/5/136
f 260/2/139 262/5/143 92/5/137 94/2/142
f 263/1/144 264/6/145 97/6/146 101/1/147
f 264/6/145 263/1/144 102/1/148 98/6/149
f 264/6/145 265/6/150 99/6/151 97/6/146
f 265/6/150 264/6/145 98/6/149 100/6/152
f 265/6/150 266/13/153 95/13/154 99/6/151
f 266/13/153 265/6/150 100/6/152 96/13/155
f 266/13/153 267/14/156 103/14/157 95/13/154
f 267/14/156 266/13/153 96/13/155 104/14/158
f 267/14/156 263/1/144 101/1/147 103/14/157
f 263/1/144 267/14/156 104/14/158 102/1/148
f 268/19/159 269/4/160 191/4/161 185/19/162
f 269/4/160 268/19/159 186/19/163 192/4/164
f 269/4/160 270/3/165 189/3/166 191/4/161
f 270/3/165 269/4/160 192/4/164 190/3/167
f 270/3/165 271/20/168 187/20/169 189/3/166
f 271/20/168 270/3/165 190/3/167 188/20/170
f 271/20/168 268/19/159 185/19/162 187/20/169
f 268/19/159 271/20/168 188/20/170 186/19/163
f 272/7/171 273/5/172 109/5/173 107/7/174
f 273/5/172 272/7/171 108/7/175 110/5/176
f 273/5/172 274/5/177 105/5/178 109/5/173
f 274/5/177 273/5/172 110/5/176 106/5/179
f 274/5/177 275/2/180 111/2/181 105/5/178
f 275/2/180 274/5/177 106/5/179 112/2/182
f 275/2/180 276/8/183 113/8/184 111/2/181
f 276/8/183 275/2/180 112/2/182 114/8/185
f 276/8/183 272/7/171 107/7/174 113/8/184
f 272/7/171 276/8/183 114/8/185 108/7/175
f 277/7/186 278/8/187 31/8/188 25/7/189
f 278/8/187 277/7/186 26/7/190 32/8/191
f 278/8/187 279/9/192 27/9/193 31/8/188
f 279/9/192 278/8/187 32/8/191 28/9/194
f 279/9/192 280/10/195 29/10/196 27/9/193
f 280/10/195 279/9/192 28/9/194 30/10/197
f 280/10/195 277/7/186 25/7/189 29/10/196
f 277/7/186 280/10/195 30/10/197 26/7/190
f 281/21/198 282/22/199 163/22/200 147/21/201
f 282/22/199 281/21/198 148/21/202 164/22/203
f 282/22/199 283/22/204 159/22/205 163/22/200
f 283/22/204 282/22/199 164/22/203 160/22/206
f 283/22/204 284/21/207 155/21/208 159/22/205
f 284/21/207 283/22/204 160/22/206 156/21/209
f 284/21/207 281/21/198 147/21/201 155/21/208
f 281/21/198 284/21/207 156/21/209 148/21/202
f 285/23/210 286/22/211 127/22/212 125/23/213
f 286/22/211 285/23/210 126/23/214 128/22/215
f 286/22/211 287/21/216 123/21/217 127/22/212
f 287/21/216 286/22/211 128/22/215 124/21/218
f 287/21/216 288/24/219 131/24/220 123/21/217
f 288/24/219 287/21/216 124/21/218 132/24/221
f 288/24/219 289/17/222 129/17/223 131/24/220
f 289/17/222 288/24/219 132/24/221 130/17/224
f 289/17/222 290/16/225 135/16/226 129/17/223
f 290/16/225 289/17/222 130/17/224 136/16/227
f 290/16/225 291/25/228 133/25/229 135/16/226
f 291/25/228 290/16/225 136/16/227 134/25/230
f 291/25/228 292/26/231 137/26/232 133/25/229
f 292/26/231 291/25/228 134/25/230 138/26/233
f 292/26/231 285/23/210 125/23/213 137/26/232
f 285/23/210 292/26/231 138/26/233 126/23/214
f 293/23/234 294/23/235 171/23/236 167/23/237
f 294/23/235 293/23/234 168/23/238 172/23/239
f 294/23/235 295/22/240 159/22/205 171/23/236
f 295/22/240 294/23/235 172/23/239 160/22/206
f 295/22/240 296/22/241 163/22/200 159/22/205
f 296/22/241 295/22/240 160/22/206 164/22/203
f 296/22/241 293/23/234 167/23/237 163/22/200
f 293/23/234 296/22/241 164/22/203 168/23/238
f 297/1/242 298/1/243 183/1/244 197/1/245
f 298/1/243 297/1/242 198/1/246 184/1/247
f 298/1/243 299/2/248 193/2/249 183/1/244
f 299/2/248 298/1/243 184/1/247 194/2/250
f 299/2/248 300/2/251 195/2/252 193/2/249
f 300/2/251 299/2/248 194/2/250 196/2/253
f 300/2/251 297/1/242 197/1/245 195/2/252
f 297/1/242 300/2/251 196/2/253 198/1/246
f 301/20/254 302/2/255 193/2/249 187/20/169
f 302/2/255 301/20/254 188/20/170 194/2/250
f 302/2/255 303/1/256 183/1/244 193/2/249
f 303/1/256 302/2/255 194/2/250 184/1/247
f 303/1/256 304/19/257 185/19/162 183/1/244
f 304/19/257 303/1/256 184/1/247 186/19/163
f 304/19/257 301/20/254 187/20/169 185/19/162
f 301/20/254 304/19/257 186/19/163 188/20/170
f 305/21/258 306/21/259 155/21/208 147/21/201
f 306/21/259 305/21/258 148/21/202 156/21/209
f 306/21/259 307/24/260 149/24/261 155/21/208
f 307/24/260 306/21/259 156/21/209 150/24/262
f 307/24/260 308/24/263 151/24/264 149/24/261
f 308/24/263 307/24/260 150/24/262 152/24/265
f 308/24/263 305/21/258 147/21/201 151/24/264
f 305/21/258 308/24/263 152/24/265 148/21/202
f 309/25/266 310/25/267 169/25/268 177/25/269
f 310/25/267 309/25/266 178/25/270 170/25/271
f 310/25/267 311/16/272 165/16/81 169/25/268
f 311/16/272 310/25/267 170/25/271 166/16/84
f 311/16/272 312/16/273 161/16/82 165/16/81
f 312/16/273 311/16/272 166/16/84 162/16/83
f 312/16/273 309/25/266 177/25/269 161/16/82
f 309/25/266 312/16/273 162/16/83 178/25/270
f 313/6/274 314/5/275 49/5/276 45/6/277
f 314/5/275 313/6/274 46/6/278 50/5/279
f 314/5/275 315/5/280 43/5/281 49/5/276
f 315/5/280 314/5/275 50/5/279 44/5/282
f 315/5/280 316/6/283 47/6/284 43/5/281
f 316/6/283 315/5/280 44/5/282 48/6/285
f 316/6/283 313/6/274 45/6/277 47/6/284
f 313/6/274 316/6/283 48/6/285 46/6/278
f 317/5/286 318/11/287 15/11/288 13/5/289
f 318/11/287 317/5/286 14/5/290 16/11/291
f 318/11/287 319/12/292 9/12/293 15/11/288
f 319/12/292 318/11/287 16/11/291 10/12/294
f 319/12/292 320/6/295 11/6/296 9/12/293
f 320/6/295 319/12/292 10/12/294 12/6/297
f 320/6/295 317/5/286 13/5/289 11/6/296
f 317/5/286 320/6/295 12/6/297 14/5/290
f 321/24/298 322/17/299 157/17/89 149/24/261
f 322/17/299 321/24/298 150/24/262 158/17/90
f 322/17/299 323/17/300 153/17/86 157/17/89
f 323/17/300 322/17/299 158/17/90 154/17/87
f 323/17/300 324/24/301 151/24/264 153/17/86
f 324/24/301 323/17/300 154/17/87 152/24/265
f 324/24/301 321/24/298 149/24/261 151/24/264
f 321/24/298 324/24/301 152/24/265 150/24/262
f 325/23/302 326/27/303 175/27/304 167/23/237
f 326/27/303 325/23/302 168/23/238 176/27/305
f 326/27/303 327/27/306 173/27/307 175/27/304
f 327/27/306 326/27/303 176/27/305 174/27/308
f 327/27/306 328/23/309 171/23/236 173/27/307
f 328/23/309 327/27/306 174/27/308 172/23/239
f 328/23/309 325/23/302 167/23/237 171/23/236
f 325/23/302 328/23/309 172/23/239 168/23/238
f 329/26/310 330/26/311 181/26/312 179/26/313
f 330/26/311 329/26/310 180/26/314 182/26/315
f 330/26/311 331/25/316 169/25/268 181/26/312
f 331/25/316 330/26/311 182/26/315 170/25/271
f 331/25/316 332/25/317 177/25/269 169/25/268
f 332/25/317 331/25/316 170/25/271 178/25/270
f 332/25/317 329/26/310 179/26/313 177/25/269
f 329/26/310 332/25/317 178/25/270 180/26/314
f 333/2/318 334/5/319 145/5/320 143/2/321
f 334/5/319 333/2/318 144/2/322 146/5/323
f 334/5/319 335/6/324 139/6/325 145/5/320
f 335/6/324 334/5/319 146/5/323 140/6/326
f 335/6/324 336/1/327 141/1/328 139/6/325
f 336/1/327 335/6/324 140/6/326 142/1/329
f 336/1/327 333/2/318 143/2/321 141/1/328
f 333/2/318 336/1/327 142/1/329 144/2/322
o RenderMesh_14246425725
v -0.020089 0.027182 0.059841
v -0.020089 0.027182 0.061841
v -0.064909 0.027182 0.059841
v -0.064909 0.027182 0.061841
v -0.042499 0.017898 0.059841
v -0.042499 0.017898 0.061841
v -0.010807 0.049592 0.059841
v -0.010807 0.049592 0.061841
v -0.042499 0.081284 0.059841
v -0.042499 0.081284 0.061841
v -0.020089 0.072001 0.059841
v -0.020089 0.072001 0.061841
v -0.064909 0.072001 0.059841
v -0.064909 0.072001 0.061841
v -0.074192 0.049592 0.059841
v -0.074192 0.049592 0.061841
v -0.010807 0.049592 -0.059841
v -0.010807 0.049592 -0.061841
v -0.042499 0.081284 -0.059841
v -0.042499 0.081284 -0.061841
v -0.020089 0.072001 -0.059841
v -0.020089 0.072001 -0.061841
v -0.064909 0.027182 -0.059841
v -0.064909 0.027182 -0.061841
v -0.020089 0.027182 -0.059841
v -0.020089 0.027182 -0.061841
v -0.042499 0.017898 -0.059841
v -0.042499 0.017898 -0.061841
v -0.064909 0.072001 -0.059841
v -0.064909 0.072001 -0.061841
v -0.074192 0.049592 -0.059841
v -0.074192 0.049592 -0.061841
v -0.020089 0.072001 0.059841
v -0.018675 0.073415 0.059841
v -0.020089 0.072001 -0.059841
v -0.018675 0.073415 -0.059841
v -0.042499 0.081284 -0.059841
v -0.042499 0.083284 -0.059841
v -0.010807 0.049592 0.059841
v -0.008807 0.049592 0.059841
v -0.042499 0.081284 0.059841
v -0.042499 0.083284 0.059841
v -0.010807 0.049592 -0.059841
v -0.008807 0.049592 -0.059841
v -0.064909 0.072001 -0.059841
v -0.066323 0.073415 -0.059841
v -0.020089 0.027182 0.059841
v -0.018675 0.025768 0.059841
v -0.064909 0.072001 0.059841
v -0.066323 0.073415 0.059841
v -0.020089 0.027182 -0.059841
v -0.018675 0.025768 -0.059841
v -0.074192 0.049592 -0.059841
v -0.076192 0.049592 -0.059841
v -0.042499 0.017898 0.059841
v -0.042499 0.015898 0.059841
v -0.074192 0.049592 0.059841
v -0.076192 0.049592 0.059841
v -0.042499 0.017898 -0.059841
v -0.042499 0.015898 -0.059841
v -0.064909 0.027182 -0.059841
v -0.066323 0.025768 -0.059841
v -0.064909 0.027182 0.059841
v -0.066323 0.025768 0.059841
v 0.064911 -0.072001 0.049379
v 0.064911 -0.072001 0.051379
v 0.020091 -0.072001 0.049379
v 0.020091 -0.072001 0.051379
v 0.042501 -0.081284 0.049379
v 0.042501 -0.081284 0.051379
v 0.074193 -0.049590 0.049379
v 0.074193 -0.049590 0.051379
v 0.042501 -0.017898 0.049379
v 0.042501 -0.017898 0.051379
v 0.064911 -0.027180 0.049379
v 0.064911 -0.027180 0.051379
v 0.020091 -0.027180 0.049379
v 0.020091 -0.027180 0.051379
v 0.010808 -0.049590 0.049379
v 0.010808 -0.049590 0.051379
v 0.074193 -0.049590 -0.049388
v 0.074193 -0.049590 -0.051388
v 0.042501 -0.017898 -0.049388
v 0.042501 -0.017898 -0.051388
v 0.064911 -0.027180 -0.049388
v 0.064911 -0.027180 -0.051388
v 0.020091 -0.072001 -0.049388
v 0.020091 -0.072001 -0.051388
v 0.064911 -0.072001 -0.049388
v 0.064911 -0.072001 -0.051388
v 0.042501 -0.081284 -0.049388
v 0.042501 -0.081284 -0.051388
v 0.020091 -0.027180 -0.049388
v 0.020091 -0.027180 -0.051388
v 0.010808 -0.049590 -0.049388
v 0.010808 -0.049590 -0.051388
v 0.064911 -0.027180 0.049379
v 0.066325 -0.025766 0.049379
v 0.064911 -0.027180 -0.049388
v 0.066325 -0.025766 -0.049388
v 0.042501 -0.017898 -0.049388
v 0.042501 -0.015898 -0.049388
v 0.074193 -0.049590 0.049379
v 0.076193 -0.049590 0.049379
v 0.042501 -0.017898 0.049379
v 0.042501 -0.015898 0.049379
v 0.074193 -0.049590 -0.049388
v 0.076193 -0.049590 -0.049388
v 0.020091 -0.027180 -0.049388
v 0.018677 -0.025766 -0.049388
v 0.064911 -0.072001 0.049379
v 0.066325 -0.073415 0.049379
v 0.020091 -0.027180 0.049379
v 0.018677 -0.025766 0.049379
v 0.064911 -0.072001 -0.049388
v 0.066325 -0.073415 -0.049388
v 0.010808 -0.049590 -0.049388
v 0.008808 -0.049590 -0.049388
v 0.042501 -0.081284 0.049379
v 0.042501 -0.083284 0.049379
v 0.010808 -0.049590 0.049379
v 0.008808 -0.049590 0.049379
v 0.042501 -0.081284 -0.049388
v 0.042501 -0.083284 -0.049388
v 0.020091 -0.072001 -0.049388
v 0.018677 -0.073415 -0.049388
v 0.020091 -0.072001 0.049379
v 0.018677 -0.073415 0.049379
v -0.025116 0.026182 0.060841
v -0.059882 0.026182 0.060841
v -0.042499 0.018980 0.060841
v -0.012655 0.047744 0.060841
v -0.059882 0.028182 0.060841
v -0.020757 0.028182 0.060841
v -0.063061 0.029030 0.060841
v -0.012572 0.049943 0.060841
v -0.042148 0.079519 0.060841
v -0.038237 0.078436 0.060841
v -0.013655 0.053854 0.060841
v -0.020854 0.071236 0.060841
v -0.063909 0.071333 0.060841
v -0.063909 0.032209 0.060841
v -0.044347 0.079436 0.060841
v -0.065909 0.032209 0.060841
v -0.065909 0.066974 0.060841
v -0.073110 0.049592 0.060841
v -0.013655 0.053854 -0.060841
v -0.038237 0.078436 -0.060841
v -0.020854 0.071236 -0.060841
v -0.042148 0.079519 -0.060841
v -0.012572 0.049943 -0.060841
v -0.063061 0.029030 -0.060841
v -0.059882 0.028182 -0.060841
v -0.012655 0.047744 -0.060841
v -0.020757 0.028182 -0.060841
v -0.025116 0.026182 -0.060841
v -0.042499 0.018980 -0.060841
v -0.059882 0.026182 -0.060841
v -0.063909 0.032209 -0.060841
v -0.063909 0.071333 -0.060841
v -0.044347 0.079436 -0.060841
v -0.065909 0.066974 -0.060841
v -0.065909 0.032209 -0.060841
v -0.073110 0.049592 -0.060841
v -0.020306 0.073091 0.049873
v -0.020306 0.073091 -0.058841
v -0.041369 0.081816 -0.058841
v -0.018999 0.071784 -0.049872
v -0.018999 0.071784 0.058841
v -0.010275 0.050722 0.058841
v -0.041575 0.081901 -0.049873
v -0.041575 0.081901 0.058841
v -0.020512 0.073176 0.058841
v -0.010190 0.050516 0.049872
v -0.010190 0.050516 -0.058841
v -0.018914 0.071578 -0.058841
v -0.043423 0.081901 0.049873
v -0.043423 0.081901 -0.058841
v -0.064486 0.073176 -0.058841
v -0.010190 0.048668 -0.049873
v -0.010190 0.048668 0.058841
v -0.018914 0.027605 0.058841
v -0.064692 0.073091 -0.049873
v -0.064692 0.073091 0.058841
v -0.043629 0.081816 0.058841
v -0.018999 0.027399 0.049873
v -0.018999 0.027399 -0.058841
v -0.010275 0.048462 -0.058841
v -0.065999 0.071784 0.049872
v -0.065999 0.071784 -0.058841
v -0.074724 0.050722 -0.058841
v -0.020306 0.026092 -0.049873
v -0.020306 0.026092 0.058841
v -0.041369 0.017366 0.058841
v -0.074809 0.050516 -0.049872
v -0.074809 0.050516 0.058841
v -0.066084 0.071578 0.058841
v -0.041575 0.017281 0.049873
v -0.041575 0.017281 -0.058841
v -0.020512 0.026007 -0.058841
v -0.074809 0.048668 0.049873
v -0.074809 0.048668 -0.058841
v -0.066084 0.027605 -0.058841
v -0.043423 0.017281 -0.049873
v -0.043423 0.017281 0.058841
v -0.064486 0.026007 0.058841
v -0.065999 0.027399 -0.049873
v -0.065999 0.027399 0.058841
v -0.074724 0.048462 0.058841
v -0.064692 0.026092 0.049873
v -0.064692 0.026092 -0.058841
v -0.043629 0.017366 -0.058841
v 0.059884 -0.073001 0.050379
v 0.025118 -0.073001 0.050379
v 0.042501 -0.080202 0.050379
v 0.072345 -0.051438 0.050379
v 0.025118 -0.071001 0.050379
v 0.064243 -0.071001 0.050379
v 0.021939 -0.070153 0.050379
v 0.072428 -0.049239 0.050379
v 0.042852 -0.019663 0.050379
v 0.046763 -0.020746 0.050379
v 0.071345 -0.045328 0.050379
v 0.064146 -0.027945 0.050379
v 0.021091 -0.027848 0.050379
v 0.021091 -0.066974 0.050379
v 0.040653 -0.019746 0.050379
v 0.019091 -0.066974 0.050379
v 0.019091 -0.032207 0.050379
v 0.011890 -0.049590 0.050379
v 0.071345 -0.045328 -0.050388
v 0.046763 -0.020746 -0.050388
v 0.064146 -0.027945 -0.050388
v 0.042852 -0.019663 -0.050388
v 0.072428 -0.049239 -0.050388
v 0.021939 -0.070153 -0.050388
v 0.025118 -0.071001 -0.050388
v 0.072345 -0.051438 -0.050388
v 0.064243 -0.071001 -0.050388
v 0.059884 -0.073001 -0.050388
v 0.042501 -0.080202 -0.050388
v 0.025118 -0.073001 -0.050388
v 0.021091 -0.066974 -0.050388
v 0.021091 -0.027848 -0.050388
v 0.040653 -0.019746 -0.050388
v 0.019091 -0.032207 -0.050388
v 0.019091 -0.066974 -0.050388
v 0.011890 -0.049590 -0.050388
v 0.064694 -0.026090 0.041114
v 0.064694 -0.026090 -0.048388
v 0.043679 -0.017386 -0.048388
v 0.066001 -0.027397 -0.041123
v 0.066001 -0.027397 0.048379
v 0.074705 -0.048412 0.048379
v 0.043425 -0.017281 -0.041123
v 0.043425 -0.017281 0.048379
v 0.064440 -0.025985 0.048379
v 0.074810 -0.048666 0.041114
v 0.074810 -0.048666 -0.048388
v 0.066106 -0.027651 -0.048388
v 0.041577 -0.017281 0.041114
v 0.041577 -0.017281 -0.048388
v 0.020562 -0.025985 -0.048388
v 0.074810 -0.050514 -0.041124
v 0.074810 -0.050514 0.048379
v 0.066106 -0.071530 0.048379
v 0.020308 -0.026090 -0.041123
v 0.020308 -0.026090 0.048379
v 0.041323 -0.017386 0.048379
v 0.066001 -0.071784 0.041115
v 0.066001 -0.071784 -0.048388
v 0.074705 -0.050768 -0.048388
v 0.019001 -0.027397 0.041114
v 0.019001 -0.027397 -0.048388
v 0.010296 -0.048412 -0.048388
v 0.064694 -0.073091 -0.041123
v 0.064694 -0.073091 0.048379
v 0.043679 -0.081796 0.048379
v 0.010191 -0.048666 -0.041123
v 0.010191 -0.048666 0.048379
v 0.018896 -0.027651 0.048379
v 0.043425 -0.081901 0.041114
v 0.043425 -0.081901 -0.048388
v 0.064440 -0.073196 -0.048388
v 0.010191 -0.050514 0.041115
v 0.010191 -0.050514 -0.048388
v 0.018896 -0.071530 -0.048388
v 0.041577 -0.081901 -0.041123
v 0.041577 -0.081901 0.048379
v 0.020562 -0.073196 0.048379
v 0.019001 -0.071784 -0.041124
v 0.019001 -0.071784 0.048379
v 0.010296 -0.050768 0.048379
v 0.020308 -0.073091 0.041114
v 0.020308 -0.073091 -0.048388
v 0.041323 -0.081796 -0.048388
vn -0.9808 -0.1951 -0.0000
vn 0.9808 -0.1951 -0.0000
vn 0.1492 0.1492 -0.9775
vn -0.3376 0.4529 -0.8252
vn -0.3376 0.4529 0.8252
vn 0.1492 0.1492 0.9775
vn -0.0000 1.0000 -0.0000
vn -0.0000 0.6786 -0.7345
vn -0.0000 0.6786 0.7345
vn -0.7071 -0.7071 -0.0000
vn 0.9808 0.1951 -0.0000
vn -0.3512 -0.0101 -0.9362
vn -0.3512 -0.0101 0.9362
vn -0.5556 0.8315 -0.0000
vn 0.7071 0.7071 -0.0000
vn -0.9808 0.1951 -0.0000
vn 0.1951 -0.9808 -0.0000
vn -0.0101 -0.3512 -0.9362
vn -0.0101 -0.3512 0.9362
vn 0.8315 -0.5556 -0.0000
vn -0.4798 -0.4798 -0.7345
vn -0.4798 -0.4798 0.7345
vn 0.1951 0.9808 -0.0000
vn 0.4529 -0.3376 -0.8252
vn 0.4529 -0.3376 0.8252
vn -0.1951 0.9808 -0.0000
vn -0.1951 -0.9808 -0.0000
vn 1.0000 -0.0000 -0.0000
vn 0.6786 -0.0000 -0.7345
vn 0.6786 -0.0000 0.7345
vn 0.0808 0.7327 -0.6757
vn -0.5914 0.4310 0.6815
vn -0.6974 -0.5862 0.4123
vn -0.5862 -0.6974 -0.4123
vn 0.6485 0.6588 -0.3813
vn 0.6588 0.6485 0.3813
vn 0.7304 -0.2600 0.6316
vn -0.0787 -0.9076 0.4123
vn 0.0073 0.9244 0.3813
vn 0.7327 0.0808 0.6757
vn 0.4310 -0.5915 -0.6815
vn -0.2600 0.7304 -0.6316
vn -0.9076 -0.0787 -0.4123
vn 0.9244 0.0073 -0.3813
vn 0.4610 0.5753 0.6757
vn 0.7230 -0.1134 -0.6815
vn 0.0786 -0.9076 -0.4123
vn -0.0073 0.9244 -0.3813
vn -0.7003 0.3326 -0.6316
vn 0.5753 0.4610 -0.6757
vn -0.1134 0.7230 0.6815
vn -0.9076 0.0786 0.4123
vn 0.9244 -0.0073 0.3813
vn 0.3326 -0.7003 0.6316
vn -0.4610 0.5753 -0.6757
vn -0.7230 -0.1134 0.6815
vn 0.7003 0.3326 0.6316
vn 0.5862 -0.6974 0.4123
vn -0.6485 0.6588 0.3813
vn 0.5753 -0.4610 0.6757
vn -0.1134 -0.7230 -0.6815
vn 0.3326 0.7003 -0.6316
vn -0.6974 0.5862 -0.4123
vn 0.6588 -0.6485 -0.3813
vn -0.0808 0.7327 0.6757
vn 0.5914 0.4310 -0.6815
vn 0.6974 -0.5862 -0.4123
vn -0.6588 0.6485 -0.3813
vn -0.7304 -0.2600 -0.6316
vn 0.7327 -0.0808 -0.6757
vn 0.4310 0.5915 0.6815
vn -0.5862 0.6974 0.4123
vn 0.6486 -0.6588 0.3813
vn -0.2600 -0.7304 0.6316
vn -0.7327 0.0808 -0.6757
vn -0.4310 -0.5914 0.6815
vn 0.2600 0.7304 0.6316
vn 0.9076 -0.0787 0.4123
vn -0.9244 0.0073 0.3813
vn 0.0808 -0.7327 0.6757
vn -0.5914 -0.4310 -0.6815
vn 0.7304 0.2600 -0.6316
vn -0.0787 0.9076 -0.4123
vn 0.0073 -0.9244 -0.3813
vn -0.5753 0.4610 0.6757
vn 0.1135 0.7230 -0.6815
vn 0.9076 0.0786 -0.4123
vn -0.9244 -0.0073 -0.3813
vn -0.3326 -0.7003 -0.6316
vn 0.4610 -0.5753 -0.6757
vn 0.7230 0.1135 0.6815
vn 0.0787 0.9076 0.4123
vn -0.0073 -0.9244 0.3813
vn -0.7003 -0.3326 0.6316
vn -0.5753 -0.4610 -0.6757
vn 0.1134 -0.7230 0.6815
vn -0.3326 0.7003 0.6316
vn 0.6974 0.5862 0.4123
vn -0.6588 -0.6485 0.3813
vn -0.4610 -0.5753 0.6757
vn -0.7230 0.1135 -0.6815
vn 0.7003 -0.3326 -0.6316
vn 0.5862 0.6974 -0.4123
vn -0.6485 -0.6588 -0.3813
vn -0.7327 -0.0808 0.6757
vn -0.4310 0.5915 -0.6815
vn 0.2600 -0.7304 -0.6316
vn -0.0808 -0.7327 -0.6757
vn 0.5914 -0.4310 0.6815
vn -0.7304 0.2600 0.6316
vn 0.0470 0.6756 -0.7358
vn -0.5915 0.4310 0.6815
vn -0.7031 -0.5841 0.4055
vn -0.5841 -0.7031 -0.4055
vn 0.6556 0.6583 -0.3699
vn 0.6583 0.6556 0.3699
vn 0.7427 -0.2647 0.6150
vn -0.0842 -0.9102 0.4055
vn 0.0019 0.9291 0.3699
vn 0.6756 0.0470 0.7358
vn -0.2647 0.7427 -0.6150
vn -0.9102 -0.0842 -0.4055
vn 0.9291 0.0019 -0.3699
vn 0.4444 0.5110 0.7358
vn 0.0842 -0.9102 -0.4055
vn -0.0019 0.9291 -0.3699
vn -0.7124 0.3380 -0.6150
vn 0.5110 0.4444 -0.7358
vn -0.9102 0.0842 0.4055
vn 0.9291 -0.0019 0.3699
vn 0.3380 -0.7124 0.6150
vn -0.4444 0.5110 -0.7358
vn 0.7124 0.3380 0.6150
vn 0.5841 -0.7032 0.4055
vn -0.6556 0.6583 0.3699
vn 0.5109 -0.4444 0.7358
vn 0.3380 0.7124 -0.6150
vn -0.7032 0.5841 -0.4055
vn 0.6583 -0.6556 -0.3699
vn -0.0470 0.6755 0.7358
vn 0.5915 0.4310 -0.6815
vn 0.7031 -0.5841 -0.4055
vn -0.6583 0.6557 -0.3699
vn -0.7427 -0.2647 -0.6150
vn 0.6755 -0.0470 -0.7358
vn -0.5841 0.7031 0.4055
vn 0.6557 -0.6583 0.3699
vn -0.2647 -0.7427 0.6150
vn -0.6756 0.0471 -0.7358
vn 0.2647 0.7427 0.6150
vn 0.9102 -0.0842 0.4055
vn -0.9291 0.0019 0.3699
vn 0.0470 -0.6756 0.7358
vn 0.7427 0.2647 -0.6150
vn -0.0842 0.9102 -0.4055
vn 0.0019 -0.9291 -0.3699
vn -0.5109 0.4444 0.7358
vn 0.9102 0.0842 -0.4055
vn -0.9291 -0.0019 -0.3699
vn -0.3380 -0.7124 -0.6150
vn 0.4444 -0.5110 -0.7358
vn 0.7230 0.1134 0.6815
vn 0.0842 0.9102 0.4055
vn -0.0019 -0.9291 0.3699
vn -0.7124 -0.3380 0.6150
vn -0.5109 -0.4444 -0.7358
vn -0.3380 0.7124 0.6150
vn 0.7032 0.5841 0.4055
vn -0.6583 -0.6556 0.3699
vn -0.4444 -0.5110 0.7358
vn -0.7230 0.1134 -0.6815
vn 0.7124 -0.3380 -0.6150
vn 0.5841 0.7031 -0.4055
vn -0.6556 -0.6583 -0.3699
vn -0.6755 -0.0470 0.7358
vn 0.2647 -0.7427 -0.6150
vn -0.0470 -0.6756 -0.7358
vn -0.7427 0.2647 0.6150
vt 0.000000 0.000000
s 1
f 465/28/330 466/28/331 339/28/332 337/28/333
f 466/28/331 465/28/330 338/28/334 340/28/335
f 466/28/331 467/28/336 341/28/337 339/28/332
f 467/28/336 466/28/331 340/28/335 342/28/338
f 467/28/336 465/28/330 337/28/333 341/28/337
f 465/28/330 467/28/336 342/28/338 338/28/334
f 468/28/339 469/28/340 339/28/332 343/28/341
f 469/28/340 468/28/339 344/28/342 340/28/335
f 469/28/340 470/28/343 337/28/333 339/28/332
f 470/28/343 469/28/340 340/28/335 338/28/334
f 470/28/343 468/28/339 343/28/341 337/28/333
f 468/28/339 470/28/343 338/28/334 344/28/342
f 471/28/344 472/28/345 343/28/341 339/28/332
f 472/28/345 471/28/344 340/28/335 344/28/342
f 472/28/345 473/28/346 345/28/347 343/28/341
f 473/28/346 472/28/345 344/28/342 346/28/348
f 473/28/346 471/28/344 339/28/332 345/28/347
f 471/28/344 473/28/346 346/28/348 340/28/335
f 474/28/349 475/28/343 343/28/341 345/28/347
f 475/28/343 474/28/349 346/28/348 344/28/342
f 475/28/343 476/28/339 347/28/350 343/28/341
f 476/28/339 475/28/343 344/28/342 348/28/351
f 476/28/339 474/28/349 345/28/347 347/28/350
f 474/28/349 476/28/339 348/28/351 346/28/348
f 477/28/349 478/28/352 339/28/332 349/28/353
f 478/28/352 477/28/349 350/28/354 340/28/335
f 478/28/352 479/28/339 345/28/347 339/28/332
f 479/28/339 478/28/352 340/28/335 346/28/348
f 479/28/339 477/28/349 349/28/353 345/28/347
f 477/28/349 479/28/339 346/28/348 350/28/354
f 480/28/355 481/28/356 349/28/353 339/28/332
f 481/28/356 480/28/355 340/28/335 350/28/354
f 481/28/356 482/28/357 351/28/358 349/28/353
f 482/28/357 481/28/356 350/28/354 352/28/359
f 482/28/357 480/28/355 339/28/332 351/28/358
f 480/28/355 482/28/357 352/28/359 340/28/335
f 483/28/343 484/28/349 355/28/348 353/28/342
f 484/28/349 483/28/343 354/28/341 356/28/347
f 484/28/349 485/28/339 357/28/351 355/28/348
f 485/28/339 484/28/349 356/28/347 358/28/350
f 485/28/339 483/28/343 353/28/342 357/28/351
f 483/28/343 485/28/339 358/28/350 354/28/341
f 486/28/346 487/28/345 353/28/342 355/28/348
f 487/28/345 486/28/346 356/28/347 354/28/341
f 487/28/345 488/28/344 359/28/335 353/28/342
f 488/28/344 487/28/345 354/28/341 360/28/332
f 488/28/344 486/28/346 355/28/348 359/28/335
f 486/28/346 488/28/344 360/28/332 356/28/347
f 489/28/340 490/28/339 353/28/342 359/28/335
f 490/28/339 489/28/340 360/28/332 354/28/341
f 490/28/339 491/28/343 361/28/334 353/28/342
f 491/28/343 490/28/339 354/28/341 362/28/333
f 491/28/343 489/28/340 359/28/335 361/28/334
f 489/28/340 491/28/343 362/28/333 360/28/332
f 492/28/330 493/28/336 363/28/338 361/28/334
f 493/28/336 492/28/330 362/28/333 364/28/337
f 493/28/336 494/28/331 359/28/335 363/28/338
f 494/28/331 493/28/336 364/28/337 360/28/332
f 494/28/331 492/28/330 361/28/334 359/28/335
f 492/28/330 494/28/331 360/28/332 362/28/333
f 495/28/352 496/28/349 365/28/354 359/28/335
f 496/28/349 495/28/352 360/28/332 366/28/353
f 496/28/349 497/28/339 355/28/348 365/28/354
f 497/28/339 496/28/349 366/28/353 356/28/347
f 497/28/339 495/28/352 359/28/335 355/28/348
f 495/28/352 497/28/339 356/28/347 360/28/332
f 498/28/356 499/28/355 359/28/335 365/28/354
f 499/28/355 498/28/356 366/28/353 360/28/332
f 499/28/355 500/28/357 367/28/359 359/28/335
f 500/28/357 499/28/355 360/28/332 368/28/358
f 500/28/357 498/28/356 365/28/354 367/28/359
f 498/28/356 500/28/357 368/28/358 366/28/353
f 501/28/360 502/28/361 371/28/362 369/28/363
f 502/28/361 501/28/360 370/28/364 372/28/365
f 502/28/361 503/28/366 373/28/367 371/28/362
f 503/28/366 502/28/361 372/28/365 374/28/368
f 503/28/366 501/28/360 369/28/363 373/28/367
f 501/28/360 503/28/366 374/28/368 370/28/364
f 504/28/369 505/28/370 369/28/363 371/28/362
f 505/28/370 504/28/369 372/28/365 370/28/364
f 505/28/370 506/28/371 375/28/372 369/28/363
f 506/28/371 505/28/370 370/28/364 376/28/373
f 506/28/371 504/28/369 371/28/362 375/28/372
f 504/28/369 506/28/371 376/28/373 372/28/365
f 507/28/374 508/28/375 377/28/376 373/28/367
f 508/28/375 507/28/374 374/28/368 378/28/377
f 508/28/375 509/28/378 369/28/363 377/28/376
f 509/28/378 508/28/375 378/28/377 370/28/364
f 509/28/378 507/28/374 373/28/367 369/28/363
f 507/28/374 509/28/378 370/28/364 374/28/368
f 510/28/379 511/28/380 379/28/381 375/28/372
f 511/28/380 510/28/379 376/28/373 380/28/382
f 511/28/380 512/28/383 371/28/362 379/28/381
f 512/28/383 511/28/380 380/28/382 372/28/365
f 512/28/383 510/28/379 375/28/372 371/28/362
f 510/28/379 512/28/383 372/28/365 376/28/373
f 513/28/384 514/28/385 373/28/367 377/28/376
f 514/28/385 513/28/384 378/28/377 374/28/368
f 514/28/385 515/28/386 381/28/387 373/28/367
f 515/28/386 514/28/385 374/28/368 382/28/388
f 515/28/386 513/28/384 377/28/376 381/28/387
f 513/28/384 515/28/386 382/28/388 378/28/377
f 516/28/389 517/28/390 375/28/372 379/28/381
f 517/28/390 516/28/389 380/28/382 376/28/373
f 517/28/390 518/28/391 383/28/392 375/28/372
f 518/28/391 517/28/390 376/28/373 384/28/393
f 518/28/391 516/28/389 379/28/381 383/28/392
f 516/28/389 518/28/391 384/28/393 380/28/382
f 519/28/394 520/28/395 385/28/396 381/28/387
f 520/28/395 519/28/394 382/28/388 386/28/397
f 520/28/395 521/28/398 377/28/376 385/28/396
f 521/28/398 520/28/395 386/28/397 378/28/377
f 521/28/398 519/28/394 381/28/387 377/28/376
f 519/28/394 521/28/398 378/28/377 382/28/388
f 522/28/399 523/28/400 387/28/401 383/28/392
f 523/28/400 522/28/399 384/28/393 388/28/402
f 523/28/400 524/28/403 379/28/381 387/28/401
f 524/28/403 523/28/400 388/28/402 380/28/382
f 524/28/403 522/28/399 383/28/392 379/28/381
f 522/28/399 524/28/403 380/28/382 384/28/393
f 525/28/404 526/28/405 381/28/387 385/28/396
f 526/28/405 525/28/404 386/28/397 382/28/388
f 526/28/405 527/28/406 389/28/407 381/28/387
f 527/28/406 526/28/405 382/28/388 390/28/408
f 527/28/406 525/28/404 385/28/396 389/28/407
f 525/28/404 527/28/406 390/28/408 386/28/397
f 528/28/409 529/28/410 383/28/392 387/28/401
f 529/28/410 528/28/409 388/28/402 384/28/393
f 529/28/410 530/28/411 391/28/412 383/28/392
f 530/28/411 529/28/410 384/28/393 392/28/413
f 530/28/411 528/28/409 387/28/401 391/28/412
f 528/28/409 530/28/411 392/28/413 388/28/402
f 531/28/414 532/28/415 393/28/416 389/28/407
f 532/28/415 531/28/414 390/28/408 394/28/417
f 532/28/415 533/28/418 385/28/396 393/28/416
f 533/28/418 532/28/415 394/28/417 386/28/397
f 533/28/418 531/28/414 389/28/407 385/28/396
f 531/28/414 533/28/418 386/28/397 390/28/408
f 534/28/419 535/28/420 395/28/421 391/28/412
f 535/28/420 534/28/419 392/28/413 396/28/422
f 535/28/420 536/28/423 387/28/401 395/28/421
f 536/28/423 535/28/420 396/28/422 388/28/402
f 536/28/423 534/28/419 391/28/412 387/28/401
f 534/28/419 536/28/423 388/28/402 392/28/413
f 537/28/424 538/28/425 389/28/407 393/28/416
f 538/28/425 537/28/424 394/28/417 390/28/408
f 538/28/425 539/28/426 397/28/427 389/28/407
f 539/28/426 538/28/425 390/28/408 398/28/428
f 539/28/426 537/28/424 393/28/416 397/28/427
f 537/28/424 539/28/426 398/28/428 394/28/417
f 540/28/429 541/28/430 391/28/412 395/28/421
f 541/28/430 540/28/429 396/28/422 392/28/413
f 541/28/430 542/28/431 399/28/432 391/28/412
f 542/28/431 541/28/430 392/28/413 400/28/433
f 542/28/431 540/28/429 395/28/421 399/28/432
f 540/28/429 542/28/431 400/28/433 396/28/422
f 543/28/434 544/28/435 399/28/432 397/28/427
f 544/28/435 543/28/434 398/28/428 400/28/433
f 544/28/435 545/28/436 393/28/416 399/28/432
f 545/28/436 544/28/435 400/28/433 394/28/417
f 545/28/436 543/28/434 397/28/427 393/28/416
f 543/28/434 545/28/436 394/28/417 398/28/428
f 546/28/437 547/28/438 397/28/427 399/28/432
f 547/28/438 546/28/437 400/28/433 398/28/428
f 547/28/438 548/28/439 395/28/421 397/28/427
f 548/28/439 547/28/438 398/28/428 396/28/422
f 548/28/439 546/28/437 399/28/432 395/28/421
f 546/28/437 548/28/439 396/28/422 400/28/433
f 549/28/330 550/28/331 403/28/332 401/28/333
f 550/28/331 549/28/330 402/28/334 404/28/335
f 550/28/331 551/28/336 405/28/337 403/28/332
f 551/28/336 550/28/331 404/28/335 406/28/338
f 551/28/336 549/28/330 401/28/333 405/28/337
f 549/28/330 551/28/336 406/28/338 402/28/334
f 552/28/339 553/28/340 403/28/332 407/28/341
f 553/28/340 552/28/339 408/28/342 404/28/335
f 553/28/340 554/28/343 401/28/333 403/28/332
f 554/28/343 553/28/340 404/28/335 402/28/334
f 554/28/343 552/28/339 407/28/341 401/28/333
f 552/28/339 554/28/343 402/28/334 408/28/342
f 555/28/344 556/28/345 407/28/341 403/28/332
f 556/28/345 555/28/344 404/28/335 408/28/342
f 556/28/345 557/28/346 409/28/347 407/28/341
f 557/28/346 556/28/345 408/28/342 410/28/348
f 557/28/346 555/28/344 403/28/332 409/28/347
f 555/28/344 557/28/346 410/28/348 404/28/335
f 558/28/349 559/28/343 407/28/341 409/28/347
f 559/28/343 558/28/349 410/28/348 408/28/342
f 559/28/343 560/28/339 411/28/350 407/28/341
f 560/28/339 559/28/343 408/28/342 412/28/351
f 560/28/339 558/28/349 409/28/347 411/28/350
f 558/28/349 560/28/339 412/28/351 410/28/348
f 561/28/349 562/28/352 403/28/332 413/28/353
f 562/28/352 561/28/349 414/28/354 404/28/335
f 562/28/352 563/28/339 409/28/347 403/28/332
f 563/28/339 562/28/352 404/28/335 410/28/348
f 563/28/339 561/28/349 413/28/353 409/28/347
f 561/28/349 563/28/339 410/28/348 414/28/354
f 564/28/355 565/28/356 413/28/353 403/28/332
f 565/28/356 564/28/355 404/28/335 414/28/354
f 565/28/356 566/28/357 415/28/358 413/28/353
f 566/28/357 565/28/356 414/28/354 416/28/359
f 566/28/357 564/28/355 403/28/332 415/28/358
f 564/28/355 566/28/357 416/28/359 404/28/335
f 567/28/343 568/28/349 419/28/348 417/28/342
f 568/28/349 567/28/343 418/28/341 420/28/347
f 568/28/349 569/28/339 421/28/351 419/28/348
f 569/28/339 568/28/349 420/28/347 422/28/350
f 569/28/339 567/28/343 417/28/342 421/28/351
f 567/28/343 569/28/339 422/28/350 418/28/341
f 570/28/346 571/28/345 417/28/342 419/28/348
f 571/28/345 570/28/346 420/28/347 418/28/341
f 571/28/345 572/28/344 423/28/335 417/28/342
f 572/28/344 571/28/345 418/28/341 424/28/332
f 572/28/344 570/28/346 419/28/348 423/28/335
f 570/28/346 572/28/344 424/28/332 420/28/347
f 573/28/340 574/28/339 417/28/342 423/28/335
f 574/28/339 573/28/340 424/28/332 418/28/341
f 574/28/339 575/28/343 425/28/334 417/28/342
f 575/28/343 574/28/339 418/28/341 426/28/333
f 575/28/343 573/28/340 423/28/335 425/28/334
f 573/28/340 575/28/343 426/28/333 424/28/332
f 576/28/330 577/28/336 427/28/338 425/28/334
f 577/28/336 576/28/330 426/28/333 428/28/337
f 577/28/336 578/28/331 423/28/335 427/28/338
f 578/28/331 577/28/336 428/28/337 424/28/332
f 578/28/331 576/28/330 425/28/334 423/28/335
f 576/28/330 578/28/331 424/28/332 426/28/333
f 579/28/352 580/28/349 429/28/354 423/28/335
f 580/28/349 579/28/352 424/28/332 430/28/353
f 580/28/349 581/28/339 419/28/348 429/28/354
f 581/28/339 580/28/349 430/28/353 420/28/347
f 581/28/339 579/28/352 423/28/335 419/28/348
f 579/28/352 581/28/339 420/28/347 424/28/332
f 582/28/356 583/28/355 423/28/335 429/28/354
f 583/28/355 582/28/356 430/28/353 424/28/332
f 583/28/355 584/28/357 431/28/359 423/28/335
f 584/28/357 583/28/355 424/28/332 432/28/358
f 584/28/357 582/28/356 429/28/354 431/28/359
f 582/28/356 584/28/357 432/28/358 430/28/353
f 585/28/440 586/28/441 435/28/442 433/28/443
f 586/28/441 585/28/440 434/28/444 436/28/445
f 586/28/441 587/28/446 437/28/447 435/28/442
f 587/28/446 586/28/441 436/28/445 438/28/448
f 587/28/446 585/28/440 433/28/443 437/28/447
f 585/28/440 587/28/446 438/28/448 434/28/444
f 588/28/449 589/28/370 433/28/443 435/28/442
f 589/28/370 588/28/449 436/28/445 434/28/444
f 589/28/370 590/28/450 439/28/451 433/28/443
f 590/28/450 589/28/370 434/28/444 440/28/452
f 590/28/450 588/28/449 435/28/442 439/28/451
f 588/28/449 590/28/450 440/28/452 436/28/445
f 591/28/453 592/28/375 441/28/454 437/28/447
f 592/28/375 591/28/453 438/28/448 442/28/455
f 592/28/375 593/28/456 433/28/443 441/28/454
f 593/28/456 592/28/375 442/28/455 434/28/444
f 593/28/456 591/28/453 437/28/447 433/28/443
f 591/28/453 593/28/456 434/28/444 438/28/448
f 594/28/457 595/28/380 443/28/458 439/28/451
f 595/28/380 594/28/457 440/28/452 444/28/459
f 595/28/380 596/28/460 435/28/442 443/28/458
f 596/28/460 595/28/380 444/28/459 436/28/445
f 596/28/460 594/28/457 439/28/451 435/28/442
f 594/28/457 596/28/460 436/28/445 440/28/452
f 597/28/461 598/28/385 437/28/447 441/28/454
f 598/28/385 597/28/461 442/28/455 438/28/448
f 598/28/385 599/28/462 445/28/463 437/28/447
f 599/28/462 598/28/385 438/28/448 446/28/464
f 599/28/462 597/28/461 441/28/454 445/28/463
f 597/28/461 599/28/462 446/28/464 442/28/455
f 600/28/465 601/28/390 439/28/451 443/28/458
f 601/28/390 600/28/465 444/28/459 440/28/452
f 601/28/390 602/28/466 447/28/467 439/28/451
f 602/28/466 601/28/390 440/28/452 448/28/468
f 602/28/466 600/28/465 443/28/458 447/28/467
f 600/28/465 602/28/466 448/28/468 444/28/459
f 603/28/469 604/28/470 449/28/471 445/28/463
f 604/28/470 603/28/469 446/28/464 450/28/472
f 604/28/470 605/28/473 441/28/454 449/28/471
f 605/28/473 604/28/470 450/28/472 442/28/455
f 605/28/473 603/28/469 445/28/463 441/28/454
f 603/28/469 605/28/473 442/28/455 446/28/464
f 606/28/474 607/28/400 451/28/475 447/28/467
f 607/28/400 606/28/474 448/28/468 452/28/476
f 607/28/400 608/28/477 443/28/458 451/28/475
f 608/28/477 607/28/400 452/28/476 444/28/459
f 608/28/477 606/28/474 447/28/467 443/28/458
f 606/28/474 608/28/477 444/28/459 448/28/468
f 609/28/478 610/28/405 445/28/463 449/28/471
f 610/28/405 609/28/478 450/28/472 446/28/464
f 610/28/405 611/28/479 453/28/480 445/28/463
f 611/28/479 610/28/405 446/28/464 454/28/481
f 611/28/479 609/28/478 449/28/471 453/28/480
f 609/28/478 611/28/479 454/28/481 450/28/472
f 612/28/482 613/28/410 447/28/467 451/28/475
f 613/28/410 612/28/482 452/28/476 448/28/468
f 613/28/410 614/28/483 455/28/484 447/28/467
f 614/28/483 613/28/410 448/28/468 456/28/485
f 614/28/483 612/28/482 451/28/475 455/28/484
f 612/28/482 614/28/483 456/28/485 452/28/476
f 615/28/486 616/28/415 457/28/487 453/28/480
f 616/28/415 615/28/486 454/28/481 458/28/488
f 616/28/415 617/28/489 449/28/471 457/28/487
f 617/28/489 616/28/415 458/28/488 450/28/472
f 617/28/489 615/28/486 453/28/480 449/28/471
f 615/28/486 617/28/489 450/28/472 454/28/481
f 618/28/490 619/28/491 459/28/492 455/28/484
f 619/28/491 618/28/490 456/28/485 460/28/493
f 619/28/491 620/28/494 451/28/475 459/28/492
f 620/28/494 619/28/491 460/28/493 452/28/476
f 620/28/494 618/28/490 455/28/484 451/28/475
f 618/28/490 620/28/494 452/28/476 456/28/485
f 621/28/495 622/28/425 453/28/480 457/28/487
f 622/28/425 621/28/495 458/28/488 454/28/481
f 622/28/425 623/28/496 461/28/497 453/28/480
f 623/28/496 622/28/425 454/28/481 462/28/498
f 623/28/496 621/28/495 457/28/487 461/28/497
f 621/28/495 623/28/496 462/28/498 458/28/488
f 624/28/499 625/28/500 455/28/484 459/28/492
f 625/28/500 624/28/499 460/28/493 456/28/485
f 625/28/500 626/28/501 463/28/502 455/28/484
f 626/28/501 625/28/500 456/28/485 464/28/503
f 626/28/501 624/28/499 459/28/492 463/28/502
f 624/28/499 626/28/501 464/28/503 460/28/493
f 627/28/504 628/28/435 463/28/502 461/28/497
f 628/28/435 627/28/504 462/28/498 464/28/503
f 628/28/435 629/28/505 457/28/487 463/28/502
f 629/28/505 628/28/435 464/28/503 458/28/488
f 629/28/505 627/28/504 461/28/497 457/28/487
f 627/28/504 629/28/505 458/28/488 462/28/498
f 630/28/506 631/28/438 461/28/497 463/28/502
f 631/28/438 630/28/506 464/28/503 462/28/498
f 631/28/438 632/28/507 459/28/492 461/28/497
f 632/28/507 631/28/438 462/28/498 460/28/493
f 632/28/507 630/28/506 463/28/502 459/28/492
f 630/28/506 632/28/507 460/28/493 464/28/503
