# Blender 4.5.3 LTS
# www.blender.org
mtllib glass-pintop.mtl
o RenderMesh_17001777607
v -0.002915 0.016529 -0.004432
v -0.004258 0.017579 -0.005478
v 0.000000 0.024690 0.012511
v -0.000000 0.026541 0.011754
v 0.000000 0.017400 -0.005304
v -0.000000 0.018817 -0.006716
v -0.002947 0.023411 0.012417
v -0.004203 0.024851 0.011827
v -0.004061 0.020450 0.012139
v -0.006050 0.020647 0.012058
v 0.002915 0.016529 -0.004432
v 0.004258 0.017579 -0.005478
v 0.002947 0.023411 0.012417
v 0.004203 0.024851 0.011827
v 0.000000 -0.000000 -0.012511
v -0.000000 -0.000000 -0.014511
v 0.004061 0.020450 0.012139
v 0.006050 0.020647 0.012058
v -0.004060 0.014460 -0.002364
v -0.006055 0.014564 -0.002468
v -0.002841 0.017602 0.011813
v -0.004297 0.016337 0.012342
v -0.002915 -0.000000 -0.011279
v -0.004258 -0.000000 -0.012761
v -0.002813 0.012464 -0.000368
v -0.004299 0.011519 0.000580
v 0.004060 0.014460 -0.002364
v 0.006055 0.014564 -0.002468
v 0.002841 0.017602 0.011813
v 0.004297 0.016337 0.012342
v 0.002915 -0.000000 -0.011279
v 0.004258 -0.000000 -0.012761
v 0.002813 0.012464 -0.000368
v 0.004299 0.011519 0.000580
v 0.000000 0.011666 0.000431
v -0.000000 0.010256 0.001850
v 0.000000 0.016415 0.011682
v 0.000000 0.014572 0.012459
v 0.004060 -0.000000 -0.008354
v 0.006054 -0.000000 -0.008502
v 0.002813 -0.000000 -0.005530
v 0.004302 -0.000000 -0.004195
v 0.000000 -0.000000 -0.004401
v -0.000000 -0.000000 -0.002401
v -0.002813 -0.000000 -0.005530
v -0.004302 -0.000000 -0.004195
v 0.000000 -0.011666 0.000431
v -0.000000 -0.010256 0.001850
v 0.002813 -0.012464 -0.000368
v 0.004299 -0.011519 0.000580
v 0.004060 -0.014460 -0.002364
v 0.006055 -0.014564 -0.002468
v 0.002841 -0.017602 0.011813
v 0.004297 -0.016337 0.012342
v 0.000000 -0.016415 0.011682
v 0.000000 -0.014572 0.012459
v 0.004061 -0.020450 0.012139
v 0.006050 -0.020647 0.012058
v -0.002841 -0.017602 0.011813
v -0.004297 -0.016337 0.012342
v 0.002915 -0.016529 -0.004432
v 0.004258 -0.017579 -0.005478
v 0.002947 -0.023411 0.012417
v 0.004203 -0.024851 0.011827
v 0.000000 -0.024690 0.012511
v 0.000000 -0.026541 0.011754
v 0.000000 -0.017400 -0.005304
v 0.000000 -0.018817 -0.006716
v -0.002915 -0.016529 -0.004432
v -0.004258 -0.017579 -0.005478
v -0.002947 -0.023411 0.012417
v -0.004203 -0.024851 0.011827
v -0.004061 -0.020450 0.012139
v -0.006050 -0.020647 0.012058
v -0.004060 -0.014460 -0.002364
v -0.006055 -0.014564 -0.002468
v -0.004060 -0.000000 -0.008354
v -0.006054 -0.000000 -0.008502
v -0.002813 -0.012464 -0.000368
v -0.004299 -0.011519 0.000580
v 0.000932 -0.024826 0.011162
v 0.000932 -0.018213 -0.004795
v 0.002656 -0.017715 -0.004297
v 0.002642 -0.024151 0.011211
v 0.004665 0.021161 0.011168
v 0.004667 0.015626 -0.002131
v 0.003979 0.016753 -0.003256
v 0.003962 0.022677 0.010998
v -0.003987 -0.011696 -0.000993
v -0.003989 -0.000986 -0.005430
v -0.004626 -0.000986 -0.007043
v -0.004626 -0.012835 -0.002134
v -0.002656 0.017715 -0.004297
v -0.002642 0.024151 0.011211
v -0.000932 0.024826 0.011162
v -0.000932 0.018213 -0.004795
v 0.004667 -0.014228 -0.003530
v 0.003976 -0.015360 -0.004660
v 0.003977 -0.000989 -0.010614
v 0.004667 -0.000989 -0.009015
v 0.003987 0.011696 -0.000993
v 0.003989 0.000986 -0.005430
v 0.004626 0.000986 -0.007043
v 0.004626 0.012835 -0.002134
v -0.004006 -0.017559 0.011162
v -0.003989 -0.013094 0.000398
v -0.004626 -0.014229 -0.000738
v -0.004618 -0.019101 0.010949
v 0.000938 -0.010294 0.000487
v 0.002618 -0.010792 -0.000014
v 0.002620 -0.000933 -0.004100
v 0.000938 -0.000933 -0.003391
v 0.004006 -0.017559 0.011162
v 0.004618 -0.019101 0.010949
v 0.004626 -0.014229 -0.000738
v 0.003989 -0.013094 0.000398
v 0.002655 -0.016398 -0.005621
v 0.000931 -0.016896 -0.006118
v 0.000932 -0.000934 -0.012730
v 0.002655 -0.000934 -0.012026
v -0.000937 -0.011620 0.001805
v -0.002621 -0.012118 0.001302
v -0.002628 -0.016181 0.011096
v -0.000939 -0.015490 0.011175
v -0.004626 0.014229 -0.000738
v -0.003989 0.013094 0.000398
v -0.004006 0.017559 0.011162
v -0.004618 0.019101 0.010949
v -0.004665 -0.021161 0.011168
v -0.004667 -0.015626 -0.002131
v -0.003979 -0.016753 -0.003256
v -0.003962 -0.022677 0.010998
v -0.003977 0.000989 -0.010614
v -0.004667 0.000989 -0.009015
v -0.004667 0.014228 -0.003530
v -0.003976 0.015360 -0.004660
v 0.000938 0.010294 0.000487
v 0.000938 0.000933 -0.003391
v 0.002620 0.000933 -0.004100
v 0.002618 0.010792 -0.000014
v -0.000932 0.000934 -0.012730
v -0.002655 0.000934 -0.012026
v -0.002655 0.016398 -0.005621
v -0.000931 0.016896 -0.006118
v -0.002620 0.000933 -0.004100
v -0.000938 0.000933 -0.003391
v -0.000938 0.010294 0.000487
v -0.002618 0.010792 -0.000014
v -0.000937 0.011620 0.001805
v -0.000939 0.015490 0.011175
v -0.002628 0.016181 0.011096
v -0.002621 0.012118 0.001302
v -0.002620 -0.000933 -0.004100
v -0.002618 -0.010792 -0.000014
v -0.000938 -0.010294 0.000487
v -0.000938 -0.000933 -0.003391
v 0.002628 0.016181 0.011096
v 0.000939 0.015490 0.011175
v 0.000937 0.011620 0.001805
v 0.002621 0.012118 0.001302
v 0.000937 -0.011620 0.001805
v 0.000939 -0.015490 0.011175
v 0.002628 -0.016181 0.011096
v 0.002621 -0.012118 0.001302
v -0.000932 -0.024826 0.011162
v -0.002642 -0.024151 0.011211
v -0.002656 -0.017715 -0.004297
v -0.000932 -0.018213 -0.004795
v 0.002655 0.016398 -0.005621
v 0.002655 0.000934 -0.012026
v 0.000932 0.000934 -0.012730
v 0.000931 0.016896 -0.006118
v 0.004665 -0.021161 0.011168
v 0.003962 -0.022677 0.010998
v 0.003979 -0.016753 -0.003256
v 0.004667 -0.015626 -0.002131
v 0.004667 0.014228 -0.003530
v 0.004667 0.000989 -0.009015
v 0.003977 0.000989 -0.010614
v 0.003976 0.015360 -0.004660
v 0.000932 0.024826 0.011162
v 0.002642 0.024151 0.011211
v 0.002656 0.017715 -0.004297
v 0.000932 0.018213 -0.004795
v -0.004626 0.000986 -0.007043
v -0.003989 0.000986 -0.005430
v -0.003987 0.011696 -0.000993
v -0.004626 0.012835 -0.002134
v -0.002655 -0.016398 -0.005621
v -0.002655 -0.000934 -0.012026
v -0.000932 -0.000934 -0.012730
v -0.000931 -0.016896 -0.006118
v 0.004006 0.017559 0.011162
v 0.003989 0.013094 0.000398
v 0.004626 0.014229 -0.000738
v 0.004618 0.019101 0.010949
v 0.003987 -0.011696 -0.000993
v 0.004626 -0.012835 -0.002134
v 0.004626 -0.000986 -0.007043
v 0.003989 -0.000986 -0.005430
v -0.003979 0.016753 -0.003256
v -0.004667 0.015626 -0.002131
v -0.004665 0.021161 0.011168
v -0.003962 0.022677 0.010998
v -0.004667 -0.014228 -0.003530
v -0.004667 -0.000989 -0.009015
v -0.003977 -0.000989 -0.010614
v -0.003976 -0.015360 -0.004660
vn 0.6741 0.3612 -0.6443
vn 0.6958 -0.3257 0.6401
vn -0.0000 0.7070 0.7073
vn -0.0000 0.9947 -0.1027
vn -0.0000 -0.6723 -0.7403
vn -0.0000 -0.7064 -0.7078
vn -0.5916 -0.7166 0.3696
vn -0.7307 0.4841 0.4814
vn 0.6313 -0.5489 -0.5478
vn -0.6434 -0.1269 -0.7550
vn -0.7142 0.6686 -0.2069
vn 0.4616 -0.5648 -0.6840
vn -0.1989 0.5190 -0.8313
vn -0.1640 0.9691 0.1843
vn -0.9998 0.0145 -0.0160
vn -0.8929 0.0250 -0.4496
vn 0.8694 0.1171 -0.4800
vn 0.9880 0.1097 -0.1092
vn 0.4716 -0.0663 0.8793
vn -0.7307 -0.4841 0.4814
vn 0.6313 0.5489 -0.5478
vn 0.4378 -0.7455 -0.5025
vn -0.7142 -0.6686 -0.2069
vn 0.4616 0.5648 -0.6840
vn -0.3939 0.2334 -0.8890
vn -0.3936 -0.7938 -0.4637
vn 0.7047 -0.0000 -0.7095
vn 0.7020 -0.5029 -0.5042
vn -0.7919 0.4323 0.4313
vn -0.7942 -0.0000 0.6077
vn 0.0806 -0.5098 0.8565
vn 0.9997 -0.0000 -0.0235
vn -0.9882 -0.0000 -0.1535
vn 0.0804 0.9660 0.2457
vn 0.9998 -0.0145 -0.0160
vn -0.9880 -0.1097 -0.1092
vn 0.5916 0.7166 0.3696
vn 0.6434 0.1269 -0.7550
vn 0.7142 -0.6686 -0.2069
vn 0.7307 -0.4841 0.4814
vn -0.6313 0.5489 -0.5478
vn -0.4616 0.5648 -0.6840
vn -0.6741 -0.3612 -0.6443
vn -0.0000 -0.9947 -0.1027
vn -0.0000 0.6723 -0.7403
vn -0.6958 0.3257 0.6401
vn -0.0000 -0.7070 0.7073
vn -0.0000 0.7064 -0.7078
vn -0.1579 0.1839 -0.9702
vn 0.4514 0.8894 0.0723
vn -0.9998 -0.0145 -0.0160
vn 0.9880 -0.1097 -0.1092
vn 0.4512 -0.5773 0.6805
vn -0.7340 -0.0000 0.6792
vn 0.6355 -0.0000 -0.7721
vn -0.1580 -0.8164 -0.5555
vn -0.9997 -0.0000 -0.0235
vn 0.9882 -0.0000 -0.1535
vn 0.3939 -0.2334 -0.8890
vn 0.3936 0.7938 -0.4637
vn -0.7047 -0.0000 -0.7095
vn -0.7020 0.5029 -0.5042
vn 0.7919 -0.4323 0.4313
vn 0.7942 -0.0000 0.6077
vn -0.0806 0.5098 0.8565
vn -0.0804 -0.9660 0.2457
vn -0.4615 -0.4107 -0.7863
vn -0.4055 -0.8843 0.2317
vn 0.5207 -0.5303 -0.6691
vn -0.7590 0.6258 -0.1798
vn 0.0730 0.2449 0.9668
vn 0.0475 0.9109 -0.4099
vn 0.8929 -0.0250 -0.4496
vn -0.8694 -0.1171 -0.4800
vn 0.7131 0.5005 -0.4909
vn -0.5916 0.8062 -0.0009
vn -0.7020 -0.5029 -0.5042
vn -0.0000 -0.7040 -0.7102
vn -0.0000 0.7061 0.7081
vn 0.7919 0.4323 0.4313
vn -0.5917 -0.5711 0.5689
vn 0.7133 -0.7009 0.0057
vn -0.0000 -0.0000 -1.0000
vn -0.0000 -0.0000 1.0000
vn 0.4615 -0.4107 -0.7863
vn -0.0476 0.9109 -0.4099
vn -0.8929 -0.0250 -0.4496
vn -0.5207 -0.5303 -0.6691
vn 0.7590 0.6258 -0.1798
vn 0.8694 -0.1171 -0.4800
vn -0.0730 0.2449 0.9668
vn 0.4055 -0.8843 0.2317
vn -0.5775 0.3684 -0.7285
vn 0.6865 0.6474 -0.3310
vn 0.6865 -0.6916 0.2243
vn -0.5778 -0.7756 -0.2541
vn -0.7219 -0.4862 0.4925
vn 0.6005 -0.0074 0.7996
vn 0.5486 0.6749 -0.4936
vn -0.7536 0.1395 -0.6424
vn -0.0000 -0.6635 -0.7482
vn -0.0000 0.9991 -0.0420
vn 0.0730 -0.2449 0.9668
vn -0.4055 0.8843 0.2317
vn 0.7020 0.5029 -0.5042
vn 0.9998 0.0145 -0.0160
vn -0.9880 0.1097 -0.1092
vn -0.7919 -0.4323 0.4313
vn -0.4615 0.4107 -0.7863
vn 0.5207 0.5303 -0.6691
vn -0.7590 -0.6258 -0.1798
vn 0.0476 -0.9109 -0.4099
vn 0.8929 0.0250 -0.4496
vn -0.8694 0.1171 -0.4800
vn 0.1989 -0.5190 -0.8313
vn 0.1640 -0.9691 0.1843
vn -0.4716 0.0663 0.8793
vn 0.7307 0.4841 0.4814
vn -0.6313 -0.5489 -0.5478
vn -0.4378 0.7455 -0.5025
vn 0.7142 0.6686 -0.2069
vn -0.4616 -0.5648 -0.6840
vn -0.4512 0.5773 0.6805
vn 0.1580 0.8164 -0.5555
vn 0.7340 -0.0000 0.6792
vn -0.6355 -0.0000 -0.7721
vn 0.1579 -0.1839 -0.9702
vn -0.4514 -0.8894 0.0723
vn 0.7131 -0.5005 -0.4909
vn 0.7133 0.7009 0.0057
vn -0.0000 0.7040 -0.7102
vn -0.0000 -0.7061 0.7081
vn -0.5917 0.5711 0.5689
vn -0.5916 -0.8062 -0.0009
vn -0.6865 0.6916 0.2243
vn 0.5778 0.7756 -0.2541
vn 0.5775 -0.3684 -0.7285
vn -0.6865 -0.6474 -0.3310
vn 0.5917 0.5711 0.5689
vn -0.7133 0.7009 0.0057
vn -0.7131 -0.5005 -0.4909
vn 0.5916 -0.8062 -0.0009
vn -0.7219 0.4862 0.4925
vn -0.7536 -0.1395 -0.6424
vn -0.0000 0.6635 -0.7482
vn -0.0000 -0.9991 -0.0420
vn 0.5486 -0.6749 -0.4936
vn 0.6005 0.0074 0.7996
vn 0.5917 -0.5711 0.5689
vn 0.5916 0.8062 -0.0009
vn -0.7131 0.5005 -0.4909
vn -0.7133 -0.7009 0.0057
vn -0.5486 -0.6749 -0.4936
vn 0.7536 -0.1395 -0.6424
vn -0.5207 0.5303 -0.6691
vn 0.7590 -0.6258 -0.1798
vn 0.7219 0.4862 0.4925
vn -0.6005 0.0074 0.7996
vn 0.7219 -0.4862 0.4925
vn 0.7536 0.1395 -0.6424
vn -0.5486 0.6749 -0.4936
vn -0.6005 -0.0074 0.7996
vn -0.6741 0.3612 -0.6443
vn 0.6434 -0.1269 -0.7550
vn 0.5916 -0.7166 0.3696
vn -0.6958 -0.3257 0.6401
vn -0.5775 -0.3684 -0.7285
vn -0.5778 0.7756 -0.2541
vn 0.6865 0.6916 0.2243
vn 0.6865 -0.6474 -0.3310
vn -0.1990 -0.5195 -0.8310
vn 0.4378 0.7455 -0.5025
vn 0.4716 0.0663 0.8793
vn -0.1640 -0.9691 0.1843
vn -0.1579 -0.1839 -0.9702
vn -0.1580 0.8164 -0.5555
vn 0.4512 0.5773 0.6805
vn 0.4514 -0.8894 0.0723
vn 0.6741 -0.3612 -0.6443
vn -0.6434 0.1269 -0.7550
vn -0.5916 0.7166 0.3696
vn 0.6958 0.3257 0.6401
vn 0.0806 0.5098 0.8565
vn -0.3936 0.7938 -0.4637
vn -0.3939 -0.2334 -0.8890
vn 0.0804 -0.9660 0.2457
vn 0.5775 0.3684 -0.7285
vn 0.5778 -0.7756 -0.2541
vn -0.6865 -0.6916 0.2243
vn -0.6865 0.6474 -0.3310
vn 0.4615 0.4107 -0.7863
vn 0.4055 0.8843 0.2317
vn -0.0730 -0.2449 0.9668
vn -0.0475 -0.9109 -0.4099
vn 0.3939 0.2334 -0.8890
vn -0.0804 0.9660 0.2457
vn -0.0806 -0.5098 0.8565
vn 0.3936 -0.7938 -0.4637
vn -0.4716 -0.0663 0.8793
vn 0.1640 0.9691 0.1843
vn 0.1992 0.5192 -0.8311
vn -0.4378 -0.7455 -0.5025
vn 0.1579 0.1839 -0.9702
vn 0.1580 -0.8164 -0.5555
vn -0.4512 -0.5773 0.6805
vn -0.4514 0.8894 0.0723
vt 0.000000 0.000000
s 1
f 81/1/1 82/1/2 67/1/3 65/1/4
f 82/1/2 81/1/1 66/1/5 68/1/6
f 82/1/2 83/1/7 61/1/8 67/1/3
f 83/1/7 82/1/2 68/1/6 62/1/9
f 83/1/7 84/1/10 63/1/11 61/1/8
f 84/1/10 83/1/7 62/1/9 64/1/12
f 84/1/10 81/1/1 65/1/4 63/1/11
f 81/1/1 84/1/10 64/1/12 66/1/5
f 85/1/13 86/1/14 27/1/15 17/1/16
f 86/1/14 85/1/13 18/1/17 28/1/18
f 86/1/14 87/1/19 11/1/20 27/1/15
f 87/1/19 86/1/14 28/1/18 12/1/21
f 87/1/19 88/1/22 13/1/23 11/1/20
f 88/1/22 87/1/19 12/1/21 14/1/24
f 88/1/22 85/1/13 17/1/16 13/1/23
f 85/1/13 88/1/22 14/1/24 18/1/17
f 89/1/25 90/1/26 45/1/27 79/1/28
f 90/1/26 89/1/25 80/1/29 46/1/30
f 90/1/26 91/1/31 77/1/32 45/1/27
f 91/1/31 90/1/26 46/1/30 78/1/33
f 91/1/31 92/1/34 75/1/35 77/1/32
f 92/1/34 91/1/31 78/1/33 76/1/36
f 92/1/34 89/1/25 79/1/28 75/1/35
f 89/1/25 92/1/34 76/1/36 80/1/29
f 93/1/37 94/1/38 7/1/39 1/1/40
f 94/1/38 93/1/37 2/1/41 8/1/42
f 94/1/38 95/1/43 3/1/44 7/1/39
f 95/1/43 94/1/38 8/1/42 4/1/45
f 95/1/43 96/1/46 5/1/47 3/1/44
f 96/1/46 95/1/43 4/1/45 6/1/48
f 96/1/46 93/1/37 1/1/40 5/1/47
f 93/1/37 96/1/46 6/1/48 2/1/41
f 97/1/49 98/1/50 61/1/8 51/1/51
f 98/1/50 97/1/49 52/1/52 62/1/9
f 98/1/50 99/1/53 31/1/54 61/1/8
f 99/1/53 98/1/50 62/1/9 32/1/55
f 99/1/53 100/1/56 39/1/57 31/1/54
f 100/1/56 99/1/53 32/1/55 40/1/58
f 100/1/56 97/1/49 51/1/51 39/1/57
f 97/1/49 100/1/56 40/1/58 52/1/52
f 101/1/59 102/1/60 41/1/61 33/1/62
f 102/1/60 101/1/59 34/1/63 42/1/64
f 102/1/60 103/1/65 39/1/57 41/1/61
f 103/1/65 102/1/60 42/1/64 40/1/58
f 103/1/65 104/1/66 27/1/15 39/1/57
f 104/1/66 103/1/65 40/1/58 28/1/18
f 104/1/66 101/1/59 33/1/62 27/1/15
f 101/1/59 104/1/66 28/1/18 34/1/63
f 105/1/67 106/1/68 79/1/28 59/1/69
f 106/1/68 105/1/67 60/1/70 80/1/29
f 106/1/68 107/1/71 75/1/35 79/1/28
f 107/1/71 106/1/68 80/1/29 76/1/36
f 107/1/71 108/1/72 73/1/73 75/1/35
f 108/1/72 107/1/71 76/1/36 74/1/74
f 108/1/72 105/1/67 59/1/69 73/1/73
f 105/1/67 108/1/72 74/1/74 60/1/70
f 109/1/75 110/1/76 49/1/77 47/1/78
f 110/1/76 109/1/75 48/1/79 50/1/80
f 110/1/76 111/1/81 41/1/61 49/1/77
f 111/1/81 110/1/76 50/1/80 42/1/64
f 111/1/81 112/1/82 43/1/83 41/1/61
f 112/1/82 111/1/81 42/1/64 44/1/84
f 112/1/82 109/1/75 47/1/78 43/1/83
f 109/1/75 112/1/82 44/1/84 48/1/79
f 113/1/85 114/1/86 57/1/87 53/1/88
f 114/1/86 113/1/85 54/1/89 58/1/90
f 114/1/86 115/1/91 51/1/51 57/1/87
f 115/1/91 114/1/86 58/1/90 52/1/52
f 115/1/91 116/1/92 49/1/77 51/1/51
f 116/1/92 115/1/91 52/1/52 50/1/80
f 116/1/92 113/1/85 53/1/88 49/1/77
f 113/1/85 116/1/92 50/1/80 54/1/89
f 117/1/93 118/1/94 67/1/3 61/1/8
f 118/1/94 117/1/93 62/1/9 68/1/6
f 118/1/94 119/1/95 15/1/84 67/1/3
f 119/1/95 118/1/94 68/1/6 16/1/83
f 119/1/95 120/1/96 31/1/54 15/1/84
f 120/1/96 119/1/95 16/1/83 32/1/55
f 120/1/96 117/1/93 61/1/8 31/1/54
f 117/1/93 120/1/96 32/1/55 62/1/9
f 121/1/97 122/1/98 79/1/28 47/1/78
f 122/1/98 121/1/97 48/1/79 80/1/29
f 122/1/98 123/1/99 59/1/69 79/1/28
f 123/1/99 122/1/98 80/1/29 60/1/70
f 123/1/99 124/1/100 55/1/101 59/1/69
f 124/1/100 123/1/99 60/1/70 56/1/102
f 124/1/100 121/1/97 47/1/78 55/1/101
f 121/1/97 124/1/100 56/1/102 48/1/79
f 125/1/103 126/1/104 25/1/105 19/1/106
f 126/1/104 125/1/103 20/1/107 26/1/108
f 126/1/104 127/1/109 21/1/110 25/1/105
f 127/1/109 126/1/104 26/1/108 22/1/111
f 127/1/109 128/1/112 9/1/113 21/1/110
f 128/1/112 127/1/109 22/1/111 10/1/114
f 128/1/112 125/1/103 19/1/106 9/1/113
f 125/1/103 128/1/112 10/1/114 20/1/107
f 129/1/115 130/1/116 75/1/35 73/1/73
f 130/1/116 129/1/115 74/1/74 76/1/36
f 130/1/116 131/1/117 69/1/118 75/1/35
f 131/1/117 130/1/116 76/1/36 70/1/119
f 131/1/117 132/1/120 71/1/121 69/1/118
f 132/1/120 131/1/117 70/1/119 72/1/122
f 132/1/120 129/1/115 73/1/73 71/1/121
f 129/1/115 132/1/120 72/1/122 74/1/74
f 133/1/123 134/1/124 77/1/32 23/1/125
f 134/1/124 133/1/123 24/1/126 78/1/33
f 134/1/124 135/1/127 19/1/106 77/1/32
f 135/1/127 134/1/124 78/1/33 20/1/107
f 135/1/127 136/1/128 1/1/40 19/1/106
f 136/1/128 135/1/127 20/1/107 2/1/41
f 136/1/128 133/1/123 23/1/125 1/1/40
f 133/1/123 136/1/128 2/1/41 24/1/126
f 137/1/129 138/1/130 43/1/83 35/1/131
f 138/1/130 137/1/129 36/1/132 44/1/84
f 138/1/130 139/1/133 41/1/61 43/1/83
f 139/1/133 138/1/130 44/1/84 42/1/64
f 139/1/133 140/1/134 33/1/62 41/1/61
f 140/1/134 139/1/133 42/1/64 34/1/63
f 140/1/134 137/1/129 35/1/131 33/1/62
f 137/1/129 140/1/134 34/1/63 36/1/132
f 141/1/135 142/1/136 23/1/125 15/1/84
f 142/1/136 141/1/135 16/1/83 24/1/126
f 142/1/136 143/1/137 1/1/40 23/1/125
f 143/1/137 142/1/136 24/1/126 2/1/41
f 143/1/137 144/1/138 5/1/47 1/1/40
f 144/1/138 143/1/137 2/1/41 6/1/48
f 144/1/138 141/1/135 15/1/84 5/1/47
f 141/1/135 144/1/138 6/1/48 16/1/83
f 145/1/139 146/1/140 43/1/83 45/1/27
f 146/1/140 145/1/139 46/1/30 44/1/84
f 146/1/140 147/1/141 35/1/131 43/1/83
f 147/1/141 146/1/140 44/1/84 36/1/132
f 147/1/141 148/1/142 25/1/105 35/1/131
f 148/1/142 147/1/141 36/1/132 26/1/108
f 148/1/142 145/1/139 45/1/27 25/1/105
f 145/1/139 148/1/142 26/1/108 46/1/30
f 149/1/143 150/1/144 37/1/145 35/1/131
f 150/1/144 149/1/143 36/1/132 38/1/146
f 150/1/144 151/1/147 21/1/110 37/1/145
f 151/1/147 150/1/144 38/1/146 22/1/111
f 151/1/147 152/1/148 25/1/105 21/1/110
f 152/1/148 151/1/147 22/1/111 26/1/108
f 152/1/148 149/1/143 35/1/131 25/1/105
f 149/1/143 152/1/148 26/1/108 36/1/132
f 153/1/149 154/1/150 79/1/28 45/1/27
f 154/1/150 153/1/149 46/1/30 80/1/29
f 154/1/150 155/1/151 47/1/78 79/1/28
f 155/1/151 154/1/150 80/1/29 48/1/79
f 155/1/151 156/1/152 43/1/83 47/1/78
f 156/1/152 155/1/151 48/1/79 44/1/84
f 156/1/152 153/1/149 45/1/27 43/1/83
f 153/1/149 156/1/152 44/1/84 46/1/30
f 157/1/153 158/1/154 37/1/145 29/1/155
f 158/1/154 157/1/153 30/1/156 38/1/146
f 158/1/154 159/1/157 35/1/131 37/1/145
f 159/1/157 158/1/154 38/1/146 36/1/132
f 159/1/157 160/1/158 33/1/62 35/1/131
f 160/1/158 159/1/157 36/1/132 34/1/63
f 160/1/158 157/1/153 29/1/155 33/1/62
f 157/1/153 160/1/158 34/1/63 30/1/156
f 161/1/159 162/1/160 55/1/101 47/1/78
f 162/1/160 161/1/159 48/1/79 56/1/102
f 162/1/160 163/1/161 53/1/88 55/1/101
f 163/1/161 162/1/160 56/1/102 54/1/89
f 163/1/161 164/1/162 49/1/77 53/1/88
f 164/1/162 163/1/161 54/1/89 50/1/80
f 164/1/162 161/1/159 47/1/78 49/1/77
f 161/1/159 164/1/162 50/1/80 48/1/79
f 165/1/163 166/1/164 71/1/121 65/1/4
f 166/1/164 165/1/163 66/1/5 72/1/122
f 166/1/164 167/1/165 69/1/118 71/1/121
f 167/1/165 166/1/164 72/1/122 70/1/119
f 167/1/165 168/1/166 67/1/3 69/1/118
f 168/1/166 167/1/165 70/1/119 68/1/6
f 168/1/166 165/1/163 65/1/4 67/1/3
f 165/1/163 168/1/166 68/1/6 66/1/5
f 169/1/167 170/1/168 31/1/54 11/1/20
f 170/1/168 169/1/167 12/1/21 32/1/55
f 170/1/168 171/1/169 15/1/84 31/1/54
f 171/1/169 170/1/168 32/1/55 16/1/83
f 171/1/169 172/1/170 5/1/47 15/1/84
f 172/1/170 171/1/169 16/1/83 6/1/48
f 172/1/170 169/1/167 11/1/20 5/1/47
f 169/1/167 172/1/170 6/1/48 12/1/21
f 173/1/171 174/1/172 63/1/11 57/1/87
f 174/1/172 173/1/171 58/1/90 64/1/12
f 174/1/172 175/1/173 61/1/8 63/1/11
f 175/1/173 174/1/172 64/1/12 62/1/9
f 175/1/173 176/1/174 51/1/51 61/1/8
f 176/1/174 175/1/173 62/1/9 52/1/52
f 176/1/174 173/1/171 57/1/87 51/1/51
f 173/1/171 176/1/174 52/1/52 58/1/90
f 177/1/175 178/1/176 39/1/57 27/1/15
f 178/1/176 177/1/175 28/1/18 40/1/58
f 178/1/176 179/1/177 31/1/54 39/1/57
f 179/1/177 178/1/176 40/1/58 32/1/55
f 179/1/177 180/1/178 11/1/20 31/1/54
f 180/1/178 179/1/177 32/1/55 12/1/21
f 180/1/178 177/1/175 27/1/15 11/1/20
f 177/1/175 180/1/178 12/1/21 28/1/18
f 181/1/179 182/1/180 13/1/23 3/1/44
f 182/1/180 181/1/179 4/1/45 14/1/24
f 182/1/180 183/1/181 11/1/20 13/1/23
f 183/1/181 182/1/180 14/1/24 12/1/21
f 183/1/181 184/1/182 5/1/47 11/1/20
f 184/1/182 183/1/181 12/1/21 6/1/48
f 184/1/182 181/1/179 3/1/44 5/1/47
f 181/1/179 184/1/182 6/1/48 4/1/45
f 185/1/183 186/1/184 45/1/27 77/1/32
f 186/1/184 185/1/183 78/1/33 46/1/30
f 186/1/184 187/1/185 25/1/105 45/1/27
f 187/1/185 186/1/184 46/1/30 26/1/108
f 187/1/185 188/1/186 19/1/106 25/1/105
f 188/1/186 187/1/185 26/1/108 20/1/107
f 188/1/186 185/1/183 77/1/32 19/1/106
f 185/1/183 188/1/186 20/1/107 78/1/33
f 189/1/187 190/1/188 23/1/125 69/1/118
f 190/1/188 189/1/187 70/1/119 24/1/126
f 190/1/188 191/1/189 15/1/84 23/1/125
f 191/1/189 190/1/188 24/1/126 16/1/83
f 191/1/189 192/1/190 67/1/3 15/1/84
f 192/1/190 191/1/189 16/1/83 68/1/6
f 192/1/190 189/1/187 69/1/118 67/1/3
f 189/1/187 192/1/190 68/1/6 70/1/119
f 193/1/191 194/1/192 33/1/62 29/1/155
f 194/1/192 193/1/191 30/1/156 34/1/63
f 194/1/192 195/1/193 27/1/15 33/1/62
f 195/1/193 194/1/192 34/1/63 28/1/18
f 195/1/193 196/1/194 17/1/16 27/1/15
f 196/1/194 195/1/193 28/1/18 18/1/17
f 196/1/194 193/1/191 29/1/155 17/1/16
f 193/1/191 196/1/194 18/1/17 30/1/156
f 197/1/195 198/1/196 51/1/51 49/1/77
f 198/1/196 197/1/195 50/1/80 52/1/52
f 198/1/196 199/1/197 39/1/57 51/1/51
f 199/1/197 198/1/196 52/1/52 40/1/58
f 199/1/197 200/1/198 41/1/61 39/1/57
f 200/1/198 199/1/197 40/1/58 42/1/64
f 200/1/198 197/1/195 49/1/77 41/1/61
f 197/1/195 200/1/198 42/1/64 50/1/80
f 201/1/199 202/1/200 19/1/106 1/1/40
f 202/1/200 201/1/199 2/1/41 20/1/107
f 202/1/200 203/1/201 9/1/113 19/1/106
f 203/1/201 202/1/200 20/1/107 10/1/114
f 203/1/201 204/1/202 7/1/39 9/1/113
f 204/1/202 203/1/201 10/1/114 8/1/42
f 204/1/202 201/1/199 1/1/40 7/1/39
f 201/1/199 204/1/202 8/1/42 2/1/41
f 205/1/203 206/1/204 77/1/32 75/1/35
f 206/1/204 205/1/203 76/1/36 78/1/33
f 206/1/204 207/1/205 23/1/125 77/1/32
f 207/1/205 206/1/204 78/1/33 24/1/126
f 207/1/205 208/1/206 69/1/118 23/1/125
f 208/1/206 207/1/205 24/1/126 70/1/119
f 208/1/206 205/1/203 75/1/35 69/1/118
f 205/1/203 208/1/206 70/1/119 76/1/36
