# Blender 4.5.3 LTS
# www.blender.org
mtllib Glass-mainbody.mtl
o RenderMesh_96681677373844
v 0.284449 0.323660 -0.050363
v 0.285746 0.325182 -0.050363
v 0.098124 0.482391 -0.050363
v 0.098815 0.484268 -0.050363
v 0.098124 0.482391 0.050437
v 0.098815 0.484268 0.050437
v 0.284449 0.323660 0.050437
v 0.285746 0.325182 0.050437
v -0.135891 0.482391 0.050437
v -0.135891 0.484391 0.050437
v -0.135891 0.482391 -0.050363
v -0.135891 0.484391 -0.050363
v -0.055697 -0.482391 0.000001
v -0.055697 -0.484391 0.000001
v -0.046157 -0.482391 0.046158
v -0.046157 -0.484391 0.046158
v -0.065276 -0.482391 0.000001
v -0.065276 -0.484391 0.000001
v -0.046157 -0.482391 -0.046156
v -0.046157 -0.484391 -0.046156
v -0.039383 -0.482391 0.039384
v -0.039383 -0.484391 0.039384
v -0.039383 -0.482391 -0.039382
v -0.039383 -0.484391 -0.039382
v 0.000000 -0.482391 0.055697
v 0.000000 -0.484391 0.055697
v 0.000000 -0.482391 -0.055696
v 0.000000 -0.484391 -0.055696
v 0.000000 -0.482391 0.065277
v 0.000000 -0.484391 0.065277
v 0.000000 -0.482391 -0.065275
v 0.000000 -0.484391 -0.065275
v 0.046157 -0.482391 0.046158
v 0.046157 -0.484391 0.046158
v 0.046157 -0.482391 -0.046156
v 0.046157 -0.484391 -0.046156
v 0.039383 -0.482391 0.039384
v 0.039383 -0.484391 0.039384
v 0.039383 -0.482391 -0.039382
v 0.039383 -0.484391 -0.039382
v 0.055696 -0.482391 0.000001
v 0.055696 -0.484391 0.000001
v 0.065276 -0.482391 0.000001
v 0.065276 -0.484391 0.000001
v 0.046157 -0.482391 -0.046156
v 0.047412 -0.483314 -0.047411
v 0.000000 -0.446053 -0.084178
v 0.000000 -0.446976 -0.085952
v 0.059523 -0.446053 -0.059523
v 0.060778 -0.446976 -0.060778
v 0.084179 -0.446053 0.000001
v 0.085953 -0.446976 0.000001
v 0.000000 -0.482391 -0.065275
v 0.000000 -0.483314 -0.067049
v 0.065276 -0.482391 0.000001
v 0.067050 -0.483314 0.000001
v -0.046157 -0.482391 -0.046156
v -0.047412 -0.483314 -0.047411
v 0.046157 -0.482391 0.046158
v 0.047412 -0.483314 0.047413
v -0.059524 -0.446053 -0.059523
v -0.060779 -0.446976 -0.060778
v 0.059523 -0.446053 0.059524
v 0.060778 -0.446976 0.060779
v -0.084179 -0.446053 0.000001
v -0.085953 -0.446976 0.000001
v 0.000000 -0.446053 0.084180
v 0.000000 -0.446976 0.085954
v -0.065276 -0.482391 0.000001
v -0.067050 -0.483314 0.000001
v 0.000000 -0.482391 0.065277
v 0.000000 -0.483314 0.067051
v -0.046157 -0.482391 0.046158
v -0.047412 -0.483314 0.047413
v -0.059524 -0.446053 0.059524
v -0.060779 -0.446976 0.060779
v 0.000000 -0.204046 -0.283769
v -0.000000 -0.204699 -0.285659
v 0.153575 -0.321642 -0.153574
v 0.154660 -0.322926 -0.154659
v 0.000000 -0.321642 -0.217187
v -0.000000 -0.322926 -0.218721
v 0.000000 -0.393726 -0.117540
v 0.000000 -0.395346 -0.118712
v -0.153575 -0.321642 -0.153574
v -0.154660 -0.322926 -0.154659
v 0.083114 -0.393726 -0.083113
v 0.083943 -0.395346 -0.083942
v -0.083114 -0.393726 -0.083113
v -0.083943 -0.395346 -0.083942
v 0.117541 -0.393726 0.000001
v 0.118713 -0.395346 0.000001
v -0.117541 -0.393726 0.000001
v -0.118713 -0.395346 0.000001
v 0.217188 -0.321642 0.000001
v 0.218722 -0.322926 0.000001
v -0.217188 -0.321642 0.000001
v -0.218722 -0.322926 0.000001
v 0.153575 -0.321642 0.153576
v 0.154660 -0.322926 0.154661
v 0.083114 -0.393726 0.083115
v 0.083943 -0.395346 0.083944
v 0.283769 -0.204046 0.000001
v 0.285659 -0.204699 0.000001
v 0.000000 -0.393726 0.117542
v 0.000000 -0.395346 0.118714
v 0.200655 -0.204046 -0.200655
v 0.201992 -0.204699 -0.201992
v 0.304682 -0.086505 0.000001
v 0.306651 -0.086855 0.000001
v 0.215443 -0.086505 -0.215442
v 0.216835 -0.086855 -0.216834
v 0.000000 -0.086505 -0.304682
v -0.000000 -0.086855 -0.306651
v 0.200655 -0.204046 0.200656
v 0.201992 -0.204699 0.201993
v 0.215443 -0.086505 0.215444
v 0.216835 -0.086855 0.216836
v 0.000000 -0.086505 0.304682
v 0.000000 -0.086855 0.306651
v -0.200655 -0.204046 -0.200654
v -0.201992 -0.204699 -0.201991
v -0.215443 -0.086505 -0.215442
v -0.216835 -0.086855 -0.216834
v -0.304682 -0.086505 0.000001
v -0.306651 -0.086855 0.000001
v -0.283770 -0.204046 0.000001
v -0.285660 -0.204699 0.000001
v -0.200655 -0.204046 0.200656
v -0.201992 -0.204699 0.201993
v -0.215443 -0.086505 0.215444
v -0.216835 -0.086855 0.216836
v -0.153575 -0.321642 0.153576
v -0.154660 -0.322926 0.154661
v -0.083114 -0.393726 0.083115
v -0.083943 -0.395346 0.083944
v 0.000000 -0.204046 0.283770
v 0.000000 -0.204699 0.285661
v 0.000000 -0.321642 0.217189
v 0.000000 -0.322926 0.218723
v 0.200655 0.031036 -0.200655
v 0.201992 0.031689 -0.201992
v 0.000000 0.001651 -0.288998
v -0.000000 0.002001 -0.290967
v 0.000000 0.031036 -0.283769
v -0.000000 0.031689 -0.285659
v 0.204352 0.001651 -0.204351
v 0.205744 0.002001 -0.205743
v 0.288998 0.001651 0.000001
v 0.290967 0.002001 0.000001
v -0.200655 0.031036 -0.200654
v -0.201992 0.031689 -0.201991
v -0.204351 0.001651 -0.204351
v -0.205743 0.002001 -0.205743
v -0.288998 0.001651 0.000001
v -0.290967 0.002001 0.000001
v 0.153575 0.148632 -0.153574
v 0.154639 0.149949 -0.154638
v 0.283769 0.031036 0.000001
v 0.285659 0.031689 0.000001
v 0.200655 0.031036 0.200656
v 0.201992 0.031689 0.201993
v 0.204352 0.001651 0.204353
v 0.205744 0.002001 0.205745
v 0.000000 0.001651 0.288998
v -0.000000 0.002001 0.290967
v 0.153575 0.148632 0.153576
v 0.154639 0.149949 0.154640
v 0.000000 0.031036 0.283770
v -0.000000 0.031689 0.285660
v -0.200655 0.031036 0.200656
v -0.201992 0.031689 0.201993
v -0.204351 0.001651 0.204353
v -0.205743 0.002001 0.205745
v -0.153575 0.148632 0.153576
v -0.154639 0.149949 0.154640
v -0.283770 0.031036 0.000001
v -0.285661 0.031689 0.000001
v 0.000000 0.148632 0.217189
v 0.000000 0.149949 0.218694
v 0.000000 0.198175 0.140300
v 0.000000 0.199856 0.141383
v -0.099207 0.198175 0.099207
v -0.099973 0.199856 0.099973
v 0.099207 0.198175 0.099207
v 0.099973 0.199856 0.099973
v -0.217188 0.148632 0.000001
v -0.218693 0.149949 0.000001
v -0.140300 0.198175 0.000001
v -0.141383 0.199856 0.000001
v -0.153575 0.148632 -0.153574
v -0.154639 0.149949 -0.154638
v -0.099207 0.198175 -0.099206
v -0.099973 0.199856 -0.099972
v 0.000000 0.198175 -0.140299
v -0.000000 0.199856 -0.141382
v 0.000000 0.148632 -0.217187
v -0.000000 0.149949 -0.218692
v 0.099207 0.198175 -0.099206
v 0.099973 0.199856 -0.099972
v 0.217188 0.148632 0.000001
v 0.218693 0.149949 0.000001
v 0.140299 0.198175 0.000001
v 0.141382 0.199856 0.000001
v -0.135891 0.482391 0.050437
v -0.135891 0.482391 0.052437
v -0.084976 0.414572 0.050437
v -0.084976 0.414572 0.052437
v 0.098124 0.482391 0.050437
v 0.098124 0.482391 0.052437
v -0.144976 0.438572 0.050437
v -0.144976 0.438572 0.052437
v 0.098124 0.342202 0.050437
v 0.098124 0.342202 0.052437
v 0.284449 0.323660 0.050437
v 0.284449 0.323660 0.052437
v 0.212449 0.275290 0.050437
v 0.212449 0.275290 0.052437
v 0.060097 0.299267 0.050437
v 0.060097 0.299267 0.052437
v -0.061864 0.299267 0.050437
v -0.061864 0.299267 0.052437
v -0.094671 0.342202 0.050437
v -0.094671 0.342202 0.052437
v 0.060097 0.299267 -0.050363
v 0.060097 0.299267 -0.052363
v -0.084976 0.414572 -0.050363
v -0.084976 0.414572 -0.052363
v 0.098124 0.342202 -0.050363
v 0.098124 0.342202 -0.052363
v -0.061864 0.299267 -0.050363
v -0.061864 0.299267 -0.052363
v -0.094671 0.342202 -0.050363
v -0.094671 0.342202 -0.052363
v 0.098124 0.482391 -0.050363
v 0.098124 0.482391 -0.052363
v 0.284449 0.323660 -0.050363
v 0.284449 0.323660 -0.052363
v 0.212449 0.275290 -0.050363
v 0.212449 0.275290 -0.052363
v -0.135891 0.482391 -0.050363
v -0.135891 0.482391 -0.052363
v -0.144976 0.438572 -0.050363
v -0.144976 0.438572 -0.052363
v -0.084976 0.414572 -0.050363
v -0.086703 0.413563 -0.050363
v -0.094671 0.342202 -0.050363
v -0.096604 0.341689 -0.050363
v -0.094671 0.342202 0.050437
v -0.096604 0.341689 0.050437
v -0.061864 0.299267 0.050437
v -0.063453 0.298053 0.050437
v -0.061864 0.299267 -0.050363
v -0.063453 0.298053 -0.050363
v -0.084976 0.414572 0.050437
v -0.086703 0.413563 0.050437
v -0.144976 0.438572 0.050437
v -0.146738 0.437626 0.050437
v -0.144976 0.438572 -0.050363
v -0.146738 0.437626 -0.050363
v -0.135891 0.482391 -0.050363
v -0.137849 0.482797 -0.050363
v -0.135891 0.482391 0.050437
v -0.137849 0.482797 0.050437
v 0.284449 0.323660 -0.050363
v 0.285564 0.322000 -0.050363
v 0.284449 0.323660 0.050437
v 0.285564 0.322000 0.050437
v 0.212449 0.275290 -0.050363
v 0.213564 0.273630 -0.050363
v 0.212449 0.275290 0.050437
v 0.213564 0.273630 0.050437
v -0.061864 0.299267 -0.050363
v -0.061864 0.297267 -0.050363
v 0.060097 0.299267 -0.050363
v 0.060097 0.297267 -0.050363
v 0.060097 0.299267 0.050437
v 0.060097 0.297267 0.050437
v -0.061864 0.299267 0.050437
v -0.061864 0.297267 0.050437
v 0.098124 0.342202 -0.050363
v 0.098439 0.340227 -0.050363
v 0.098124 0.342202 0.050437
v 0.098439 0.340227 0.050437
v 0.060097 0.299267 -0.050363
v 0.061594 0.297941 -0.050363
v 0.060097 0.299267 0.050437
v 0.061594 0.297941 0.050437
v 0.212449 0.275290 -0.050363
v 0.211439 0.273564 -0.050363
v 0.212449 0.275290 0.050437
v 0.211439 0.273564 0.050437
v -0.118577 -0.393920 -0.000971
v -0.216700 -0.322900 -0.000971
v -0.153917 -0.322900 -0.152542
v -0.084534 -0.393920 -0.083158
v -0.203997 0.002813 0.205309
v -0.000926 0.002813 0.289423
v -0.000926 0.030376 0.284507
v -0.200522 0.030376 0.201832
v 0.153917 -0.322900 -0.152542
v 0.216700 -0.322900 -0.000971
v 0.118577 -0.393920 -0.000971
v 0.084534 -0.393920 -0.083158
v -0.118577 -0.393920 0.000973
v -0.084534 -0.393920 0.083160
v -0.153917 -0.322900 0.152544
v -0.216700 -0.322900 0.000973
v 0.152504 0.149863 0.153885
v 0.099242 0.198444 0.100622
v 0.000976 0.198444 0.141325
v 0.000976 0.149863 0.216650
v -0.201831 0.030376 0.200523
v -0.284507 0.030376 0.000927
v -0.289423 0.002813 0.000927
v -0.205307 0.002813 0.203999
v 0.200522 0.030376 -0.201831
v 0.203998 0.002813 -0.205307
v 0.000926 0.002813 -0.289423
v 0.000926 0.030376 -0.284506
v -0.061370 0.300267 0.051437
v 0.059647 0.300267 0.051437
v 0.097920 0.343480 0.051437
v 0.212412 0.276470 0.051437
v 0.282796 0.323754 0.051437
v 0.097756 0.481391 0.051437
v -0.135077 0.481391 0.051437
v -0.143827 0.439189 0.051437
v -0.083881 0.415211 0.051437
v -0.093625 0.342480 0.051437
v -0.095505 0.342936 0.049437
v -0.085972 0.413077 0.049437
v -0.085972 0.413077 -0.049363
v -0.095505 0.342936 -0.049363
v 0.099231 0.482681 0.049437
v 0.284336 0.325070 0.049437
v 0.284336 0.325070 -0.049363
v 0.099231 0.482681 -0.049363
v 0.201831 0.030376 0.200523
v 0.205308 0.002813 0.203999
v 0.289423 0.002813 0.000927
v 0.284506 0.030376 0.000927
v 0.152543 -0.322900 0.153918
v 0.000972 -0.322900 0.216701
v 0.000972 -0.393920 0.118578
v 0.083159 -0.393920 0.084535
v 0.284177 0.322272 0.049437
v 0.213837 0.275018 0.049437
v 0.213837 0.275018 -0.049363
v 0.284177 0.322272 -0.049363
v 0.282796 0.323754 -0.051363
v 0.212412 0.276470 -0.051363
v 0.097920 0.343480 -0.051363
v 0.059647 0.300267 -0.051363
v -0.061370 0.300267 -0.051363
v -0.093625 0.342480 -0.051363
v -0.083881 0.415211 -0.051363
v -0.143827 0.439189 -0.051363
v -0.135077 0.481391 -0.051363
v 0.097756 0.481391 -0.051363
v -0.154852 0.148404 0.153522
v -0.218053 0.148404 0.000942
v -0.283824 0.032248 0.000942
v -0.201358 0.032248 0.200029
v -0.000926 0.002813 -0.289423
v -0.203997 0.002813 -0.205307
v -0.200522 0.030376 -0.201830
v -0.000926 0.030376 -0.284506
v -0.153531 -0.321398 0.154863
v -0.000941 -0.321398 0.218068
v -0.000941 -0.205258 0.283824
v -0.200028 -0.205258 0.201359
v 0.200522 0.030376 0.201832
v 0.000926 0.030376 0.284507
v 0.000926 0.002813 0.289423
v 0.203998 0.002813 0.205309
v -0.200522 -0.203386 0.201832
v -0.000926 -0.203386 0.284507
v -0.000926 -0.087667 0.305107
v -0.215089 -0.087667 0.216400
v -0.000976 0.198444 0.141325
v -0.099242 0.198444 0.100622
v -0.152504 0.149863 0.153885
v -0.000976 0.149863 0.216650
v 0.064194 -0.483391 0.000001
v 0.045806 -0.483391 0.044393
v 0.040563 -0.483391 0.039149
v 0.056778 -0.483391 0.000001
v 0.040148 -0.483391 -0.040147
v 0.001000 -0.483391 -0.056364
v 0.001000 -0.483391 -0.063778
v 0.045392 -0.483391 -0.045391
v -0.000972 -0.393920 -0.118576
v -0.083159 -0.393920 -0.084533
v -0.152543 -0.322900 -0.153916
v -0.000972 -0.322900 -0.216699
v -0.100622 0.198444 0.099242
v -0.141325 0.198444 0.000977
v -0.216649 0.149863 0.000977
v -0.153884 0.149863 0.152505
v 0.084208 -0.447416 0.000940
v 0.060208 -0.447416 0.058881
v 0.047505 -0.481951 0.046178
v 0.066243 -0.481951 0.000940
v 0.000939 -0.447416 0.084210
v 0.000939 -0.481951 0.066244
v 0.046177 -0.481951 0.047506
v 0.058880 -0.447416 0.060209
v 0.216399 -0.087667 -0.215088
v 0.305107 -0.087667 -0.000925
v 0.284506 -0.203386 -0.000925
v 0.201831 -0.203386 -0.200522
v 0.154852 0.148404 -0.153520
v 0.218053 0.148404 -0.000940
v 0.283823 0.032248 -0.000940
v 0.201358 0.032248 -0.200028
v -0.154862 -0.321398 -0.153530
v -0.218067 -0.321398 -0.000940
v -0.283824 -0.205258 -0.000940
v -0.201358 -0.205258 -0.200027
v -0.200522 -0.203386 -0.201830
v -0.215089 -0.087667 -0.216398
v -0.000926 -0.087667 -0.305107
v -0.000926 -0.203386 -0.284506
v 0.000941 -0.321398 0.218068
v 0.153531 -0.321398 0.154863
v 0.200028 -0.205258 0.201359
v 0.000941 -0.205258 0.283824
v -0.000939 -0.447416 0.084210
v -0.058881 -0.447416 0.060209
v -0.046177 -0.481951 0.047506
v -0.000939 -0.481951 0.066244
v -0.047505 -0.481951 0.046178
v -0.060209 -0.447416 0.058881
v -0.084208 -0.447416 0.000940
v -0.066243 -0.481951 0.000940
v -0.000972 -0.322900 0.216701
v -0.152543 -0.322900 0.153918
v -0.083159 -0.393920 0.084535
v -0.000972 -0.393920 0.118578
v 0.152543 -0.322900 -0.153916
v 0.083159 -0.393920 -0.084533
v 0.000972 -0.393920 -0.118576
v 0.000972 -0.322900 -0.216699
v 0.000941 0.032248 -0.283823
v 0.000941 0.148404 -0.218052
v 0.153521 0.148404 -0.154851
v 0.200028 0.032248 -0.201358
v -0.283824 0.032248 -0.000940
v -0.218053 0.148404 -0.000940
v -0.154852 0.148404 -0.153520
v -0.201358 0.032248 -0.200027
v -0.289423 0.002813 -0.000925
v -0.284507 0.030376 -0.000925
v -0.201831 0.030376 -0.200521
v -0.205307 0.002813 -0.203997
v -0.153531 -0.321398 -0.154861
v -0.200028 -0.205258 -0.201357
v -0.000941 -0.205258 -0.283823
v -0.000941 -0.321398 -0.218066
v -0.154862 -0.321398 0.153532
v -0.201358 -0.205258 0.200029
v -0.283824 -0.205258 0.000942
v -0.218067 -0.321398 0.000942
v 0.218053 0.148404 0.000942
v 0.154852 0.148404 0.153522
v 0.201358 0.032248 0.200029
v 0.283823 0.032248 0.000942
v 0.201358 -0.205258 -0.200028
v 0.283823 -0.205258 -0.000940
v 0.218067 -0.321398 -0.000940
v 0.154862 -0.321398 -0.153530
v 0.305107 -0.087667 0.000927
v 0.216399 -0.087667 0.215090
v 0.201831 -0.203386 0.200523
v 0.284506 -0.203386 0.000927
v 0.084208 -0.447416 -0.000938
v 0.066243 -0.481951 -0.000938
v 0.047505 -0.481951 -0.046176
v 0.060208 -0.447416 -0.058880
v 0.200522 -0.203386 -0.201831
v 0.000926 -0.203386 -0.284506
v 0.000926 -0.087667 -0.305107
v 0.215089 -0.087667 -0.216398
v 0.283823 -0.205258 0.000942
v 0.201358 -0.205258 0.200029
v 0.154862 -0.321398 0.153532
v 0.218067 -0.321398 0.000942
v -0.141325 0.198444 -0.000975
v -0.100622 0.198444 -0.099241
v -0.153884 0.149862 -0.152503
v -0.216649 0.149863 -0.000975
v -0.000941 0.032248 0.283824
v -0.000941 0.148404 0.218054
v -0.153521 0.148404 0.154853
v -0.200028 0.032248 0.201359
v -0.000976 0.149862 -0.216648
v -0.152504 0.149862 -0.153883
v -0.099242 0.198444 -0.100621
v -0.000976 0.198444 -0.141324
v 0.153521 0.148404 0.154853
v 0.000941 0.148404 0.218054
v 0.000941 0.032248 0.283824
v 0.200028 0.032248 0.201359
v 0.000976 0.198444 -0.141324
v 0.099242 0.198444 -0.100621
v 0.152504 0.149862 -0.153883
v 0.000976 0.149862 -0.216648
v -0.047505 -0.481951 -0.046176
v -0.066243 -0.481951 -0.000938
v -0.084208 -0.447416 -0.000938
v -0.060209 -0.447416 -0.058880
v -0.046177 -0.481951 -0.047504
v -0.058881 -0.447416 -0.060208
v -0.000939 -0.447416 -0.084207
v -0.000939 -0.481951 -0.066242
v 0.100622 0.198444 -0.099241
v 0.141324 0.198444 -0.000975
v 0.216649 0.149863 -0.000975
v 0.153884 0.149862 -0.152503
v 0.216649 0.149863 0.000977
v 0.141324 0.198444 0.000977
v 0.100622 0.198444 0.099242
v 0.153884 0.149863 0.152505
v 0.000926 -0.203386 0.284507
v 0.200522 -0.203386 0.201832
v 0.215089 -0.087667 0.216400
v 0.000926 -0.087667 0.305107
v 0.097470 0.483329 -0.049363
v -0.134891 0.483391 -0.049363
v -0.134891 0.483391 0.049437
v 0.097470 0.483329 0.049437
v -0.201831 -0.203386 -0.200521
v -0.284507 -0.203386 -0.000925
v -0.305107 -0.087667 -0.000925
v -0.216399 -0.087667 -0.215088
v -0.063266 0.299454 -0.049363
v -0.063266 0.299454 0.049437
v -0.095030 0.341151 0.049437
v -0.095030 0.341151 -0.049363
v 0.046177 -0.481951 -0.047504
v 0.000939 -0.481951 -0.066242
v 0.000939 -0.447416 -0.084207
v 0.058880 -0.447416 -0.060208
v 0.201831 0.030376 -0.200522
v 0.284506 0.030376 -0.000925
v 0.289423 0.002813 -0.000925
v 0.205308 0.002813 -0.203997
v -0.144928 0.437727 -0.049363
v -0.086768 0.414439 -0.049363
v -0.086768 0.414439 0.049437
v -0.144928 0.437727 0.049437
v 0.211081 0.274932 -0.049363
v 0.211081 0.274932 0.049437
v 0.099145 0.340709 0.049437
v 0.099145 0.340709 -0.049363
v 0.153917 -0.322900 0.152544
v 0.084534 -0.393920 0.083160
v 0.118577 -0.393920 0.000973
v 0.216700 -0.322900 0.000973
v 0.059097 0.298267 0.049437
v -0.060864 0.298267 0.049437
v -0.060864 0.298267 -0.049363
v 0.059097 0.298267 -0.049363
v -0.201831 -0.203386 0.200523
v -0.216399 -0.087667 0.215090
v -0.305107 -0.087667 0.000927
v -0.284507 -0.203386 0.000927
v -0.153521 0.148404 -0.154851
v -0.000941 0.148404 -0.218052
v -0.000941 0.032248 -0.283823
v -0.200028 0.032248 -0.201357
v -0.056779 -0.483391 0.000001
v -0.040148 -0.483391 0.040149
v 0.000000 -0.483391 0.056779
v 0.039148 -0.483391 0.040564
v 0.044392 -0.483391 0.045807
v 0.000000 -0.483391 0.064195
v -0.045392 -0.483391 0.045393
v -0.064194 -0.483391 0.000001
v -0.045392 -0.483391 -0.045391
v -0.001000 -0.483391 -0.063778
v -0.001000 -0.483391 -0.056364
v -0.040148 -0.483391 -0.040147
v 0.000941 -0.205258 -0.283823
v 0.200028 -0.205258 -0.201358
v 0.153531 -0.321398 -0.154861
v 0.000941 -0.321398 -0.218066
v 0.097619 0.340466 0.049437
v 0.061509 0.299353 0.049437
v 0.061509 0.299353 -0.049363
v 0.097619 0.340466 -0.049363
v -0.145654 0.439078 0.049437
v -0.137073 0.481615 0.049437
v -0.137073 0.481615 -0.049363
v -0.145654 0.439078 -0.049363
vn -0.4240 0.4044 -0.8103
vn 0.6035 -0.5085 -0.6142
vn 0.7091 0.7051 -0.0000
vn 0.1694 0.9855 -0.0000
vn -0.8712 -0.4909 -0.0000
vn -0.7943 -0.6076 -0.0000
vn -0.0076 -0.5085 0.8610
vn 0.5014 0.7051 0.5014
vn -0.5616 -0.6076 -0.5616
vn -0.8728 0.4044 0.2732
vn 0.1198 0.9855 0.1198
vn -0.6160 -0.4909 -0.6160
vn 0.6570 0.6775 0.3308
vn -0.6985 0.6775 -0.2306
vn -0.0000 0.3014 -0.9535
vn 0.6742 0.3014 -0.6742
vn -0.5742 0.5836 0.5742
vn -0.0000 0.5836 0.8120
vn -0.7563 -0.6517 0.0580
vn -0.0000 -0.3703 -0.9289
vn -0.0000 0.3058 0.9521
vn 0.4938 -0.6517 0.5758
vn 0.6569 -0.3703 -0.6569
vn -0.6732 0.3058 0.6732
vn 0.0076 -0.5085 0.8610
vn -0.6035 -0.5085 -0.6142
vn -0.7091 0.7051 -0.0000
vn -0.5014 0.7051 0.5014
vn 0.5616 -0.6076 -0.5616
vn 0.7943 -0.6076 -0.0000
vn 0.4240 0.4044 -0.8103
vn -0.1694 0.9855 -0.0000
vn 0.8712 -0.4909 -0.0000
vn 0.8728 0.4044 0.2732
vn -0.1198 0.9855 0.1198
vn 0.6160 -0.4909 -0.6160
vn -0.4240 0.4044 0.8103
vn -0.8728 0.4044 -0.2732
vn 0.1198 0.9855 -0.1198
vn -0.6160 -0.4909 0.6160
vn -0.0076 -0.5085 -0.8610
vn 0.5014 0.7051 -0.5014
vn -0.5616 -0.6076 0.5616
vn 0.6035 -0.5085 0.6142
vn -0.8695 0.4938 -0.0096
vn -0.2598 -0.3749 0.8899
vn -0.0843 -0.9929 -0.0843
vn -0.4891 -0.7222 -0.4891
vn 0.5524 0.6243 0.5524
vn 0.5960 0.5380 0.5960
vn 0.8130 -0.3749 0.4455
vn -0.0000 -0.9929 -0.1192
vn -0.0000 0.5380 0.8429
vn 0.6080 0.4938 -0.6217
vn -0.0000 -0.7222 -0.6917
vn -0.0000 0.6243 0.7812
vn -0.5758 -0.6517 -0.4938
vn -0.0580 -0.6517 0.7563
vn 0.9289 -0.3703 -0.0000
vn -0.9521 0.3058 -0.0000
vn 0.2306 0.6775 0.6985
vn 0.9535 0.3014 -0.0000
vn -0.8120 0.5836 -0.0000
vn -0.3308 0.6775 -0.6570
vn -0.4938 -0.6517 -0.5758
vn -0.6570 0.6775 -0.3308
vn -0.6742 0.3014 0.6742
vn -0.6569 -0.3703 0.6569
vn 0.6732 0.3058 -0.6732
vn 0.5742 0.5836 -0.5742
vn 0.6985 0.6775 0.2306
vn -0.0000 0.3014 0.9535
vn -0.0000 0.5836 -0.8120
vn 0.7563 -0.6517 -0.0580
vn -0.0000 -0.3703 0.9289
vn -0.0000 0.3058 -0.9521
vn 0.4432 0.8964 -0.0000
vn -0.4105 0.9119 -0.0000
vn -0.2766 0.6144 -0.7389
vn 0.2958 0.5984 -0.7446
vn 0.2958 0.5984 0.7446
vn -0.2766 0.6144 0.7389
vn -0.1576 0.9875 -0.0000
vn -0.0963 0.6038 -0.7913
vn -0.0963 0.6038 0.7913
vn -0.0310 0.9995 -0.0000
vn -0.0200 0.6460 -0.7631
vn -0.0200 0.6460 0.7631
vn -0.9984 0.0570 -0.0000
vn -0.5162 0.0295 -0.8560
vn -0.5162 0.0295 0.8560
vn -0.3455 -0.9384 -0.0000
vn -0.2364 -0.6422 -0.7292
vn -0.2364 -0.6422 0.7292
vn 0.6313 -0.7756 -0.0000
vn 0.3869 -0.4753 -0.7902
vn 0.3869 -0.4753 0.7902
vn 0.8809 0.4732 -0.0000
vn 0.5359 0.2879 -0.7937
vn 0.5359 0.2879 0.7937
vn 0.8635 0.5043 -0.0000
vn 0.5349 0.3124 -0.7851
vn 0.5349 0.3124 0.7851
vn 0.9665 0.2567 -0.0000
vn 0.6558 0.1742 -0.7345
vn 0.6558 0.1742 0.7345
vn -0.0801 0.7426 -0.6649
vn 0.1940 -0.7386 -0.6456
vn 0.7746 0.4593 -0.4347
vn 0.8589 0.2225 -0.4612
vn -0.8750 -0.2269 -0.4277
vn -0.7487 -0.4439 -0.4923
vn 0.1940 -0.7386 0.6456
vn 0.7746 0.4593 0.4347
vn -0.7487 -0.4439 0.4923
vn -0.0801 0.7426 0.6649
vn 0.8589 0.2225 0.4612
vn -0.8750 -0.2269 0.4277
vn 0.6350 -0.3416 -0.6929
vn -0.5425 0.4622 -0.7014
vn -0.8422 -0.3607 -0.4008
vn -0.3044 -0.8266 -0.4733
vn 0.3098 0.8415 -0.4426
vn 0.2221 0.8889 -0.4007
vn -0.5425 0.4622 0.7014
vn -0.8422 -0.3607 0.4008
vn 0.2221 0.8889 0.4007
vn 0.6350 -0.3416 0.6929
vn -0.3044 -0.8266 0.4733
vn 0.3098 0.8415 0.4426
vn 0.5758 -0.6517 -0.4938
vn 0.3308 0.6775 -0.6570
vn -0.6742 0.3014 -0.6742
vn -0.6568 -0.3703 -0.6569
vn 0.6732 0.3058 0.6732
vn 0.5742 0.5836 0.5742
vn -0.2307 0.6775 0.6984
vn -0.9535 0.3014 -0.0000
vn 0.8120 0.5836 -0.0000
vn 0.0580 -0.6517 0.7563
vn -0.9289 -0.3703 -0.0000
vn 0.9521 0.3058 -0.0000
vn -0.8610 -0.5085 0.0076
vn 0.6142 -0.5085 -0.6035
vn -0.0000 0.7051 -0.7091
vn -0.5014 0.7051 -0.5014
vn 0.5616 -0.6076 0.5616
vn -0.0000 -0.6076 0.7943
vn 0.8103 0.4044 0.4240
vn -0.0000 0.9855 -0.1694
vn -0.0000 -0.4909 0.8712
vn -0.2732 0.4044 0.8728
vn -0.1198 0.9855 -0.1198
vn 0.6160 -0.4909 0.6160
vn -0.5869 -0.3943 -0.7071
vn 0.5870 0.3943 -0.7071
vn -0.1164 0.9054 -0.4083
vn -0.7942 0.4501 -0.4083
vn 0.1164 -0.9054 -0.4082
vn 0.7942 -0.4501 -0.4082
vn 0.5870 0.3943 0.7071
vn -0.1164 0.9054 0.4083
vn 0.7942 -0.4501 0.4082
vn -0.5869 -0.3943 0.7071
vn -0.7942 0.4501 0.4083
vn 0.1164 -0.9054 0.4082
vn 0.5359 0.2879 0.7936
vn -0.7488 -0.5528 -0.3656
vn -0.2710 -0.5528 0.7880
vn 0.6917 -0.7222 -0.0000
vn 0.4891 -0.7222 -0.4891
vn -0.5524 0.6243 0.5524
vn -0.7812 0.6243 -0.0000
vn 0.3768 0.6409 0.6688
vn -0.2065 0.6409 -0.7393
vn -0.6984 0.6775 0.2306
vn 0.6570 0.6775 -0.3308
vn 0.6742 0.3014 0.6742
vn -0.5742 0.5836 -0.5742
vn 0.4938 -0.6516 -0.5758
vn 0.6568 -0.3703 0.6569
vn -0.6732 0.3058 -0.6732
vn -0.7563 -0.6517 -0.0580
vn 0.3698 0.5569 0.7437
vn -0.7874 0.5569 0.2644
vn -0.6693 -0.6406 -0.3764
vn -0.0000 0.3702 -0.9290
vn -0.0000 -0.3056 0.9522
vn 0.7394 -0.6406 0.2071
vn 0.6569 0.3702 -0.6569
vn -0.6733 -0.3056 0.6733
vn -0.4938 -0.6517 0.5758
vn 0.7563 -0.6517 0.0580
vn 0.6985 0.6775 -0.2306
vn -0.6570 0.6775 0.3308
vn 0.4937 0.6517 0.5758
vn -0.7563 0.6517 0.0580
vn -0.6985 -0.6774 -0.2307
vn -0.0000 -0.3014 -0.9535
vn -0.0000 -0.5834 0.8122
vn 0.6570 -0.6774 0.3307
vn 0.6742 -0.3014 -0.6742
vn -0.5743 -0.5834 0.5743
vn -0.8130 -0.3749 0.4455
vn 0.2598 -0.3749 0.8899
vn 0.0843 -0.9929 -0.0843
vn -0.5960 0.5380 0.5960
vn 0.8695 0.4938 -0.0096
vn -0.6080 0.4938 -0.6217
vn -1.0000 -0.0000 -0.0000
vn -0.1951 -0.0000 -0.9808
vn -0.2965 0.9078 -0.2965
vn -0.6786 0.7345 -0.0000
vn -0.6786 -0.7345 -0.0000
vn -0.2965 -0.9078 -0.2965
vn 0.9808 -0.0000 -0.1951
vn 0.2965 0.9078 0.2965
vn 0.2965 -0.9078 0.2965
vn 1.0000 -0.0000 -0.0000
vn 0.6786 0.7345 -0.0000
vn 0.6786 -0.7345 -0.0000
vn 0.7071 -0.0000 -0.7071
vn 0.4798 0.7345 -0.4798
vn 0.4798 -0.7345 -0.4798
vn 0.8315 -0.0000 -0.5556
vn -0.0000 0.9078 -0.4193
vn -0.0000 -0.9078 -0.4193
vn 0.5556 -0.0000 0.8315
vn -0.0000 0.9078 0.4194
vn -0.0000 -0.9078 0.4194
vn -0.7071 -0.0000 0.7071
vn -0.4798 0.7345 0.4798
vn -0.4798 -0.7345 0.4798
vn -0.8103 0.4044 -0.4240
vn 0.2732 0.4044 -0.8728
vn -0.0000 0.9855 0.1694
vn -0.0000 -0.4909 -0.8712
vn 0.8610 -0.5085 -0.0076
vn -0.6142 -0.5085 0.6035
vn -0.0000 0.7051 0.7091
vn -0.0000 -0.6076 -0.7943
vn -0.8899 -0.3749 -0.2598
vn -0.4455 -0.3749 0.8130
vn 0.1192 -0.9929 -0.0000
vn -0.8429 0.5380 -0.0000
vn 0.6217 0.4938 0.6080
vn 0.0096 0.4938 -0.8695
vn -0.4264 -0.6216 0.6571
vn 0.1631 -0.6216 -0.7661
vn -0.7071 0.0060 -0.7071
vn -1.0000 0.0060 -0.0000
vn 0.6027 -0.7979 -0.0000
vn 0.4262 -0.7979 0.4262
vn 0.6823 0.6016 -0.4154
vn -0.4068 0.8180 -0.4068
vn 0.7066 -0.0379 0.7066
vn 0.1887 0.6016 0.7762
vn -0.5753 0.8180 -0.0000
vn 0.9993 -0.0379 -0.0000
vn 0.6571 -0.6216 -0.4264
vn 0.7762 0.6016 0.1887
vn -0.0000 0.8180 -0.5753
vn -0.0000 0.0060 -1.0000
vn -0.0000 -0.7979 0.6027
vn -0.0000 -0.0379 0.9993
vn -0.4154 0.6016 0.6823
vn -0.7661 -0.6216 0.1631
vn 0.3307 -0.6774 0.6570
vn -0.2307 -0.6774 -0.6985
vn -0.9535 -0.3014 -0.0000
vn -0.6742 -0.3014 0.6742
vn 0.5743 -0.5834 -0.5743
vn 0.8122 -0.5834 -0.0000
vn 0.0580 0.6517 -0.7563
vn -0.9290 0.3702 -0.0000
vn 0.9522 -0.3056 -0.0000
vn 0.5758 0.6517 0.4937
vn -0.6569 0.3702 0.6569
vn 0.6733 -0.3056 -0.6733
vn 0.7488 -0.5528 0.3656
vn 0.2710 -0.5528 -0.7880
vn -0.6917 -0.7222 -0.0000
vn -0.4891 -0.7222 0.4891
vn 0.5524 0.6243 -0.5524
vn 0.7812 0.6243 -0.0000
vn -0.3768 0.6409 -0.6688
vn 0.2065 0.6409 0.7393
vn -0.7437 0.5569 0.3698
vn -0.2644 0.5569 -0.7874
vn 0.3764 -0.6406 -0.6693
vn 0.9290 0.3702 -0.0000
vn -0.9522 -0.3056 -0.0000
vn -0.2071 -0.6406 0.7394
vn 0.6569 0.3702 0.6569
vn -0.6733 -0.3056 -0.6733
vn 0.4937 0.6517 -0.5758
vn 0.6570 -0.6774 -0.3307
vn 0.6742 -0.3014 0.6742
vn -0.5743 -0.5834 -0.5743
vn -0.6984 -0.6774 0.2307
vn -0.0000 -0.3014 0.9535
vn -0.0000 -0.5834 -0.8122
vn -0.7563 0.6517 -0.0580
vn -0.0000 0.3702 0.9290
vn -0.0000 -0.3056 -0.9522
vn 0.7874 0.5569 0.2644
vn -0.3698 0.5569 0.7437
vn -0.7394 -0.6406 0.2071
vn -0.6569 0.3702 -0.6569
vn 0.6733 -0.3056 0.6733
vn 0.6693 -0.6406 -0.3764
vn -0.6571 -0.6216 -0.4264
vn 0.7661 -0.6216 0.1631
vn 0.7071 0.0060 -0.7071
vn -0.4262 -0.7980 0.4262
vn 0.4154 0.6016 0.6823
vn 0.4068 0.8180 -0.4068
vn -0.7066 -0.0379 0.7066
vn -0.7762 0.6016 0.1887
vn -0.6823 0.6016 -0.4154
vn -0.1631 -0.6216 -0.7661
vn 0.4264 -0.6216 0.6571
vn 1.0000 0.0060 -0.0000
vn -0.6027 -0.7980 -0.0000
vn -0.1887 0.6016 0.7762
vn 0.5753 0.8180 -0.0000
vn -0.9993 -0.0379 -0.0000
vn -0.6142 -0.5085 -0.6035
vn 0.8610 -0.5085 0.0076
vn 0.2732 0.4044 0.8728
vn -0.8103 0.4044 0.4240
vn -0.8610 -0.5085 -0.0076
vn -0.2732 0.4044 -0.8728
vn 0.8103 0.4044 -0.4240
vn 0.6142 -0.5085 0.6035
vn 0.6688 0.6409 0.3767
vn 0.7880 -0.5528 -0.2710
vn -0.0000 -0.7222 0.6917
vn -0.0000 0.6243 -0.7812
vn -0.3656 -0.5528 -0.7488
vn -0.7393 0.6409 -0.2065
vn 0.3768 0.6409 -0.6688
vn -0.2710 -0.5528 -0.7880
vn -0.7488 -0.5528 0.3656
vn 0.4891 -0.7222 0.4891
vn -0.5524 0.6243 -0.5524
vn -0.2065 0.6409 0.7393
vn 0.2306 0.6775 -0.6985
vn -0.0580 -0.6517 -0.7563
vn -0.5758 -0.6517 0.4938
vn -0.3308 0.6775 0.6570
vn 0.3698 0.5569 -0.7437
vn 0.7394 -0.6406 -0.2071
vn -0.6693 -0.6406 0.3764
vn -0.7874 0.5569 -0.2644
vn -0.7437 0.5569 -0.3698
vn -0.2071 -0.6406 -0.7394
vn 0.3764 -0.6406 0.6693
vn -0.2644 0.5569 0.7874
vn 0.2710 -0.5528 0.7880
vn 0.7488 -0.5528 -0.3656
vn 0.2065 0.6409 -0.7393
vn -0.3768 0.6409 0.6688
vn 0.2071 -0.6406 0.7394
vn -0.3764 -0.6406 -0.6693
vn 0.2644 0.5569 -0.7874
vn 0.7437 0.5569 0.3698
vn -0.2307 -0.6774 0.6984
vn 0.3307 -0.6775 -0.6570
vn -0.6742 -0.3014 -0.6742
vn 0.5743 -0.5834 0.5743
vn 0.5758 0.6517 -0.4937
vn 0.0580 0.6517 0.7563
vn -0.4264 -0.6216 -0.6571
vn 0.1887 0.6016 -0.7762
vn 0.6823 0.6016 0.4154
vn -0.4068 0.8180 0.4068
vn 0.7066 -0.0379 -0.7066
vn 0.1631 -0.6216 0.7661
vn -0.7071 0.0060 0.7071
vn 0.4262 -0.7980 -0.4262
vn -0.4937 0.6517 -0.5758
vn 0.7563 0.6517 -0.0580
vn 0.6984 -0.6775 0.2307
vn -0.6570 -0.6774 -0.3307
vn -0.3764 -0.6406 0.6693
vn 0.2071 -0.6406 -0.7394
vn 0.7437 0.5569 -0.3698
vn 0.2644 0.5569 0.7874
vn -0.4455 -0.3749 -0.8130
vn -0.8899 -0.3749 0.2598
vn 0.0843 -0.9929 0.0843
vn -0.5960 0.5380 -0.5960
vn 0.0096 0.4938 0.8695
vn 0.6217 0.4938 -0.6080
vn -0.6688 0.6409 -0.3767
vn -0.7880 -0.5528 0.2710
vn 0.3656 -0.5528 0.7488
vn 0.7393 0.6409 0.2065
vn -0.6081 0.4938 0.6217
vn 0.8695 0.4938 0.0096
vn 0.2598 -0.3749 -0.8899
vn -0.8130 -0.3749 -0.4455
vn -0.0000 -0.9929 0.1192
vn -0.0000 0.5380 -0.8429
vn -0.3656 -0.5528 0.7488
vn 0.7880 -0.5528 0.2710
vn 0.6688 0.6409 -0.3767
vn -0.7393 0.6409 0.2065
vn 0.8130 -0.3749 -0.4455
vn -0.2598 -0.3749 -0.8899
vn -0.0843 -0.9929 0.0843
vn 0.5960 0.5380 -0.5960
vn -0.8695 0.4938 0.0096
vn 0.6081 0.4938 0.6217
vn -0.6823 0.6016 0.4154
vn -0.1887 0.6016 -0.7762
vn 0.4068 0.8180 0.4068
vn -0.7066 -0.0379 -0.7066
vn 0.4264 -0.6216 -0.6571
vn -0.1631 -0.6216 0.7661
vn 0.7071 0.0060 0.7071
vn -0.4262 -0.7980 -0.4262
vn 0.4154 0.6016 -0.6823
vn 0.7661 -0.6216 -0.1631
vn -0.6571 -0.6216 0.4264
vn -0.0000 0.0060 1.0000
vn -0.0000 -0.7980 -0.6027
vn -0.7762 0.6016 -0.1887
vn -0.0000 0.8180 0.5753
vn -0.0000 -0.0379 -0.9993
vn 0.8899 -0.3749 0.2598
vn 0.4455 -0.3749 -0.8130
vn -0.1192 -0.9929 -0.0000
vn 0.8429 0.5380 -0.0000
vn -0.6217 0.4938 -0.6080
vn -0.0096 0.4938 0.8695
vn -0.6217 0.4938 0.6080
vn 0.4455 -0.3749 0.8130
vn 0.8899 -0.3749 -0.2598
vn -0.0096 0.4938 -0.8695
vn 0.7563 0.6517 0.0580
vn -0.4937 0.6517 0.5758
vn -0.6570 -0.6774 0.3307
vn 0.6985 -0.6774 -0.2307
vn -0.7049 0.1518 0.6929
vn 0.7127 0.0001 0.7014
vn 0.4071 -0.8207 0.4008
vn 0.4074 0.8206 0.4007
vn 0.7127 0.0001 -0.7014
vn 0.4071 -0.8207 -0.4008
vn 0.4074 0.8206 -0.4007
vn -0.7049 0.1518 -0.6929
vn -0.5758 0.6517 0.4937
vn -0.0580 0.6517 -0.7563
vn 0.2307 -0.6774 -0.6985
vn 0.9535 -0.3014 -0.0000
vn -0.8122 -0.5834 -0.0000
vn -0.3307 -0.6775 0.6570
vn -0.4339 0.5674 0.6999
vn -0.4339 0.5674 -0.6999
vn 0.4061 0.8221 -0.3991
vn 0.4061 0.8221 0.3991
vn -0.9004 -0.1744 0.3985
vn -0.9004 -0.1744 -0.3985
vn 0.2934 -0.6619 -0.6898
vn 0.2934 -0.6619 0.6898
vn -0.4154 0.6016 -0.6823
vn 0.7762 0.6016 -0.1887
vn 0.6571 -0.6216 0.4264
vn -0.7661 -0.6216 -0.1631
vn 0.5758 -0.6516 0.4938
vn 0.0580 -0.6517 -0.7563
vn -0.2306 0.6775 -0.6984
vn 0.3308 0.6775 0.6570
vn 0.5505 -0.5594 0.6197
vn -0.5589 0.5473 0.6230
vn 0.7536 0.4171 0.5080
vn -0.7836 -0.4312 0.4473
vn -0.5589 0.5473 -0.6230
vn 0.5505 -0.5594 -0.6197
vn 0.7536 0.4171 -0.5080
vn -0.7836 -0.4312 -0.4473
vn -0.6301 0.3682 0.6837
vn -0.6301 0.3682 -0.6837
vn 0.0718 0.9225 -0.3793
vn 0.0718 0.9225 0.3793
vn -0.7704 -0.5131 0.3784
vn -0.7704 -0.5131 -0.3784
vn 0.7529 -0.0969 -0.6509
vn -0.1399 0.8753 -0.4629
vn 0.1353 -0.8396 -0.5262
vn 0.7529 -0.0969 0.6509
vn -0.1399 0.8753 0.4629
vn 0.1353 -0.8396 0.5262
vn 0.0076 -0.5085 -0.8610
vn 0.8728 0.4044 -0.2731
vn 0.4240 0.4044 0.8103
vn -0.6035 -0.5085 0.6142
vn -0.7071 -0.0000 -0.7071
vn 0.4082 0.8165 -0.4082
vn -0.4082 0.8165 -0.4082
vn -0.4082 -0.8165 -0.4082
vn 0.4082 -0.8165 -0.4082
vn 0.7071 -0.0000 0.7071
vn 0.4082 0.8165 0.4082
vn 0.4082 -0.8165 0.4082
vn -0.4082 0.8165 0.4082
vn -0.4082 -0.8165 0.4082
vn -0.5758 0.6517 -0.4937
vn -0.3307 -0.6775 -0.6570
vn 0.2307 -0.6774 0.6985
vn -0.0580 0.6517 0.7563
vn 0.3656 -0.5528 -0.7488
vn -0.7880 -0.5528 -0.2710
vn -0.6688 0.6409 0.3768
vn 0.7393 0.6409 -0.2065
vn -0.0000 -0.0000 1.0000
vn -0.0000 0.7345 0.6786
vn -0.0000 -0.7345 0.6786
vn -0.1951 -0.0000 0.9808
vn -0.9808 -0.0000 -0.1951
vn -0.0000 -0.0000 -1.0000
vn -0.0000 0.7345 -0.6786
vn -0.0000 -0.7345 -0.6786
vn 0.4798 0.7345 0.4798
vn 0.4798 -0.7345 0.4798
vn -0.5556 -0.0000 0.8315
vn -0.8315 -0.0000 -0.5556
vn -0.4798 0.7345 -0.4798
vn -0.4798 -0.7345 -0.4798
vn 0.6693 -0.6406 0.3764
vn -0.7394 -0.6406 -0.2071
vn -0.3698 0.5569 -0.7437
vn 0.7874 0.5569 -0.2644
vn -0.6856 -0.3258 -0.6510
vn 0.4852 0.5459 -0.6831
vn -0.3557 0.8542 -0.3792
vn 0.8928 -0.2462 -0.3772
vn 0.4852 0.5459 0.6831
vn -0.3557 0.8542 0.3792
vn 0.8928 -0.2462 0.3772
vn -0.6856 -0.3258 0.6510
vn -0.1516 0.7437 -0.6511
vn -0.1493 -0.7152 -0.6828
vn 0.7337 -0.5640 -0.3789
vn -0.8968 -0.2314 -0.3772
vn -0.1493 -0.7152 0.6828
vn 0.7337 -0.5640 0.3789
vn -0.8968 -0.2314 0.3772
vn -0.1516 0.7437 0.6511
vt 0.000000 0.000000
s 1
f 293/1/1 294/1/2 97/1/3 93/1/4
f 294/1/2 293/1/1 94/1/5 98/1/6
f 294/1/2 295/1/7 85/1/8 97/1/3
f 295/1/7 294/1/2 98/1/6 86/1/9
f 295/1/7 296/1/10 89/1/11 85/1/8
f 296/1/10 295/1/7 86/1/9 90/1/12
f 296/1/10 293/1/1 93/1/4 89/1/11
f 293/1/1 296/1/10 90/1/12 94/1/5
f 297/1/13 298/1/14 165/1/15 173/1/16
f 298/1/14 297/1/13 174/1/17 166/1/18
f 298/1/14 299/1/19 169/1/20 165/1/15
f 299/1/19 298/1/14 166/1/18 170/1/21
f 299/1/19 300/1/22 171/1/23 169/1/20
f 300/1/22 299/1/19 170/1/21 172/1/24
f 300/1/22 297/1/13 173/1/16 171/1/23
f 297/1/13 300/1/22 172/1/24 174/1/17
f 301/1/25 302/1/26 95/1/27 79/1/28
f 302/1/26 301/1/25 80/1/29 96/1/30
f 302/1/26 303/1/31 91/1/32 95/1/27
f 303/1/31 302/1/26 96/1/30 92/1/33
f 303/1/31 304/1/34 87/1/35 91/1/32
f 304/1/34 303/1/31 92/1/33 88/1/36
f 304/1/34 301/1/25 79/1/28 87/1/35
f 301/1/25 304/1/34 88/1/36 80/1/29
f 305/1/37 306/1/38 135/1/39 93/1/4
f 306/1/38 305/1/37 94/1/5 136/1/40
f 306/1/38 307/1/41 133/1/42 135/1/39
f 307/1/41 306/1/38 136/1/40 134/1/43
f 307/1/41 308/1/44 97/1/3 133/1/42
f 308/1/44 307/1/41 134/1/43 98/1/6
f 308/1/44 305/1/37 93/1/4 97/1/3
f 305/1/37 308/1/44 98/1/6 94/1/5
f 309/1/45 310/1/46 185/1/47 167/1/48
f 310/1/46 309/1/45 168/1/49 186/1/50
f 310/1/46 311/1/51 181/1/52 185/1/47
f 311/1/51 310/1/46 186/1/50 182/1/53
f 311/1/51 312/1/54 179/1/55 181/1/52
f 312/1/54 311/1/51 182/1/53 180/1/56
f 312/1/54 309/1/45 167/1/48 179/1/55
f 309/1/45 312/1/54 180/1/56 168/1/49
f 313/1/57 314/1/58 177/1/59 171/1/23
f 314/1/58 313/1/57 172/1/24 178/1/60
f 314/1/58 315/1/61 155/1/62 177/1/59
f 315/1/61 314/1/58 178/1/60 156/1/63
f 315/1/61 316/1/64 173/1/16 155/1/62
f 316/1/64 315/1/61 156/1/63 174/1/17
f 316/1/64 313/1/57 171/1/23 173/1/16
f 313/1/57 316/1/64 174/1/17 172/1/24
f 317/1/65 318/1/66 147/1/67 141/1/68
f 318/1/66 317/1/65 142/1/69 148/1/70
f 318/1/66 319/1/71 143/1/72 147/1/67
f 319/1/71 318/1/66 148/1/70 144/1/73
f 319/1/71 320/1/74 145/1/75 143/1/72
f 320/1/74 319/1/71 144/1/73 146/1/76
f 320/1/74 317/1/65 141/1/68 145/1/75
f 317/1/65 320/1/74 146/1/76 142/1/69
f 321/1/77 322/1/78 219/1/79 221/1/80
f 322/1/78 321/1/77 222/1/81 220/1/82
f 322/1/78 323/1/83 213/1/84 219/1/79
f 323/1/83 322/1/78 220/1/82 214/1/85
f 323/1/83 324/1/86 217/1/87 213/1/84
f 324/1/86 323/1/83 214/1/85 218/1/88
f 324/1/86 325/1/89 215/1/90 217/1/87
f 325/1/89 324/1/86 218/1/88 216/1/91
f 325/1/89 326/1/92 209/1/93 215/1/90
f 326/1/92 325/1/89 216/1/91 210/1/94
f 326/1/92 327/1/95 205/1/96 209/1/93
f 327/1/95 326/1/92 210/1/94 206/1/97
f 327/1/95 328/1/98 211/1/99 205/1/96
f 328/1/98 327/1/95 206/1/97 212/1/100
f 328/1/98 329/1/101 207/1/102 211/1/99
f 329/1/101 328/1/98 212/1/100 208/1/103
f 329/1/101 330/1/104 223/1/105 207/1/102
f 330/1/104 329/1/101 208/1/103 224/1/106
f 330/1/104 321/1/77 221/1/80 223/1/105
f 321/1/77 330/1/104 224/1/106 222/1/81
f 331/1/107 332/1/108 255/1/109 249/1/110
f 332/1/108 331/1/107 250/1/111 256/1/112
f 332/1/108 333/1/113 245/1/114 255/1/109
f 333/1/113 332/1/108 256/1/112 246/1/115
f 333/1/113 334/1/116 247/1/117 245/1/114
f 334/1/116 333/1/113 246/1/115 248/1/118
f 334/1/116 331/1/107 249/1/110 247/1/117
f 331/1/107 334/1/116 248/1/118 250/1/111
f 335/1/119 336/1/120 7/1/121 5/1/122
f 336/1/120 335/1/119 6/1/123 8/1/124
f 336/1/120 337/1/125 1/1/126 7/1/121
f 337/1/125 336/1/120 8/1/124 2/1/127
f 337/1/125 338/1/128 3/1/129 1/1/126
f 338/1/128 337/1/125 2/1/127 4/1/130
f 338/1/128 335/1/119 5/1/122 3/1/129
f 335/1/119 338/1/128 4/1/130 6/1/123
f 339/1/131 340/1/132 163/1/133 161/1/134
f 340/1/132 339/1/131 162/1/135 164/1/136
f 340/1/132 341/1/137 149/1/138 163/1/133
f 341/1/137 340/1/132 164/1/136 150/1/139
f 341/1/137 342/1/140 159/1/141 149/1/138
f 342/1/140 341/1/137 150/1/139 160/1/142
f 342/1/140 339/1/131 161/1/134 159/1/141
f 339/1/131 342/1/140 160/1/142 162/1/135
f 343/1/143 344/1/144 139/1/145 99/1/146
f 344/1/144 343/1/143 100/1/147 140/1/148
f 344/1/144 345/1/149 105/1/150 139/1/145
f 345/1/149 344/1/144 140/1/148 106/1/151
f 345/1/149 346/1/152 101/1/153 105/1/150
f 346/1/152 345/1/149 106/1/151 102/1/154
f 346/1/152 343/1/143 99/1/146 101/1/153
f 343/1/143 346/1/152 102/1/154 100/1/147
f 347/1/155 348/1/156 271/1/157 267/1/158
f 348/1/156 347/1/155 268/1/159 272/1/160
f 348/1/156 349/1/161 269/1/162 271/1/157
f 349/1/161 348/1/156 272/1/160 270/1/163
f 349/1/161 350/1/164 265/1/165 269/1/162
f 350/1/164 349/1/161 270/1/163 266/1/166
f 350/1/164 347/1/155 267/1/158 265/1/165
f 347/1/155 350/1/164 266/1/166 268/1/159
f 351/1/89 352/1/86 239/1/88 237/1/91
f 352/1/86 351/1/89 238/1/90 240/1/87
f 352/1/86 353/1/83 229/1/85 239/1/88
f 353/1/83 352/1/86 240/1/87 230/1/84
f 353/1/83 354/1/78 225/1/82 229/1/85
f 354/1/78 353/1/83 230/1/84 226/1/79
f 354/1/78 355/1/77 231/1/81 225/1/82
f 355/1/77 354/1/78 226/1/79 232/1/80
f 355/1/77 356/1/104 233/1/106 231/1/81
f 356/1/104 355/1/77 232/1/80 234/1/105
f 356/1/104 357/1/101 227/1/103 233/1/106
f 357/1/101 356/1/104 234/1/105 228/1/102
f 357/1/101 358/1/98 243/1/167 227/1/103
f 358/1/98 357/1/101 228/1/102 244/1/99
f 358/1/98 359/1/95 241/1/97 243/1/167
f 359/1/95 358/1/98 244/1/99 242/1/96
f 359/1/95 360/1/92 235/1/94 241/1/97
f 360/1/92 359/1/95 242/1/96 236/1/93
f 360/1/92 351/1/89 237/1/91 235/1/94
f 351/1/89 360/1/92 236/1/93 238/1/90
f 361/1/168 362/1/169 187/1/170 175/1/171
f 362/1/169 361/1/168 176/1/172 188/1/173
f 362/1/169 363/1/174 177/1/59 187/1/170
f 363/1/174 362/1/169 188/1/173 178/1/60
f 363/1/174 364/1/175 171/1/23 177/1/59
f 364/1/175 363/1/174 178/1/60 172/1/24
f 364/1/175 361/1/168 175/1/171 171/1/23
f 361/1/168 364/1/175 172/1/24 176/1/172
f 365/1/176 366/1/177 153/1/178 143/1/72
f 366/1/177 365/1/176 144/1/73 154/1/179
f 366/1/177 367/1/180 151/1/181 153/1/178
f 367/1/180 366/1/177 154/1/179 152/1/182
f 367/1/180 368/1/183 145/1/75 151/1/181
f 368/1/183 367/1/180 152/1/182 146/1/76
f 368/1/183 365/1/176 143/1/72 145/1/75
f 365/1/176 368/1/183 146/1/76 144/1/73
f 369/1/184 370/1/185 139/1/145 133/1/42
f 370/1/185 369/1/184 134/1/43 140/1/148
f 370/1/185 371/1/186 137/1/187 139/1/145
f 371/1/186 370/1/185 140/1/148 138/1/188
f 371/1/186 372/1/189 129/1/190 137/1/187
f 372/1/189 371/1/186 138/1/188 130/1/191
f 372/1/189 369/1/184 133/1/42 129/1/190
f 369/1/184 372/1/189 130/1/191 134/1/43
f 373/1/192 374/1/193 169/1/20 161/1/134
f 374/1/193 373/1/192 162/1/135 170/1/21
f 374/1/193 375/1/194 165/1/15 169/1/20
f 375/1/194 374/1/193 170/1/21 166/1/18
f 375/1/194 376/1/195 163/1/133 165/1/15
f 376/1/195 375/1/194 166/1/18 164/1/136
f 376/1/195 373/1/192 161/1/134 163/1/133
f 373/1/192 376/1/195 164/1/136 162/1/135
f 377/1/196 378/1/197 137/1/187 129/1/190
f 378/1/197 377/1/196 130/1/191 138/1/188
f 378/1/197 379/1/198 119/1/199 137/1/187
f 379/1/198 378/1/197 138/1/188 120/1/200
f 379/1/198 380/1/201 131/1/202 119/1/199
f 380/1/201 379/1/198 120/1/200 132/1/203
f 380/1/201 377/1/196 129/1/190 131/1/202
f 377/1/196 380/1/201 132/1/203 130/1/191
f 381/1/204 382/1/205 183/1/206 181/1/52
f 382/1/205 381/1/204 182/1/53 184/1/207
f 382/1/205 383/1/208 175/1/171 183/1/206
f 383/1/208 382/1/205 184/1/207 176/1/172
f 383/1/208 384/1/209 179/1/55 175/1/171
f 384/1/209 383/1/208 176/1/172 180/1/56
f 384/1/209 381/1/204 181/1/52 179/1/55
f 381/1/204 384/1/209 180/1/56 182/1/53
f 385/1/210 386/1/211 33/1/212 43/1/213
f 386/1/211 385/1/210 44/1/214 34/1/215
f 386/1/211 387/1/216 37/1/217 33/1/212
f 387/1/216 386/1/211 34/1/215 38/1/218
f 387/1/216 388/1/219 41/1/220 37/1/217
f 388/1/219 387/1/216 38/1/218 42/1/221
f 388/1/219 389/1/222 39/1/223 41/1/220
f 389/1/222 388/1/219 42/1/221 40/1/224
f 389/1/222 390/1/225 27/1/226 39/1/223
f 390/1/225 389/1/222 40/1/224 28/1/227
f 390/1/225 391/1/228 31/1/229 27/1/226
f 391/1/228 390/1/225 28/1/227 32/1/230
f 391/1/228 392/1/231 35/1/232 31/1/229
f 392/1/231 391/1/228 32/1/230 36/1/233
f 392/1/231 385/1/210 43/1/213 35/1/232
f 385/1/210 392/1/231 36/1/233 44/1/214
f 393/1/234 394/1/235 89/1/11 83/1/236
f 394/1/235 393/1/234 84/1/237 90/1/12
f 394/1/235 395/1/238 85/1/8 89/1/11
f 395/1/238 394/1/235 90/1/12 86/1/9
f 395/1/238 396/1/239 81/1/240 85/1/8
f 396/1/239 395/1/238 86/1/9 82/1/241
f 396/1/239 393/1/234 83/1/236 81/1/240
f 393/1/234 396/1/239 82/1/241 84/1/237
f 397/1/242 398/1/243 189/1/244 183/1/206
f 398/1/243 397/1/242 184/1/207 190/1/245
f 398/1/243 399/1/246 187/1/170 189/1/244
f 399/1/246 398/1/243 190/1/245 188/1/173
f 399/1/246 400/1/247 175/1/171 187/1/170
f 400/1/247 399/1/246 188/1/173 176/1/172
f 400/1/247 397/1/242 183/1/206 175/1/171
f 397/1/242 400/1/247 176/1/172 184/1/207
f 401/1/248 402/1/249 63/1/250 51/1/251
f 402/1/249 401/1/248 52/1/252 64/1/253
f 402/1/249 403/1/254 59/1/255 63/1/250
f 403/1/254 402/1/249 64/1/253 60/1/256
f 403/1/254 404/1/257 55/1/258 59/1/255
f 404/1/257 403/1/254 60/1/256 56/1/259
f 404/1/257 401/1/248 51/1/251 55/1/258
f 401/1/248 404/1/257 56/1/259 52/1/252
f 405/1/260 406/1/261 71/1/262 67/1/263
f 406/1/261 405/1/260 68/1/264 72/1/265
f 406/1/261 407/1/266 59/1/255 71/1/262
f 407/1/266 406/1/261 72/1/265 60/1/256
f 407/1/266 408/1/267 63/1/250 59/1/255
f 408/1/267 407/1/266 60/1/256 64/1/253
f 408/1/267 405/1/260 67/1/263 63/1/250
f 405/1/260 408/1/267 64/1/253 68/1/264
f 409/1/268 410/1/269 109/1/270 111/1/271
f 410/1/269 409/1/268 112/1/272 110/1/273
f 410/1/269 411/1/274 103/1/275 109/1/270
f 411/1/274 410/1/269 110/1/273 104/1/276
f 411/1/274 412/1/277 107/1/278 103/1/275
f 412/1/277 411/1/274 104/1/276 108/1/279
f 412/1/277 409/1/268 111/1/271 107/1/278
f 409/1/268 412/1/277 108/1/279 112/1/272
f 413/1/280 414/1/281 201/1/282 157/1/283
f 414/1/281 413/1/280 158/1/284 202/1/285
f 414/1/281 415/1/286 159/1/141 201/1/282
f 415/1/286 414/1/281 202/1/285 160/1/142
f 415/1/286 416/1/287 141/1/68 159/1/141
f 416/1/287 415/1/286 160/1/142 142/1/69
f 416/1/287 413/1/280 157/1/283 141/1/68
f 413/1/280 416/1/287 142/1/69 158/1/284
f 417/1/288 418/1/289 97/1/3 85/1/8
f 418/1/289 417/1/288 86/1/9 98/1/6
f 418/1/289 419/1/290 127/1/291 97/1/3
f 419/1/290 418/1/289 98/1/6 128/1/292
f 419/1/290 420/1/293 121/1/294 127/1/291
f 420/1/293 419/1/290 128/1/292 122/1/295
f 420/1/293 417/1/288 85/1/8 121/1/294
f 417/1/288 420/1/293 122/1/295 86/1/9
f 421/1/296 422/1/297 123/1/298 121/1/294
f 422/1/297 421/1/296 122/1/295 124/1/299
f 422/1/297 423/1/300 113/1/301 123/1/298
f 423/1/300 422/1/297 124/1/299 114/1/302
f 423/1/300 424/1/303 77/1/304 113/1/301
f 424/1/303 423/1/300 114/1/302 78/1/305
f 424/1/303 421/1/296 121/1/294 77/1/304
f 421/1/296 424/1/303 78/1/305 122/1/295
f 425/1/306 426/1/307 99/1/146 139/1/145
f 426/1/307 425/1/306 140/1/148 100/1/147
f 426/1/307 427/1/308 115/1/309 99/1/146
f 427/1/308 426/1/307 100/1/147 116/1/310
f 427/1/308 428/1/311 137/1/187 115/1/309
f 428/1/311 427/1/308 116/1/310 138/1/188
f 428/1/311 425/1/306 139/1/145 137/1/187
f 425/1/306 428/1/311 138/1/188 140/1/148
f 429/1/312 430/1/313 75/1/314 67/1/263
f 430/1/313 429/1/312 68/1/264 76/1/315
f 430/1/313 431/1/316 73/1/317 75/1/314
f 431/1/316 430/1/313 76/1/315 74/1/318
f 431/1/316 432/1/319 71/1/262 73/1/317
f 432/1/319 431/1/316 74/1/318 72/1/265
f 432/1/319 429/1/312 67/1/263 71/1/262
f 429/1/312 432/1/319 72/1/265 68/1/264
f 433/1/320 434/1/321 75/1/314 73/1/317
f 434/1/321 433/1/320 74/1/318 76/1/315
f 434/1/321 435/1/322 65/1/323 75/1/314
f 435/1/322 434/1/321 76/1/315 66/1/324
f 435/1/322 436/1/325 69/1/326 65/1/323
f 436/1/325 435/1/322 66/1/324 70/1/327
f 436/1/325 433/1/320 73/1/317 69/1/326
f 433/1/320 436/1/325 70/1/327 74/1/318
f 437/1/328 438/1/329 133/1/42 139/1/145
f 438/1/329 437/1/328 140/1/148 134/1/43
f 438/1/329 439/1/330 135/1/39 133/1/42
f 439/1/330 438/1/329 134/1/43 136/1/40
f 439/1/330 440/1/331 105/1/150 135/1/39
f 440/1/331 439/1/330 136/1/40 106/1/151
f 440/1/331 437/1/328 139/1/145 105/1/150
f 437/1/328 440/1/331 106/1/151 140/1/148
f 441/1/332 442/1/333 87/1/35 79/1/28
f 442/1/333 441/1/332 80/1/29 88/1/36
f 442/1/333 443/1/334 83/1/236 87/1/35
f 443/1/334 442/1/333 88/1/36 84/1/237
f 443/1/334 444/1/335 81/1/240 83/1/236
f 444/1/335 443/1/334 84/1/237 82/1/241
f 444/1/335 441/1/332 79/1/28 81/1/240
f 441/1/332 444/1/335 82/1/241 80/1/29
f 445/1/336 446/1/337 197/1/338 145/1/75
f 446/1/337 445/1/336 146/1/76 198/1/339
f 446/1/337 447/1/340 157/1/283 197/1/338
f 447/1/340 446/1/337 198/1/339 158/1/284
f 447/1/340 448/1/341 141/1/68 157/1/283
f 448/1/341 447/1/340 158/1/284 142/1/69
f 448/1/341 445/1/336 145/1/75 141/1/68
f 445/1/336 448/1/341 142/1/69 146/1/76
f 449/1/342 450/1/343 187/1/170 177/1/59
f 450/1/343 449/1/342 178/1/60 188/1/173
f 450/1/343 451/1/344 191/1/345 187/1/170
f 451/1/344 450/1/343 188/1/173 192/1/346
f 451/1/344 452/1/347 151/1/181 191/1/345
f 452/1/347 451/1/344 192/1/346 152/1/182
f 452/1/347 449/1/342 177/1/59 151/1/181
f 449/1/342 452/1/347 152/1/182 178/1/60
f 453/1/348 454/1/349 177/1/59 155/1/62
f 454/1/349 453/1/348 156/1/63 178/1/60
f 454/1/349 455/1/350 151/1/181 177/1/59
f 455/1/350 454/1/349 178/1/60 152/1/182
f 455/1/350 456/1/351 153/1/178 151/1/181
f 456/1/351 455/1/350 152/1/182 154/1/179
f 456/1/351 453/1/348 155/1/62 153/1/178
f 453/1/348 456/1/351 154/1/179 156/1/63
f 457/1/352 458/1/353 121/1/294 85/1/8
f 458/1/353 457/1/352 86/1/9 122/1/295
f 458/1/353 459/1/354 77/1/304 121/1/294
f 459/1/354 458/1/353 122/1/295 78/1/305
f 459/1/354 460/1/355 81/1/240 77/1/304
f 460/1/355 459/1/354 78/1/305 82/1/241
f 460/1/355 457/1/352 85/1/8 81/1/240
f 457/1/352 460/1/355 82/1/241 86/1/9
f 461/1/356 462/1/357 129/1/190 133/1/42
f 462/1/357 461/1/356 134/1/43 130/1/191
f 462/1/357 463/1/358 127/1/291 129/1/190
f 463/1/358 462/1/357 130/1/191 128/1/292
f 463/1/358 464/1/359 97/1/3 127/1/291
f 464/1/359 463/1/358 128/1/292 98/1/6
f 464/1/359 461/1/356 133/1/42 97/1/3
f 461/1/356 464/1/359 98/1/6 134/1/43
f 465/1/360 466/1/361 167/1/48 201/1/282
f 466/1/361 465/1/360 202/1/285 168/1/49
f 466/1/361 467/1/362 161/1/134 167/1/48
f 467/1/362 466/1/361 168/1/49 162/1/135
f 467/1/362 468/1/363 159/1/141 161/1/134
f 468/1/363 467/1/362 162/1/135 160/1/142
f 468/1/363 465/1/360 201/1/282 159/1/141
f 465/1/360 468/1/363 160/1/142 202/1/285
f 469/1/364 470/1/365 103/1/275 107/1/278
f 470/1/365 469/1/364 108/1/279 104/1/276
f 470/1/365 471/1/366 95/1/27 103/1/275
f 471/1/366 470/1/365 104/1/276 96/1/30
f 471/1/366 472/1/367 79/1/28 95/1/27
f 472/1/367 471/1/366 96/1/30 80/1/29
f 472/1/367 469/1/364 107/1/278 79/1/28
f 469/1/364 472/1/367 80/1/29 108/1/279
f 473/1/368 474/1/369 117/1/370 109/1/270
f 474/1/369 473/1/368 110/1/273 118/1/371
f 474/1/369 475/1/372 115/1/309 117/1/370
f 475/1/372 474/1/369 118/1/371 116/1/310
f 475/1/372 476/1/373 103/1/275 115/1/309
f 476/1/373 475/1/372 116/1/310 104/1/276
f 476/1/373 473/1/368 109/1/270 103/1/275
f 473/1/368 476/1/373 104/1/276 110/1/273
f 477/1/374 478/1/375 55/1/258 51/1/251
f 478/1/375 477/1/374 52/1/252 56/1/259
f 478/1/375 479/1/376 45/1/377 55/1/258
f 479/1/376 478/1/375 56/1/259 46/1/378
f 479/1/376 480/1/379 49/1/380 45/1/377
f 480/1/379 479/1/376 46/1/378 50/1/381
f 480/1/379 477/1/374 51/1/251 49/1/380
f 477/1/374 480/1/379 50/1/381 52/1/252
f 481/1/382 482/1/383 77/1/304 107/1/278
f 482/1/383 481/1/382 108/1/279 78/1/305
f 482/1/383 483/1/384 113/1/301 77/1/304
f 483/1/384 482/1/383 78/1/305 114/1/302
f 483/1/384 484/1/385 111/1/271 113/1/301
f 484/1/385 483/1/384 114/1/302 112/1/272
f 484/1/385 481/1/382 107/1/278 111/1/271
f 481/1/382 484/1/385 112/1/272 108/1/279
f 485/1/386 486/1/387 115/1/309 103/1/275
f 486/1/387 485/1/386 104/1/276 116/1/310
f 486/1/387 487/1/388 99/1/146 115/1/309
f 487/1/388 486/1/387 116/1/310 100/1/147
f 487/1/388 488/1/389 95/1/27 99/1/146
f 488/1/389 487/1/388 100/1/147 96/1/30
f 488/1/389 485/1/386 103/1/275 95/1/27
f 485/1/386 488/1/389 96/1/30 104/1/276
f 489/1/390 490/1/391 193/1/392 189/1/244
f 490/1/391 489/1/390 190/1/245 194/1/393
f 490/1/391 491/1/394 191/1/345 193/1/392
f 491/1/394 490/1/391 194/1/393 192/1/346
f 491/1/394 492/1/395 187/1/170 191/1/345
f 492/1/395 491/1/394 192/1/346 188/1/173
f 492/1/395 489/1/390 189/1/244 187/1/170
f 489/1/390 492/1/395 188/1/173 190/1/245
f 493/1/396 494/1/397 179/1/55 169/1/20
f 494/1/397 493/1/396 170/1/21 180/1/56
f 494/1/397 495/1/398 175/1/171 179/1/55
f 495/1/398 494/1/397 180/1/56 176/1/172
f 495/1/398 496/1/399 171/1/23 175/1/171
f 496/1/399 495/1/398 176/1/172 172/1/24
f 496/1/399 493/1/396 169/1/20 171/1/23
f 493/1/396 496/1/399 172/1/24 170/1/21
f 497/1/400 498/1/401 191/1/345 197/1/338
f 498/1/401 497/1/400 198/1/339 192/1/346
f 498/1/401 499/1/402 193/1/392 191/1/345
f 499/1/402 498/1/401 192/1/346 194/1/393
f 499/1/402 500/1/403 195/1/404 193/1/392
f 500/1/403 499/1/402 194/1/393 196/1/405
f 500/1/403 497/1/400 197/1/338 195/1/404
f 497/1/400 500/1/403 196/1/405 198/1/339
f 501/1/406 502/1/407 179/1/55 167/1/48
f 502/1/407 501/1/406 168/1/49 180/1/56
f 502/1/407 503/1/408 169/1/20 179/1/55
f 503/1/408 502/1/407 180/1/56 170/1/21
f 503/1/408 504/1/409 161/1/134 169/1/20
f 504/1/409 503/1/408 170/1/21 162/1/135
f 504/1/409 501/1/406 167/1/48 161/1/134
f 501/1/406 504/1/409 162/1/135 168/1/49
f 505/1/410 506/1/411 199/1/412 195/1/404
f 506/1/411 505/1/410 196/1/405 200/1/413
f 506/1/411 507/1/414 157/1/283 199/1/412
f 507/1/414 506/1/411 200/1/413 158/1/284
f 507/1/414 508/1/415 197/1/338 157/1/283
f 508/1/415 507/1/414 158/1/284 198/1/339
f 508/1/415 505/1/410 195/1/404 197/1/338
f 505/1/410 508/1/415 198/1/339 196/1/405
f 509/1/416 510/1/417 69/1/326 57/1/418
f 510/1/417 509/1/416 58/1/419 70/1/327
f 510/1/417 511/1/420 65/1/323 69/1/326
f 511/1/420 510/1/417 70/1/327 66/1/324
f 511/1/420 512/1/421 61/1/422 65/1/323
f 512/1/421 511/1/420 66/1/324 62/1/423
f 512/1/421 509/1/416 57/1/418 61/1/422
f 509/1/416 512/1/421 62/1/423 58/1/419
f 513/1/424 514/1/425 61/1/422 57/1/418
f 514/1/425 513/1/424 58/1/419 62/1/423
f 514/1/425 515/1/426 47/1/427 61/1/422
f 515/1/426 514/1/425 62/1/423 48/1/428
f 515/1/426 516/1/429 53/1/430 47/1/427
f 516/1/429 515/1/426 48/1/428 54/1/431
f 516/1/429 513/1/424 57/1/418 53/1/430
f 513/1/424 516/1/429 54/1/431 58/1/419
f 517/1/432 518/1/433 203/1/434 199/1/412
f 518/1/433 517/1/432 200/1/413 204/1/435
f 518/1/433 519/1/436 201/1/282 203/1/434
f 519/1/436 518/1/433 204/1/435 202/1/285
f 519/1/436 520/1/437 157/1/283 201/1/282
f 520/1/437 519/1/436 202/1/285 158/1/284
f 520/1/437 517/1/432 199/1/412 157/1/283
f 517/1/432 520/1/437 158/1/284 200/1/413
f 521/1/438 522/1/439 203/1/434 201/1/282
f 522/1/439 521/1/438 202/1/285 204/1/435
f 522/1/439 523/1/440 185/1/47 203/1/434
f 523/1/440 522/1/439 204/1/435 186/1/50
f 523/1/440 524/1/441 167/1/48 185/1/47
f 524/1/441 523/1/440 186/1/50 168/1/49
f 524/1/441 521/1/438 201/1/282 167/1/48
f 521/1/438 524/1/441 168/1/49 202/1/285
f 525/1/442 526/1/443 115/1/309 137/1/187
f 526/1/443 525/1/442 138/1/188 116/1/310
f 526/1/443 527/1/444 117/1/370 115/1/309
f 527/1/444 526/1/443 116/1/310 118/1/371
f 527/1/444 528/1/445 119/1/199 117/1/370
f 528/1/445 527/1/444 118/1/371 120/1/200
f 528/1/445 525/1/442 137/1/187 119/1/199
f 525/1/442 528/1/445 120/1/200 138/1/188
f 529/1/446 530/1/447 11/1/448 3/1/129
f 530/1/447 529/1/446 4/1/130 12/1/449
f 530/1/447 531/1/450 9/1/451 11/1/448
f 531/1/450 530/1/447 12/1/449 10/1/452
f 531/1/450 532/1/453 5/1/122 9/1/451
f 532/1/453 531/1/450 10/1/452 6/1/123
f 532/1/453 529/1/446 3/1/129 5/1/122
f 529/1/446 532/1/453 6/1/123 4/1/130
f 533/1/454 534/1/455 127/1/291 121/1/294
f 534/1/455 533/1/454 122/1/295 128/1/292
f 534/1/455 535/1/456 125/1/457 127/1/291
f 535/1/456 534/1/455 128/1/292 126/1/458
f 535/1/456 536/1/459 123/1/298 125/1/457
f 536/1/459 535/1/456 126/1/458 124/1/299
f 536/1/459 533/1/454 121/1/294 123/1/298
f 533/1/454 536/1/459 124/1/299 122/1/295
f 537/1/460 538/1/461 251/1/462 253/1/463
f 538/1/461 537/1/460 254/1/464 252/1/465
f 538/1/461 539/1/466 249/1/110 251/1/462
f 539/1/466 538/1/461 252/1/465 250/1/111
f 539/1/466 540/1/467 247/1/117 249/1/110
f 540/1/467 539/1/466 250/1/111 248/1/118
f 540/1/467 537/1/460 253/1/463 247/1/117
f 537/1/460 540/1/467 248/1/118 254/1/464
f 541/1/468 542/1/469 53/1/430 45/1/377
f 542/1/469 541/1/468 46/1/378 54/1/431
f 542/1/469 543/1/470 47/1/427 53/1/430
f 543/1/470 542/1/469 54/1/431 48/1/428
f 543/1/470 544/1/471 49/1/380 47/1/427
f 544/1/471 543/1/470 48/1/428 50/1/381
f 544/1/471 541/1/468 45/1/377 49/1/380
f 541/1/468 544/1/471 50/1/381 46/1/378
f 545/1/472 546/1/473 159/1/141 141/1/68
f 546/1/473 545/1/472 142/1/69 160/1/142
f 546/1/473 547/1/474 149/1/138 159/1/141
f 547/1/474 546/1/473 160/1/142 150/1/139
f 547/1/474 548/1/475 147/1/67 149/1/138
f 548/1/475 547/1/474 150/1/139 148/1/70
f 548/1/475 545/1/472 141/1/68 147/1/67
f 545/1/472 548/1/475 148/1/70 142/1/69
f 549/1/476 550/1/477 245/1/114 259/1/478
f 550/1/477 549/1/476 260/1/479 246/1/115
f 550/1/477 551/1/480 255/1/109 245/1/114
f 551/1/480 550/1/477 246/1/115 256/1/112
f 551/1/480 552/1/481 257/1/482 255/1/109
f 552/1/481 551/1/480 256/1/112 258/1/483
f 552/1/481 549/1/476 259/1/478 257/1/482
f 549/1/476 552/1/481 258/1/483 260/1/479
f 553/1/484 554/1/485 291/1/486 289/1/487
f 554/1/485 553/1/484 290/1/488 292/1/489
f 554/1/485 555/1/490 283/1/491 291/1/486
f 555/1/490 554/1/485 292/1/489 284/1/492
f 555/1/490 556/1/493 281/1/494 283/1/491
f 556/1/493 555/1/490 284/1/492 282/1/495
f 556/1/493 553/1/484 289/1/487 281/1/494
f 553/1/484 556/1/493 282/1/495 290/1/488
f 557/1/496 558/1/497 101/1/153 99/1/146
f 558/1/497 557/1/496 100/1/147 102/1/154
f 558/1/497 559/1/498 91/1/32 101/1/153
f 559/1/498 558/1/497 102/1/154 92/1/33
f 559/1/498 560/1/499 95/1/27 91/1/32
f 560/1/499 559/1/498 92/1/33 96/1/30
f 560/1/499 557/1/496 99/1/146 95/1/27
f 557/1/496 560/1/499 96/1/30 100/1/147
f 561/1/500 562/1/222 279/1/501 277/1/502
f 562/1/222 561/1/500 278/1/503 280/1/504
f 562/1/222 563/1/505 273/1/506 279/1/501
f 563/1/505 562/1/222 280/1/504 274/1/507
f 563/1/505 564/1/231 275/1/508 273/1/506
f 564/1/231 563/1/505 274/1/507 276/1/509
f 564/1/231 561/1/500 277/1/502 275/1/508
f 561/1/500 564/1/231 276/1/509 278/1/503
f 565/1/510 566/1/511 131/1/202 129/1/190
f 566/1/511 565/1/510 130/1/191 132/1/203
f 566/1/511 567/1/512 125/1/457 131/1/202
f 567/1/512 566/1/511 132/1/203 126/1/458
f 567/1/512 568/1/513 127/1/291 125/1/457
f 568/1/513 567/1/512 126/1/458 128/1/292
f 568/1/513 565/1/510 129/1/190 127/1/291
f 565/1/510 568/1/513 128/1/292 130/1/191
f 569/1/514 570/1/515 197/1/338 191/1/345
f 570/1/515 569/1/514 192/1/346 198/1/339
f 570/1/515 571/1/516 145/1/75 197/1/338
f 571/1/516 570/1/515 198/1/339 146/1/76
f 571/1/516 572/1/517 151/1/181 145/1/75
f 572/1/517 571/1/516 146/1/76 152/1/182
f 572/1/517 569/1/514 191/1/345 151/1/181
f 569/1/514 572/1/517 152/1/182 192/1/346
f 573/1/210 574/1/231 21/1/232 13/1/213
f 574/1/231 573/1/210 14/1/214 22/1/233
f 574/1/231 575/1/518 25/1/519 21/1/232
f 575/1/518 574/1/231 22/1/233 26/1/520
f 575/1/518 576/1/521 37/1/217 25/1/519
f 576/1/521 575/1/518 26/1/520 38/1/218
f 576/1/521 577/1/522 33/1/212 37/1/217
f 577/1/522 576/1/521 38/1/218 34/1/215
f 577/1/522 578/1/523 29/1/524 33/1/212
f 578/1/523 577/1/522 34/1/215 30/1/525
f 578/1/523 579/1/222 15/1/223 29/1/524
f 579/1/222 578/1/523 30/1/525 16/1/224
f 579/1/222 580/1/219 17/1/220 15/1/223
f 580/1/219 579/1/222 16/1/224 18/1/221
f 580/1/219 581/1/505 19/1/526 17/1/220
f 581/1/505 580/1/219 18/1/221 20/1/527
f 581/1/505 582/1/528 31/1/229 19/1/526
f 582/1/528 581/1/505 20/1/527 32/1/230
f 582/1/528 583/1/529 27/1/226 31/1/229
f 583/1/529 582/1/528 32/1/230 28/1/227
f 583/1/529 584/1/500 23/1/530 27/1/226
f 584/1/500 583/1/529 28/1/227 24/1/531
f 584/1/500 573/1/210 13/1/213 23/1/530
f 573/1/210 584/1/500 24/1/531 14/1/214
f 585/1/532 586/1/533 107/1/278 77/1/304
f 586/1/533 585/1/532 78/1/305 108/1/279
f 586/1/533 587/1/534 79/1/28 107/1/278
f 587/1/534 586/1/533 108/1/279 80/1/29
f 587/1/534 588/1/535 81/1/240 79/1/28
f 588/1/535 587/1/534 80/1/29 82/1/241
f 588/1/535 585/1/532 77/1/304 81/1/240
f 585/1/532 588/1/535 82/1/241 78/1/305
f 589/1/536 590/1/537 287/1/538 283/1/491
f 590/1/537 589/1/536 284/1/492 288/1/539
f 590/1/537 591/1/540 285/1/541 287/1/538
f 591/1/540 590/1/537 288/1/539 286/1/542
f 591/1/540 592/1/543 281/1/494 285/1/541
f 592/1/543 591/1/540 286/1/542 282/1/495
f 592/1/543 589/1/536 283/1/491 281/1/494
f 589/1/536 592/1/543 282/1/495 284/1/492
f 593/1/544 594/1/545 263/1/546 257/1/482
f 594/1/545 593/1/544 258/1/483 264/1/547
f 594/1/545 595/1/548 261/1/549 263/1/546
f 595/1/548 594/1/545 264/1/547 262/1/550
f 595/1/548 596/1/551 259/1/478 261/1/549
f 596/1/551 595/1/548 262/1/550 260/1/479
f 596/1/551 593/1/544 257/1/482 259/1/478
f 593/1/544 596/1/551 260/1/479 258/1/483
